<svg width="548" height="254" viewBox="0 0 548 254" fill="none" xmlns="http://www.w3.org/2000/svg">
<rect y="73" width="108" height="108" rx="23.2031" fill="#D8D8D8"/>
<mask id="mask0_456_2279" style="mask-type:luminance" maskUnits="userSpaceOnUse" x="0" y="73" width="108" height="108">
<rect y="73" width="108" height="108" rx="23.2031" fill="white"/>
</mask>
<g mask="url(#mask0_456_2279)">
<rect y="73" width="108" height="108" fill="url(#paint0_linear_456_2279)"/>
<circle cx="54" cy="127" r="18.5625" stroke="#FCC176" stroke-width="0.632813"/>
<circle cx="54" cy="127" r="26.3672" stroke="#FCC176" stroke-width="0.632813"/>
<circle cx="53.9473" cy="126.947" r="42.9785" stroke="#FCC176" stroke-width="0.632813"/>
<rect x="35.4375" y="108.438" width="37.125" height="37.125" stroke="#FCC176" stroke-width="0.632813"/>
<rect x="11.0215" y="83.9688" width="85.957" height="85.957" stroke="#FCC176" stroke-width="0.632813"/>
<rect x="-1.79297" y="108.438" width="111.586" height="37.2305" stroke="#FCC176" stroke-width="0.632813"/>
<rect x="35.4375" y="71.207" width="37.2305" height="111.586" stroke="#FCC176" stroke-width="0.632813"/>
<path d="M-2.05664 183.162L110.162 70.8379" stroke="#FCC176" stroke-width="0.632813" stroke-linecap="square"/>
<path d="M110.162 183.162L-2.05665 70.8379" stroke="#FCC176" stroke-width="0.632813" stroke-linecap="square"/>
<path d="M53.9473 183.162V70.8379" stroke="#FCC176" stroke-width="0.632813" stroke-linecap="square"/>
<path d="M10.7578 138.105C12.0585 140.241 13.7755 142.54 15.9087 145.002C18.0419 147.463 20.5393 149.893 23.4009 152.29C26.2626 154.686 29.4559 156.868 32.9809 158.835C36.5058 160.802 40.3235 162.371 44.4338 163.544C48.5441 164.716 52.9016 165.302 57.5062 165.302C60.4458 165.302 63.0083 165.074 65.1935 164.618C67.3788 164.162 69.3169 163.589 71.0078 162.899C72.6988 162.209 74.2661 161.525 75.71 160.847C77.1538 160.17 78.5976 159.603 80.0414 159.148C81.4852 158.692 83.0656 158.464 84.7826 158.464C87.1499 158.464 89.075 158.887 90.5578 159.734C92.0407 160.58 93.1918 161.531 94.0113 162.586C94.8307 163.641 95.4226 164.482 95.7868 165.107C95.9429 165.419 96.138 165.615 96.3721 165.693C96.6062 165.771 96.8014 165.524 96.9574 164.951C97.0615 164.534 97.1525 164.058 97.2306 163.524C97.3086 162.99 97.3477 162.384 97.3477 161.707C97.3477 160.457 97.1656 158.861 96.8014 156.92C96.4371 154.979 95.7282 152.817 94.6747 150.433C93.6211 148.05 92.0537 145.555 89.9725 142.95C90.6489 141.022 91.0716 139.081 91.2407 137.128C91.4098 135.174 91.4944 133.572 91.4944 132.321C91.4944 129.482 91.0391 126.206 90.1286 122.493C89.2181 118.781 87.7157 114.912 85.6216 110.887C83.5274 106.862 80.7113 102.909 77.1733 99.0274C73.6353 95.1458 69.2128 91.6028 63.9058 88.3984C65.3886 90.4826 66.9235 92.9314 68.5104 95.7449C70.0973 98.5585 71.4501 101.75 72.5687 105.319C73.6873 108.888 74.2466 112.874 74.2466 117.276C74.2466 119.647 73.9865 122.018 73.4662 124.388C72.9459 126.759 72.4126 128.596 71.8663 129.898C69.551 128.57 66.8975 126.837 63.9058 124.701C60.9141 122.565 57.7923 120.207 54.5405 117.628C51.2887 115.049 48.0824 112.411 44.9216 109.715C41.7608 107.019 38.8472 104.44 36.1807 101.978C33.5142 99.5159 31.2964 97.3471 29.5274 95.4714C33.0654 100.916 36.9156 106.159 41.0779 111.2C45.2403 116.241 49.6367 121.34 54.2674 126.499C48.0238 122.539 41.9884 118.351 36.1611 113.935C30.3339 109.52 24.7147 104.876 19.3036 100.004C24.5066 107.585 30.4509 115.069 37.1367 122.454C43.8225 129.84 51.4968 137.036 60.1597 144.044C58.5208 144.956 56.8103 145.783 55.0283 146.526C53.2463 147.268 51.2497 147.861 49.0384 148.304C46.8272 148.747 44.2777 148.968 41.3901 148.968C38.7366 148.968 35.9855 148.675 33.1369 148.089C30.2883 147.503 27.4918 146.701 24.7472 145.685C22.0027 144.669 19.4272 143.51 17.0208 142.208C14.6145 140.905 12.5268 139.537 10.7578 138.105Z" fill="white"/>
</g>
<rect x="124" y="121" width="12" height="12" fill="#FF9900" fill-opacity="0.5"/>
<rect x="140" y="105" width="12" height="12" fill="#FF9900" fill-opacity="0.4"/>
<rect x="140" y="121" width="12" height="12" fill="#FF9900" fill-opacity="0.8"/>
<rect x="140" y="137" width="12" height="12" fill="#FF9900" fill-opacity="0.4"/>
<rect x="156" y="105" width="12" height="12" fill="#FF9900" fill-opacity="0.7"/>
<rect x="156" y="121" width="12" height="12" fill="#FF9900" fill-opacity="0.3"/>
<rect x="156" y="137" width="12" height="12" fill="#FF9900" fill-opacity="0.7"/>
<rect x="172" y="105" width="12" height="12" fill="#FF9900" fill-opacity="0.2"/>
<rect x="172" y="121" width="12" height="12" fill="#FF9900" fill-opacity="0.7"/>
<rect x="172" y="137" width="12" height="12" fill="#FF9900" fill-opacity="0.2"/>
<rect x="188" y="105" width="12" height="12" fill="#FF9900" fill-opacity="0.5"/>
<rect x="188" y="121" width="12" height="12" fill="#FF9900" fill-opacity="0.2"/>
<rect x="188" y="137" width="12" height="12" fill="#FF9900" fill-opacity="0.5"/>
<rect x="204" y="105" width="12" height="12" fill="#FF9900" fill-opacity="0.3"/>
<rect x="204" y="121" width="12" height="12" fill="#FF9900" fill-opacity="0.7"/>
<rect x="204" y="137" width="12" height="12" fill="#FF9900" fill-opacity="0.3"/>
<rect x="220" y="105" width="12" height="12" fill="#FF9900" fill-opacity="0.5"/>
<rect x="220" y="121" width="12" height="12" fill="#FF9900" fill-opacity="0.2"/>
<rect x="220" y="137" width="12" height="12" fill="#FF9900" fill-opacity="0.5"/>
<rect x="236" y="105" width="12" height="12" fill="#FF9900" fill-opacity="0.3"/>
<rect x="236" y="121" width="12" height="12" fill="#FF9900" fill-opacity="0.4"/>
<rect x="236" y="137" width="12" height="12" fill="#FF9900" fill-opacity="0.3"/>
<rect x="252" y="105" width="12" height="12" fill="#FF9900" fill-opacity="0.8"/>
<rect x="252" y="121" width="12" height="12" fill="#FF9900" fill-opacity="0.5"/>
<rect x="252" y="137" width="12" height="12" fill="#FF9900" fill-opacity="0.8"/>
<rect x="268" y="105" width="12" height="12" fill="#FF9900" fill-opacity="0.4"/>
<rect x="268" y="121" width="12" height="12" fill="#FF9900" fill-opacity="0.6"/>
<rect x="268" y="137" width="12" height="12" fill="#FF9900" fill-opacity="0.4"/>
<rect x="284" y="105" width="12" height="12" fill="#FF9900" fill-opacity="0.2"/>
<rect x="284" y="121" width="12" height="12" fill="#FF9900" fill-opacity="0.4"/>
<rect x="284" y="137" width="12" height="12" fill="#FF9900" fill-opacity="0.2"/>
<rect x="300" y="105" width="12" height="12" fill="#FF9900" fill-opacity="0.3"/>
<rect x="300" y="121" width="12" height="12" fill="#FF9900" fill-opacity="0.7"/>
<rect x="300" y="137" width="12" height="12" fill="#FF9900" fill-opacity="0.3"/>
<rect x="316" y="105" width="12" height="12" fill="#FF9900" fill-opacity="0.7"/>
<rect x="316" y="121" width="12" height="12" fill="#FF9900" fill-opacity="0.4"/>
<rect x="316" y="137" width="12" height="12" fill="#FF9900" fill-opacity="0.7"/>
<rect x="332" y="105" width="12" height="12" fill="#FF9900" fill-opacity="0.3"/>
<rect x="332" y="121" width="12" height="12" fill="#FF9900" fill-opacity="0.8"/>
<rect x="332" y="137" width="12" height="12" fill="#FF9900" fill-opacity="0.3"/>
<rect x="348" y="105" width="12" height="12" fill="#FF9900" fill-opacity="0.6"/>
<rect x="348" y="121" width="12" height="12" fill="#FF9900" fill-opacity="0.9"/>
<rect x="348" y="137" width="12" height="12" fill="#FF9900" fill-opacity="0.6"/>
<rect x="364" y="105" width="12" height="12" fill="#FF9900" fill-opacity="0.3"/>
<rect x="364" y="121" width="12" height="12" fill="#FF9900" fill-opacity="0.6"/>
<rect x="364" y="137" width="12" height="12" fill="#FF9900" fill-opacity="0.3"/>
<rect x="380" y="105" width="12" height="12" fill="#FF9900" fill-opacity="0.6"/>
<rect x="380" y="121" width="12" height="12" fill="#FF9900" fill-opacity="0.3"/>
<rect x="380" y="137" width="12" height="12" fill="#FF9900" fill-opacity="0.6"/>
<rect x="396" y="105" width="12" height="12" fill="#FF9900" fill-opacity="0.3"/>
<rect x="396" y="121" width="12" height="12" fill="#FF9900" fill-opacity="0.8"/>
<rect x="396" y="137" width="12" height="12" fill="#FF9900" fill-opacity="0.3"/>
<rect x="412" y="121" width="12" height="12" fill="#FF9900" fill-opacity="0.7"/>
<rect x="440" y="73" width="108" height="108" rx="16" fill="#1D1D1F"/>
<path d="M470.5 145.781C469.958 145.781 469.5 145.594 469.125 145.219C468.75 144.844 468.562 144.385 468.562 143.844V132.188C468.562 131.646 468.75 131.188 469.125 130.812C469.5 130.438 469.958 130.25 470.5 130.25C471.042 130.25 471.51 130.438 471.906 130.812C472.302 131.188 472.5 131.646 472.5 132.188V143.844C472.5 144.385 472.302 144.844 471.906 145.219C471.51 145.594 471.042 145.781 470.5 145.781ZM477.688 145.781C477.146 145.781 476.688 145.594 476.312 145.219C475.938 144.844 475.75 144.385 475.75 143.844V132.188C475.75 131.646 475.938 131.188 476.312 130.812C476.688 130.438 477.146 130.25 477.688 130.25C478.229 130.25 478.698 130.438 479.094 130.812C479.49 131.188 479.688 131.646 479.688 132.188V143.844C479.688 144.385 479.49 144.844 479.094 145.219C478.698 145.594 478.229 145.781 477.688 145.781ZM484.875 145.781C484.312 145.781 483.844 145.594 483.469 145.219C483.115 144.844 482.938 144.385 482.938 143.844V132.188C482.938 131.646 483.115 131.188 483.469 130.812C483.844 130.438 484.312 130.25 484.875 130.25C485.396 130.25 485.854 130.438 486.25 130.812C486.646 131.188 486.844 131.646 486.844 132.188V143.844C486.844 144.385 486.646 144.844 486.25 145.219C485.854 145.594 485.396 145.781 484.875 145.781ZM494.125 146.125C493.479 146.125 492.927 145.906 492.469 145.469C492.01 145.01 491.781 144.458 491.781 143.812C491.781 143.188 492.01 142.646 492.469 142.188C492.927 141.729 493.479 141.5 494.125 141.5C494.729 141.5 495.26 141.729 495.719 142.188C496.177 142.646 496.406 143.188 496.406 143.812C496.406 144.458 496.177 145 495.719 145.438C495.26 145.875 494.729 146.104 494.125 146.125ZM494.125 140.312C493.479 140.312 492.927 140.094 492.469 139.656C492.01 139.198 491.781 138.646 491.781 138C491.781 137.375 492.01 136.833 492.469 136.375C492.927 135.917 493.479 135.688 494.125 135.688C494.729 135.688 495.26 135.917 495.719 136.375C496.177 136.833 496.406 137.375 496.406 138C496.406 138.646 496.177 139.188 495.719 139.625C495.26 140.062 494.729 140.292 494.125 140.312ZM494.125 134.5C493.479 134.479 492.927 134.25 492.469 133.812C492.01 133.354 491.781 132.802 491.781 132.156C491.781 131.531 492.01 130.99 492.469 130.531C492.927 130.073 493.479 129.844 494.125 129.844C494.729 129.844 495.26 130.073 495.719 130.531C496.177 130.99 496.406 131.531 496.406 132.156C496.406 132.802 496.177 133.354 495.719 133.812C495.26 134.25 494.729 134.479 494.125 134.5ZM502.906 145.781C502.385 145.781 501.938 145.594 501.562 145.219C501.188 144.844 501 144.385 501 143.844V132.188C501 131.646 501.188 131.188 501.562 130.812C501.938 130.438 502.385 130.25 502.906 130.25C503.448 130.25 503.917 130.438 504.312 130.812C504.708 131.188 504.906 131.646 504.906 132.188V143.844C504.906 144.385 504.708 144.844 504.312 145.219C503.917 145.594 503.448 145.781 502.906 145.781ZM510.094 145.781C509.552 145.781 509.094 145.594 508.719 145.219C508.344 144.844 508.156 144.385 508.156 143.844V132.188C508.156 131.646 508.344 131.188 508.719 130.812C509.094 130.438 509.552 130.25 510.094 130.25C510.635 130.25 511.104 130.438 511.5 130.812C511.896 131.188 512.094 131.646 512.094 132.188V143.844C512.094 144.385 511.896 144.844 511.5 145.219C511.104 145.594 510.635 145.781 510.094 145.781ZM517.312 145.781C516.771 145.781 516.302 145.594 515.906 145.219C515.531 144.844 515.344 144.385 515.344 143.844V132.188C515.344 131.646 515.531 131.188 515.906 130.812C516.302 130.438 516.771 130.25 517.312 130.25C517.833 130.25 518.292 130.438 518.688 130.812C519.083 131.188 519.281 131.646 519.281 132.188V143.844C519.281 144.385 519.083 144.844 518.688 145.219C518.292 145.594 517.833 145.781 517.312 145.781ZM467 155.188C463.542 155.188 460.906 154.292 459.094 152.5C457.302 150.729 456.406 148.125 456.406 144.688V125.906C456.406 123.552 456.708 121.521 457.312 119.812C457.938 118.104 458.927 116.562 460.281 115.188L470.094 105.156C471.323 103.906 472.438 102.885 473.438 102.094C474.458 101.302 475.542 100.719 476.688 100.344C477.833 99.9688 479.198 99.7812 480.781 99.7812H507.25C508.833 99.7812 510.188 99.9688 511.312 100.344C512.458 100.719 513.542 101.302 514.562 102.094C515.583 102.885 516.698 103.906 517.906 105.156L527.719 115.188C529.031 116.521 530 118.073 530.625 119.844C531.271 121.594 531.594 123.615 531.594 125.906V144.688C531.594 148.125 530.688 150.729 528.875 152.5C527.083 154.292 524.458 155.188 521 155.188H467ZM467.438 148.469H520.562C523.375 148.469 524.781 147.052 524.781 144.219V130.281C524.781 128.385 523.854 127.438 522 127.438H466C464.146 127.438 463.219 128.385 463.219 130.281V144.219C463.219 147.052 464.625 148.469 467.438 148.469ZM465.406 121.656H522.594C523.135 121.656 523.469 121.469 523.594 121.094C523.74 120.698 523.656 120.344 523.344 120.031L511.875 107.969C511.062 107.094 510.292 106.479 509.562 106.125C508.854 105.75 507.948 105.562 506.844 105.562H481.156C480.073 105.562 479.167 105.75 478.438 106.125C477.708 106.5 476.948 107.115 476.156 107.969L464.688 120.031C464.375 120.344 464.281 120.698 464.406 121.094C464.531 121.469 464.865 121.656 465.406 121.656Z" fill="#00B2AA"/>
<defs>
<linearGradient id="paint0_linear_456_2279" x1="0" y1="73" x2="0" y2="181" gradientUnits="userSpaceOnUse">
<stop stop-color="#FF9900"/>
<stop offset="1" stop-color="#F05137"/>
</linearGradient>
</defs>
</svg>
