<svg width="24" height="24" viewBox="0 0 24 24" fill="none" xmlns="http://www.w3.org/2000/svg">
<rect width="24" height="24" rx="5.15625" fill="#D8D8D8"/>
<mask id="mask0_2_119" style="mask-type:luminance" maskUnits="userSpaceOnUse" x="0" y="0" width="24" height="24">
<rect width="24" height="24" rx="5.15625" fill="white"/>
</mask>
<g mask="url(#mask0_2_119)">
<rect width="24" height="24" fill="url(#paint0_linear_2_119)"/>
<circle cx="12" cy="12" r="4.125" stroke="#FCC176" stroke-width="0.140625"/>
<circle cx="12" cy="12" r="5.85938" stroke="#FCC176" stroke-width="0.140625"/>
<circle cx="11.9883" cy="11.9883" r="9.55078" stroke="#FCC176" stroke-width="0.140625"/>
<rect x="7.875" y="7.875" width="8.25" height="8.25" stroke="#FCC176" stroke-width="0.140625"/>
<rect x="2.44922" y="2.4375" width="19.1016" height="19.1016" stroke="#FCC176" stroke-width="0.140625"/>
<rect x="-0.398438" y="7.875" width="24.7969" height="8.27344" stroke="#FCC176" stroke-width="0.140625"/>
<rect x="7.875" y="-0.398438" width="8.27344" height="24.7969" stroke="#FCC176" stroke-width="0.140625"/>
<path d="M-0.457031 24.4805L24.4805 -0.480469" stroke="#FCC176" stroke-width="0.140625" stroke-linecap="square"/>
<path d="M24.4805 24.4805L-0.457031 -0.480469" stroke="#FCC176" stroke-width="0.140625" stroke-linecap="square"/>
<path d="M11.9883 24.4805V-0.480469" stroke="#FCC176" stroke-width="0.140625" stroke-linecap="square"/>
<path d="M2.39062 14.4677C2.67968 14.9424 3.06123 15.4533 3.53527 16.0004C4.00932 16.5474 4.5643 17.0873 5.20021 17.6199C5.83612 18.1525 6.54575 18.6373 7.32908 19.0744C8.11241 19.5115 8.96078 19.8603 9.87418 20.1208C10.7876 20.3813 11.7559 20.5116 12.7792 20.5116C13.4324 20.5116 14.0018 20.4609 14.4874 20.3596C14.9731 20.2583 15.4037 20.131 15.7795 19.9775C16.1553 19.8241 16.5036 19.6722 16.8244 19.5216C17.1453 19.3711 17.4661 19.2452 17.787 19.1439C18.1078 19.0426 18.459 18.9919 18.8406 18.9919C19.3666 18.9919 19.7944 19.086 20.124 19.2742C20.4535 19.4623 20.7093 19.6736 20.8914 19.9081C21.0735 20.1425 21.205 20.3292 21.2859 20.4682C21.3206 20.5376 21.364 20.5811 21.416 20.5984C21.4681 20.6158 21.5114 20.5608 21.5461 20.4334C21.5692 20.3408 21.5895 20.2352 21.6068 20.1165C21.6241 19.9978 21.6328 19.8632 21.6328 19.7127C21.6328 19.4348 21.5923 19.0802 21.5114 18.6489C21.4305 18.2176 21.2729 17.7371 21.0388 17.2074C20.8047 16.6777 20.4564 16.1234 19.9939 15.5445C20.1442 15.1161 20.2381 14.6848 20.2757 14.2506C20.3133 13.8164 20.3321 13.4604 20.3321 13.1825C20.3321 12.5514 20.2309 11.8235 20.0286 10.9985C19.8262 10.1735 19.4924 9.31384 19.027 8.4194C18.5616 7.52497 17.9358 6.64646 17.1496 5.78387C16.3634 4.92128 15.3806 4.13395 14.2013 3.42188C14.5308 3.88501 14.8719 4.4292 15.2245 5.05443C15.5772 5.67966 15.8778 6.38884 16.1264 7.18196C16.375 7.97508 16.4993 8.86083 16.4993 9.83921C16.4993 10.366 16.4414 10.8928 16.3258 11.4197C16.2102 11.9465 16.0917 12.3546 15.9703 12.6441C15.4558 12.3488 14.8661 11.9638 14.2013 11.4891C13.5365 11.0144 12.8427 10.4905 12.1201 9.91736C11.3975 9.34423 10.685 8.75807 9.98257 8.15889C9.28018 7.55971 8.6327 6.98658 8.04014 6.4395C7.44759 5.89242 6.95476 5.41047 6.56164 4.99364C7.34787 6.20359 8.20346 7.36866 9.12843 8.48887C10.0534 9.60908 11.0304 10.7423 12.0594 11.8886C10.672 11.0086 9.33076 10.078 8.03581 9.09674C6.74086 8.11547 5.49215 7.08354 4.2897 6.00096C5.4459 7.68562 6.76687 9.34857 8.2526 10.9898C9.73833 12.631 11.4437 14.2303 13.3688 15.7876C13.0046 15.9902 12.6245 16.174 12.2285 16.339C11.8325 16.504 11.3888 16.6357 10.8974 16.7341C10.406 16.8326 9.83949 16.8818 9.1978 16.8818C8.60813 16.8818 7.99679 16.8166 7.36376 16.6864C6.73074 16.5561 6.10928 16.3781 5.49938 16.1523C4.88948 15.9266 4.31716 15.6689 3.78241 15.3795C3.24766 15.09 2.78374 14.7861 2.39062 14.4677Z" fill="white"/>
</g>
<defs>
<linearGradient id="paint0_linear_2_119" x1="0" y1="0" x2="0" y2="24" gradientUnits="userSpaceOnUse">
<stop stop-color="#FF9900"/>
<stop offset="1" stop-color="#F05137"/>
</linearGradient>
</defs>
</svg>
