<svg width="540" height="225" viewBox="0 0 540 225" fill="none" xmlns="http://www.w3.org/2000/svg">
<rect x="76" y="58.5" width="108" height="108" rx="16" fill="url(#paint0_linear_408_368)"/>
<path d="M98.6875 123.938C98.125 124.104 97.5938 124.052 97.0938 123.781C96.5938 123.51 96.25 123.073 96.0625 122.469C95.4375 120.26 95.0312 118.146 94.8438 116.125C94.6771 114.104 94.6458 112.198 94.75 110.406C94.8125 109.781 95.0521 109.292 95.4688 108.938C95.8854 108.562 96.4271 108.406 97.0938 108.469C97.6146 108.51 98.0417 108.729 98.375 109.125C98.7083 109.5 98.875 110 98.875 110.625C98.8125 112.792 98.875 114.708 99.0625 116.375C99.2708 118.042 99.5833 119.688 100 121.312C100.125 121.917 100.062 122.469 99.8125 122.969C99.5833 123.448 99.2083 123.771 98.6875 123.938ZM97.2188 104.75C96.6771 104.562 96.2812 104.167 96.0312 103.562C95.7812 102.938 95.8125 102.219 96.125 101.406C97.5833 97.5938 99.4375 94.25 101.688 91.375C103.958 88.4792 106.542 86.0521 109.438 84.0938C112.354 82.1354 115.51 80.6667 118.906 79.6875C122.302 78.6875 125.854 78.1875 129.562 78.1875C132.562 78.1875 135.312 78.4896 137.812 79.0938C140.333 79.6771 142.812 80.7083 145.25 82.1875C145.771 82.5208 146.135 82.9167 146.344 83.375C146.573 83.8125 146.552 84.3125 146.281 84.875C146.01 85.4792 145.573 85.8021 144.969 85.8438C144.385 85.8854 143.76 85.7292 143.094 85.375C141.219 84.375 139.177 83.6146 136.969 83.0938C134.781 82.5521 132.312 82.2812 129.562 82.2812C125.354 82.2812 121.312 83.0938 117.438 84.7188C113.583 86.3229 110.146 88.6875 107.125 91.8125C104.125 94.9375 101.781 98.7812 100.094 103.344C99.8646 103.99 99.4688 104.438 98.9062 104.688C98.3646 104.938 97.8021 104.958 97.2188 104.75ZM163.406 116.594C162.844 116.594 162.375 116.396 162 116C161.646 115.604 161.427 115.094 161.344 114.469C160.844 108.906 159.573 104.167 157.531 100.25C155.51 96.3333 152.906 92.8542 149.719 89.8125C149.219 89.3333 148.948 88.8229 148.906 88.2812C148.885 87.7396 149.052 87.2708 149.406 86.875C149.74 86.4792 150.188 86.25 150.75 86.1875C151.333 86.125 151.875 86.3125 152.375 86.75C154.812 88.9583 156.917 91.375 158.688 94C160.458 96.6042 161.885 99.5625 162.969 102.875C164.073 106.188 164.854 110.021 165.312 114.375C165.354 115 165.188 115.531 164.812 115.969C164.458 116.385 163.99 116.594 163.406 116.594ZM102.094 133.062C101.802 132.625 101.688 132.146 101.75 131.625C101.833 131.083 102.094 130.604 102.531 130.188C103.219 129.562 103.75 128.781 104.125 127.844C104.521 126.906 104.719 125.906 104.719 124.844C104.698 123.76 104.521 122.625 104.188 121.438C103.854 120.25 103.521 118.958 103.188 117.562C102.854 116.167 102.688 114.604 102.688 112.875C102.688 109.229 103.385 105.792 104.781 102.562C106.177 99.3333 108.104 96.4896 110.562 94.0312C113.021 91.5729 115.865 89.6458 119.094 88.25C122.323 86.8542 125.771 86.1562 129.438 86.1562C133.75 86.1562 137.656 86.9792 141.156 88.625C144.656 90.25 147.656 92.5833 150.156 95.625C152.677 98.6667 154.615 102.281 155.969 106.469C157.323 110.656 158 115.312 158 120.438C158 124.333 157.708 127.667 157.125 130.438C156.542 133.208 155.948 135.406 155.344 137.031C155.135 137.615 154.729 138 154.125 138.188C153.542 138.396 153 138.385 152.5 138.156C152.021 137.906 151.688 137.51 151.5 136.969C151.312 136.448 151.333 135.906 151.562 135.344C152.146 133.969 152.677 132.042 153.156 129.562C153.656 127.083 153.906 124.052 153.906 120.469C153.885 114.448 152.865 109.167 150.844 104.625C148.823 100.083 145.979 96.5521 142.312 94.0312C138.667 91.5104 134.375 90.25 129.438 90.25C126.333 90.25 123.417 90.8438 120.688 92.0312C117.958 93.1979 115.552 94.8229 113.469 96.9062C111.385 98.9896 109.75 101.396 108.562 104.125C107.375 106.854 106.781 109.771 106.781 112.875C106.781 114.646 106.938 116.156 107.25 117.406C107.583 118.635 107.906 119.823 108.219 120.969C108.531 122.094 108.688 123.396 108.688 124.875C108.688 126.562 108.385 128.167 107.781 129.688C107.198 131.188 106.333 132.427 105.188 133.406C104.688 133.823 104.135 134 103.531 133.938C102.927 133.854 102.448 133.562 102.094 133.062ZM109.938 139.062C109.312 139.375 108.729 139.438 108.188 139.25C107.646 139.083 107.26 138.75 107.031 138.25C106.823 137.812 106.792 137.333 106.938 136.812C107.104 136.312 107.49 135.854 108.094 135.438C109.219 134.646 110.146 133.75 110.875 132.75C111.625 131.75 112.208 130.594 112.625 129.281C112.812 128.698 113.146 128.271 113.625 128C114.125 127.729 114.635 127.688 115.156 127.875C115.698 128.062 116.083 128.417 116.312 128.938C116.562 129.458 116.604 129.979 116.438 130.5C116.125 131.562 115.615 132.677 114.906 133.844C114.198 135.01 113.396 136.062 112.5 137C111.604 137.938 110.75 138.625 109.938 139.062ZM116.75 121.188C116.938 121.771 116.927 122.333 116.719 122.875C116.531 123.396 116.177 123.76 115.656 123.969C115.01 124.24 114.417 124.26 113.875 124.031C113.354 123.781 112.969 123.354 112.719 122.75C112.219 121.458 111.75 119.99 111.312 118.344C110.875 116.698 110.656 114.917 110.656 113C110.656 110.375 111.146 107.927 112.125 105.656C113.104 103.365 114.448 101.354 116.156 99.625C117.885 97.8958 119.896 96.5417 122.188 95.5625C124.479 94.5833 126.938 94.0938 129.562 94.0938C131.167 94.0938 132.698 94.2917 134.156 94.6875C135.615 95.0625 136.875 95.5625 137.938 96.1875C138.542 96.5208 138.917 96.9688 139.062 97.5312C139.229 98.0938 139.177 98.625 138.906 99.125C138.698 99.5625 138.354 99.8542 137.875 100C137.417 100.125 136.906 100.062 136.344 99.8125C135.448 99.3958 134.688 99.0729 134.062 98.8438C133.458 98.5938 132.812 98.4271 132.125 98.3438C131.458 98.2604 130.604 98.2188 129.562 98.2188C126.812 98.2188 124.323 98.8854 122.094 100.219C119.865 101.531 118.083 103.302 116.75 105.531C115.438 107.76 114.781 110.25 114.781 113C114.781 114.75 115.01 116.292 115.469 117.625C115.927 118.938 116.354 120.125 116.75 121.188ZM141.594 104.281C141.198 103.677 141.052 103.073 141.156 102.469C141.281 101.865 141.615 101.417 142.156 101.125C142.656 100.854 143.188 100.802 143.75 100.969C144.333 101.135 144.802 101.51 145.156 102.094C146.073 103.635 146.896 105.312 147.625 107.125C148.375 108.938 148.958 111.052 149.375 113.469C149.812 115.865 150.031 118.708 150.031 122C150.031 126.396 149.438 130.594 148.25 134.594C147.083 138.573 145.51 141.885 143.531 144.531C143.177 145.031 142.688 145.302 142.062 145.344C141.438 145.385 140.906 145.198 140.469 144.781C140.073 144.406 139.875 143.938 139.875 143.375C139.875 142.833 140.042 142.333 140.375 141.875C142.104 139.75 143.469 136.927 144.469 133.406C145.49 129.865 146 126.104 146 122.125C146 118.396 145.625 115.042 144.875 112.062C144.125 109.083 143.031 106.49 141.594 104.281ZM116.656 143.25C116.177 143.646 115.635 143.812 115.031 143.75C114.448 143.708 113.969 143.427 113.594 142.906C113.281 142.427 113.167 141.927 113.25 141.406C113.354 140.885 113.635 140.427 114.094 140.031C116.24 138.281 117.875 136.083 119 133.438C120.146 130.771 120.708 127.875 120.688 124.75C120.667 123.292 120.49 121.844 120.156 120.406C119.844 118.948 119.531 117.542 119.219 116.188C118.906 114.812 118.75 113.51 118.75 112.281C118.75 110.26 119.219 108.49 120.156 106.969C121.094 105.448 122.375 104.26 124 103.406C125.625 102.552 127.458 102.125 129.5 102.125C132.417 102.125 134.76 102.948 136.531 104.594C138.323 106.24 139.625 108.521 140.438 111.438C141.271 114.354 141.688 117.719 141.688 121.531C141.708 125.115 141.312 128.573 140.5 131.906C139.688 135.219 138.583 138.188 137.188 140.812C135.792 143.458 134.24 145.562 132.531 147.125C132.052 147.562 131.51 147.74 130.906 147.656C130.302 147.594 129.823 147.312 129.469 146.812C129.177 146.375 129.073 145.896 129.156 145.375C129.26 144.854 129.521 144.417 129.938 144.062C131.542 142.667 132.958 140.844 134.188 138.594C135.417 136.344 136.354 133.792 137 130.938C137.667 128.062 137.948 125.021 137.844 121.812C137.781 118.812 137.458 116.135 136.875 113.781C136.312 111.406 135.427 109.552 134.219 108.219C133.031 106.865 131.458 106.188 129.5 106.188C127.479 106.188 125.844 106.781 124.594 107.969C123.365 109.135 122.75 110.688 122.75 112.625C122.75 113.625 122.917 114.698 123.25 115.844C123.583 116.99 123.917 118.292 124.25 119.75C124.604 121.188 124.792 122.854 124.812 124.75C124.833 128.479 124.135 131.969 122.719 135.219C121.302 138.448 119.281 141.125 116.656 143.25ZM124.125 145.781C123.625 146.156 123.073 146.302 122.469 146.219C121.865 146.135 121.417 145.854 121.125 145.375C120.812 144.917 120.708 144.417 120.812 143.875C120.917 143.333 121.198 142.875 121.656 142.5C122.719 141.646 123.698 140.594 124.594 139.344C125.51 138.094 126.333 136.542 127.062 134.688C127.271 134.167 127.615 133.781 128.094 133.531C128.573 133.26 129.125 133.24 129.75 133.469C130.292 133.635 130.646 134 130.812 134.562C131 135.104 131 135.615 130.812 136.094C130.188 138.073 129.229 139.948 127.938 141.719C126.667 143.51 125.396 144.865 124.125 145.781ZM132.844 128.062C132.74 128.708 132.448 129.198 131.969 129.531C131.49 129.865 130.958 129.969 130.375 129.844C129.75 129.76 129.302 129.49 129.031 129.031C128.781 128.552 128.708 128.042 128.812 127.5C129.062 126.146 129.188 124.771 129.188 123.375C129.208 121.958 129.104 120.51 128.875 119.031C128.667 117.552 128.323 116.052 127.844 114.531C127.656 113.927 127.698 113.385 127.969 112.906C128.24 112.427 128.646 112.104 129.188 111.938C129.729 111.771 130.24 111.823 130.719 112.094C131.219 112.365 131.583 112.823 131.812 113.469C132.312 115.073 132.688 116.719 132.938 118.406C133.188 120.094 133.302 121.76 133.281 123.406C133.26 125.031 133.115 126.583 132.844 128.062Z" fill="white"/>
<rect x="216" y="58.5" width="108" height="108" rx="16" fill="url(#paint1_linear_408_368)"/>
<path d="M242.219 103.312C239.906 103.312 238.75 102.135 238.75 99.7812V92.25C238.75 88.8333 239.646 86.2292 241.438 84.4375C243.25 82.6458 245.885 81.75 249.344 81.75H256.875C259.229 81.75 260.406 82.9062 260.406 85.2188C260.406 87.5521 259.229 88.7188 256.875 88.7188H249.906C248.531 88.7188 247.479 89.0729 246.75 89.7812C246.042 90.4688 245.688 91.5312 245.688 92.9688V99.7812C245.688 102.135 244.531 103.312 242.219 103.312ZM297.719 103.312C295.406 103.312 294.25 102.135 294.25 99.7812V92.9688C294.25 91.5312 293.885 90.4688 293.156 89.7812C292.427 89.0729 291.385 88.7188 290.031 88.7188H283.062C280.729 88.7188 279.562 87.5521 279.562 85.2188C279.562 82.9062 280.729 81.75 283.062 81.75H290.625C294.083 81.75 296.708 82.6458 298.5 84.4375C300.312 86.2292 301.219 88.8333 301.219 92.25V99.7812C301.219 102.135 300.052 103.312 297.719 103.312ZM249.344 144.219C245.885 144.219 243.25 143.323 241.438 141.531C239.646 139.74 238.75 137.135 238.75 133.719V126.156C238.75 123.823 239.906 122.656 242.219 122.656C244.531 122.656 245.688 123.823 245.688 126.156V133C245.688 134.438 246.042 135.5 246.75 136.188C247.479 136.896 248.531 137.25 249.906 137.25H256.875C259.229 137.25 260.406 138.417 260.406 140.75C260.406 143.062 259.229 144.219 256.875 144.219H249.344ZM283.062 144.219C280.729 144.219 279.562 143.062 279.562 140.75C279.562 138.417 280.729 137.25 283.062 137.25H290.031C291.385 137.25 292.427 136.896 293.156 136.188C293.885 135.5 294.25 134.438 294.25 133V126.156C294.25 123.823 295.406 122.656 297.719 122.656C300.052 122.656 301.219 123.823 301.219 126.156V133.719C301.219 137.135 300.312 139.74 298.5 141.531C296.708 143.323 294.083 144.219 290.625 144.219H283.062ZM258.375 110.906C257.583 110.906 256.927 110.656 256.406 110.156C255.906 109.635 255.656 108.969 255.656 108.156V103.938C255.656 103.146 255.906 102.5 256.406 102C256.927 101.479 257.583 101.219 258.375 101.219C259.167 101.219 259.812 101.479 260.312 102C260.833 102.5 261.094 103.146 261.094 103.938V108.156C261.094 108.969 260.833 109.635 260.312 110.156C259.812 110.656 259.167 110.906 258.375 110.906ZM267.5 118.219C266.667 118.219 266.01 118.01 265.531 117.594C265.052 117.177 264.812 116.604 264.812 115.875C264.812 115.25 265.021 114.729 265.438 114.312C265.875 113.875 266.406 113.656 267.031 113.656H267.938C268.062 113.656 268.156 113.625 268.219 113.562C268.302 113.5 268.344 113.396 268.344 113.25V103.406C268.344 102.74 268.552 102.208 268.969 101.812C269.385 101.396 269.927 101.188 270.594 101.188C271.281 101.188 271.823 101.396 272.219 101.812C272.635 102.208 272.844 102.74 272.844 103.406V113.156C272.844 114.802 272.406 116.062 271.531 116.938C270.656 117.792 269.406 118.219 267.781 118.219C267.74 118.219 267.688 118.219 267.625 118.219C267.583 118.219 267.542 118.219 267.5 118.219ZM281.531 110.906C280.719 110.906 280.052 110.656 279.531 110.156C279.031 109.635 278.781 108.969 278.781 108.156V103.938C278.781 103.146 279.031 102.5 279.531 102C280.052 101.479 280.719 101.219 281.531 101.219C282.302 101.219 282.938 101.479 283.438 102C283.958 102.5 284.219 103.146 284.219 103.938V108.156C284.219 108.969 283.958 109.635 283.438 110.156C282.938 110.656 282.302 110.906 281.531 110.906ZM269.812 128.375C267.854 128.375 265.938 128 264.062 127.25C262.208 126.479 260.667 125.385 259.438 123.969C259.208 123.698 259.042 123.438 258.938 123.188C258.833 122.917 258.781 122.635 258.781 122.344C258.781 121.698 259 121.167 259.438 120.75C259.875 120.312 260.417 120.094 261.062 120.094C261.458 120.094 261.781 120.177 262.031 120.344C262.302 120.51 262.583 120.729 262.875 121C263.75 121.896 264.802 122.604 266.031 123.125C267.281 123.646 268.542 123.906 269.812 123.906C271.167 123.906 272.458 123.646 273.688 123.125C274.938 122.583 275.979 121.885 276.812 121.031C277.375 120.406 277.958 120.094 278.562 120.094C279.188 120.094 279.719 120.312 280.156 120.75C280.594 121.167 280.812 121.698 280.812 122.344C280.812 122.698 280.76 123.01 280.656 123.281C280.573 123.552 280.427 123.792 280.219 124C278.823 125.375 277.208 126.448 275.375 127.219C273.562 127.99 271.708 128.375 269.812 128.375Z" fill="white"/>
<rect x="356" y="58.5" width="108" height="108" rx="16" fill="url(#paint2_linear_408_368)"/>
<path d="M400.062 123.656V112.938C400.062 111.104 400.823 110.094 402.344 109.906V106.875C402.344 104.312 403.052 102.24 404.469 100.656C405.885 99.0729 407.74 98.2812 410.031 98.2812C412.302 98.2812 414.146 99.0729 415.562 100.656C416.979 102.24 417.688 104.312 417.688 106.875V109.906C419.208 110.094 419.969 111.104 419.969 112.938V123.656C419.969 125.76 418.979 126.812 417 126.812H403C401.042 126.812 400.062 125.76 400.062 123.656ZM405.875 109.844H414.156V106.594C414.156 105.135 413.781 103.958 413.031 103.062C412.281 102.167 411.281 101.719 410.031 101.719C408.76 101.719 407.75 102.167 407 103.062C406.25 103.958 405.875 105.135 405.875 106.594V109.844ZM432.531 138H389.25C386.479 138 383.906 137.531 381.531 136.594C379.156 135.656 377.073 134.375 375.281 132.75C373.51 131.104 372.125 129.208 371.125 127.062C370.146 124.896 369.656 122.604 369.656 120.188C369.656 117.542 370.125 115.104 371.062 112.875C372 110.646 373.333 108.792 375.062 107.312C376.812 105.812 378.896 104.833 381.312 104.375C381.417 102.167 381.958 100.177 382.938 98.4062C383.917 96.6146 385.198 95.125 386.781 93.9375C388.385 92.75 390.167 91.9479 392.125 91.5312C394.083 91.0938 396.062 91.125 398.062 91.625C399.417 89.6875 401.01 87.9792 402.844 86.5C404.698 85 406.781 83.8229 409.094 82.9688C411.427 82.1146 413.958 81.6875 416.688 81.6875C420.021 81.6875 423.115 82.2917 425.969 83.5C428.844 84.7083 431.344 86.4167 433.469 88.625C435.615 90.8125 437.281 93.4062 438.469 96.4062C439.656 99.3854 440.26 102.656 440.281 106.219C442.365 107.094 444.156 108.312 445.656 109.875C447.156 111.417 448.302 113.188 449.094 115.188C449.906 117.188 450.312 119.312 450.312 121.562C450.312 123.854 449.854 125.99 448.938 127.969C448.042 129.948 446.781 131.688 445.156 133.188C443.531 134.688 441.635 135.865 439.469 136.719C437.323 137.573 435.01 138 432.531 138ZM432.531 131.062C434.552 131.062 436.365 130.635 437.969 129.781C439.594 128.927 440.875 127.781 441.812 126.344C442.771 124.906 443.25 123.312 443.25 121.562C443.25 118.833 442.406 116.552 440.719 114.719C439.052 112.885 436.802 111.719 433.969 111.219C433.552 111.156 433.365 110.896 433.406 110.438C433.49 109.667 433.552 108.833 433.594 107.938C433.635 107.021 433.635 106.104 433.594 105.188C433.448 102.208 432.635 99.4688 431.156 96.9688C429.677 94.4479 427.688 92.4375 425.188 90.9375C422.688 89.4167 419.833 88.6562 416.625 88.6562C414.104 88.6562 411.896 89.0729 410 89.9062C408.125 90.7188 406.49 91.8438 405.094 93.2812C403.719 94.7188 402.51 96.3438 401.469 98.1562C401.281 98.4896 400.99 98.6042 400.594 98.5C398.865 97.9583 397.198 97.7708 395.594 97.9375C394.01 98.0833 392.594 98.5833 391.344 99.4375C390.094 100.292 389.115 101.5 388.406 103.062C387.719 104.604 387.417 106.521 387.5 108.812C387.521 109.292 387.302 109.531 386.844 109.531C384.781 109.531 382.99 109.99 381.469 110.906C379.948 111.802 378.771 113.052 377.938 114.656C377.125 116.26 376.719 118.104 376.719 120.188C376.719 122.146 377.26 123.948 378.344 125.594C379.448 127.24 380.948 128.562 382.844 129.562C384.74 130.562 386.875 131.062 389.25 131.062H432.531Z" fill="white"/>
<defs>
<linearGradient id="paint0_linear_408_368" x1="76" y1="58.5" x2="76" y2="166.5" gradientUnits="userSpaceOnUse">
<stop stop-color="#FF9900"/>
<stop offset="1" stop-color="#F05137"/>
</linearGradient>
<linearGradient id="paint1_linear_408_368" x1="216" y1="58.5" x2="216" y2="166.5" gradientUnits="userSpaceOnUse">
<stop stop-color="#FF9900"/>
<stop offset="1" stop-color="#F05137"/>
</linearGradient>
<linearGradient id="paint2_linear_408_368" x1="356" y1="58.5" x2="356" y2="166.5" gradientUnits="userSpaceOnUse">
<stop stop-color="#FF9900"/>
<stop offset="1" stop-color="#F05137"/>
</linearGradient>
</defs>
</svg>
