<svg width="540" height="258" viewBox="0 0 540 258" fill="none" xmlns="http://www.w3.org/2000/svg">
<rect x="125.853" y="25.853" width="288.294" height="206.294" rx="4.04901" fill="#F5F5F7"/>
<path d="M141.467 40.8641C140.939 40.8641 140.565 40.5174 140.565 40.0161C140.565 39.5147 140.939 39.1681 141.467 39.1681C142 39.1681 142.373 39.5147 142.373 40.0161C142.373 40.5174 142 40.8641 141.467 40.8641ZM143.947 48H138.976V47.008H140.901V43.152H139.04V42.1601H142.112V47.008H143.947V48ZM151.024 43.5627V48H149.957V43.9574C149.957 43.424 149.728 43.12 149.333 43.12C148.923 43.12 148.667 43.4667 148.667 44.016V48H147.605V43.9574C147.605 43.4187 147.381 43.12 146.981 43.12C146.565 43.12 146.299 43.4667 146.299 44.016V48H145.232V42.1601H146.32V43.0347H146.453C146.587 42.4 146.997 42.0427 147.557 42.0427C148.101 42.0427 148.475 42.3894 148.597 43.0027H148.731C148.864 42.4054 149.296 42.0427 149.867 42.0427C150.624 42.0427 151.024 42.5707 151.024 43.5627ZM155.419 42.0641C156.763 42.0641 157.594 43.008 157.594 44.56V45.6C157.594 47.1573 156.763 48.1013 155.419 48.1013C154.576 48.1013 153.979 47.7173 153.76 47.0453H153.653V49.9573H152.373V42.1601H153.632V43.12H153.739C153.984 42.4374 154.576 42.0641 155.419 42.0641ZM154.976 43.152C154.144 43.152 153.627 43.7227 153.627 44.64V45.5574C153.627 46.4747 154.144 47.0453 154.976 47.0453C155.813 47.0453 156.331 46.4693 156.331 45.5574V44.64C156.331 43.7227 155.813 43.152 154.976 43.152ZM161.632 48.1173C160.021 48.1173 159.002 47.1147 159.002 45.5254V44.6347C159.002 43.0454 160.021 42.0427 161.632 42.0427C163.242 42.0427 164.261 43.0454 164.261 44.6347V45.5254C164.261 47.1147 163.242 48.1173 161.632 48.1173ZM161.632 43.072C160.768 43.072 160.229 43.696 160.229 44.704V45.456C160.229 46.464 160.768 47.088 161.632 47.088C162.496 47.088 163.034 46.464 163.034 45.456V44.704C163.034 43.696 162.496 43.072 161.632 43.072ZM168.224 45.3974V47.072H169.962V48H165.893V47.072H167.029V43.088H165.781V42.1601H168.229V43.6534H168.41C168.65 42.528 169.301 42.0054 170.41 42.0054C170.741 42.0054 171.045 42.0481 171.248 42.1281V43.4774C170.986 43.376 170.602 43.312 170.282 43.312C168.933 43.312 168.224 44.048 168.224 45.3974ZM174.01 40.5281H175.226V42.1974H177.482V43.2H175.248V46.2027C175.248 46.72 175.616 47.008 176.277 47.008C176.49 47.008 177.333 47.0027 177.434 46.992V47.984C177.338 48 176.357 48.016 176.181 48.016C174.645 48.016 174.01 47.4933 174.01 46.1973V43.2H172.474V42.1974H174.01V40.5281ZM141.467 53.8641C140.939 53.8641 140.565 53.5174 140.565 53.0161C140.565 52.5147 140.939 52.1681 141.467 52.1681C142 52.1681 142.373 52.5147 142.373 53.0161C142.373 53.5174 142 53.8641 141.467 53.8641ZM143.947 61H138.976V60.008H140.901V56.152H139.04V55.1601H142.112V60.008H143.947V61ZM151.024 56.5627V61H149.957V56.9574C149.957 56.424 149.728 56.12 149.333 56.12C148.923 56.12 148.667 56.4667 148.667 57.016V61H147.605V56.9574C147.605 56.4187 147.381 56.12 146.981 56.12C146.565 56.12 146.299 56.4667 146.299 57.016V61H145.232V55.1601H146.32V56.0347H146.453C146.587 55.4 146.997 55.0427 147.557 55.0427C148.101 55.0427 148.475 55.3894 148.597 56.0027H148.731C148.864 55.4054 149.296 55.0427 149.867 55.0427C150.624 55.0427 151.024 55.5707 151.024 56.5627ZM155.419 55.0641C156.763 55.0641 157.594 56.008 157.594 57.56V58.6C157.594 60.1573 156.763 61.1013 155.419 61.1013C154.576 61.1013 153.979 60.7173 153.76 60.0453H153.653V62.9573H152.373V55.1601H153.632V56.12H153.739C153.984 55.4374 154.576 55.0641 155.419 55.0641ZM154.976 56.152C154.144 56.152 153.627 56.7227 153.627 57.64V58.5574C153.627 59.4747 154.144 60.0453 154.976 60.0453C155.813 60.0453 156.331 59.4693 156.331 58.5574V57.64C156.331 56.7227 155.813 56.152 154.976 56.152ZM161.632 61.1173C160.021 61.1173 159.002 60.1147 159.002 58.5254V57.6347C159.002 56.0454 160.021 55.0427 161.632 55.0427C163.242 55.0427 164.261 56.0454 164.261 57.6347V58.5254C164.261 60.1147 163.242 61.1173 161.632 61.1173ZM161.632 56.072C160.768 56.072 160.229 56.696 160.229 57.704V58.456C160.229 59.464 160.768 60.088 161.632 60.088C162.496 60.088 163.034 59.464 163.034 58.456V57.704C163.034 56.696 162.496 56.072 161.632 56.072ZM168.224 58.3974V60.072H169.962V61H165.893V60.072H167.029V56.088H165.781V55.1601H168.229V56.6534H168.41C168.65 55.528 169.301 55.0054 170.41 55.0054C170.741 55.0054 171.045 55.0481 171.248 55.1281V56.4774C170.986 56.376 170.602 56.312 170.282 56.312C168.933 56.312 168.224 57.048 168.224 58.3974ZM174.01 53.5281H175.226V55.1974H177.482V56.2H175.248V59.2027C175.248 59.72 175.616 60.008 176.277 60.008C176.49 60.008 177.333 60.0027 177.434 59.992V60.984C177.338 61 176.357 61.016 176.181 61.016C174.645 61.016 174.01 60.4933 174.01 59.1973V56.2H172.474V55.1974H174.01V53.5281ZM141.595 88.0773C139.557 88.0773 138.549 86.744 138.549 84.0294V83.2134C138.549 80.4774 139.525 79.1174 141.461 79.1174C143.301 79.1174 144.277 80.2961 144.277 82.552V84.072C144.277 84.952 143.835 85.4533 143.056 85.4533H141.616C141.2 85.4533 140.939 85.1813 140.939 84.7547V82.488C140.939 82.0614 141.168 81.7894 141.525 81.7894C141.883 81.7894 142.117 82.0614 142.117 82.488V84.7707H142.901C143.355 84.7707 143.525 84.5947 143.525 84.1254V82.712C143.525 80.7707 142.859 79.8694 141.451 79.8694C139.963 79.8694 139.328 80.8614 139.328 83.224V83.912C139.328 86.312 140.032 87.336 141.669 87.336C142.149 87.336 142.635 87.2667 142.853 87.1653V87.88C142.597 87.9973 142.075 88.0773 141.595 88.0773ZM151.024 82.5627V87H149.957V82.9574C149.957 82.424 149.728 82.12 149.333 82.12C148.923 82.12 148.667 82.4667 148.667 83.016V87H147.605V82.9574C147.605 82.4187 147.381 82.12 146.981 82.12C146.565 82.12 146.299 82.4667 146.299 83.016V87H145.232V81.1601H146.32V82.0347H146.453C146.587 81.4 146.997 81.0427 147.557 81.0427C148.101 81.0427 148.475 81.3894 148.597 82.0027H148.731C148.864 81.4054 149.296 81.0427 149.867 81.0427C150.624 81.0427 151.024 81.5707 151.024 82.5627ZM154.171 87.096C153.061 87.096 152.32 86.392 152.32 85.336C152.32 84.2907 153.077 83.672 154.475 83.5867L155.936 83.5014V83.0107C155.936 82.408 155.547 82.0667 154.864 82.0667C154.293 82.0667 153.877 82.312 153.749 82.7387H152.533C152.64 81.7307 153.584 81.0641 154.896 81.0641C156.341 81.0641 157.163 81.7734 157.163 83.0214V87H155.984V86.184H155.872C155.589 86.7653 154.965 87.096 154.171 87.096ZM154.571 86.0827C155.36 86.0827 155.936 85.576 155.936 84.872V84.3387L154.661 84.408C153.931 84.4507 153.552 84.744 153.552 85.2613C153.552 85.768 153.947 86.0827 154.571 86.0827ZM161.722 79.8641C161.194 79.8641 160.821 79.5174 160.821 79.0161C160.821 78.5147 161.194 78.1681 161.722 78.1681C162.256 78.1681 162.629 78.5147 162.629 79.0161C162.629 79.5174 162.256 79.8641 161.722 79.8641ZM164.202 87H159.232V86.008H161.157V82.152H159.296V81.1601H162.368V86.008H164.202V87ZM165.861 87V81.1601H167.061V82.1574H167.146C167.445 81.4427 168.09 81.0427 168.949 81.0427C170.218 81.0427 170.906 81.8 170.906 83.2134V87H169.664V83.5174C169.664 82.5787 169.28 82.1307 168.48 82.1307C167.648 82.1307 167.104 82.712 167.104 83.5974V87H165.861ZM139.104 95.8134C139.104 94.7254 140 94.0321 141.381 94.0321C142.72 94.0321 143.568 94.6507 143.648 95.7014H142.475C142.389 95.264 141.968 94.992 141.365 94.992C140.741 94.992 140.331 95.28 140.331 95.7174C140.331 96.0907 140.597 96.304 141.232 96.4427L142.101 96.6294C143.269 96.88 143.787 97.376 143.787 98.2507C143.787 99.3867 142.853 100.117 141.387 100.117C139.957 100.117 139.051 99.4827 138.965 98.4267H140.197C140.304 98.8853 140.747 99.1467 141.408 99.1467C142.085 99.1467 142.512 98.848 142.512 98.3947C142.512 98.0107 142.267 97.8134 141.6 97.6694L140.725 97.4774C139.648 97.2374 139.104 96.6827 139.104 95.8134ZM147.003 92.5281H148.219V94.1974H150.475V95.2H148.24V98.2027C148.24 98.72 148.608 99.008 149.269 99.008C149.483 99.008 150.325 99.0027 150.427 98.992V99.984C150.331 100 149.349 100.016 149.173 100.016C147.637 100.016 147.003 99.4933 147.003 98.1973V95.2H145.467V94.1974H147.003V92.5281ZM154.72 97.3974V99.072H156.459V100H152.389V99.072H153.525V95.088H152.277V94.1601H154.725V95.6534H154.907C155.147 94.528 155.797 94.0054 156.907 94.0054C157.237 94.0054 157.541 94.0481 157.744 94.1281V95.4774C157.482 95.376 157.099 95.312 156.779 95.312C155.429 95.312 154.72 96.048 154.72 97.3974ZM164.154 94.1601V100H162.954V99.0027H162.869C162.57 99.7173 161.925 100.117 161.066 100.117C159.797 100.117 159.109 99.36 159.109 97.9414V94.1601H160.352V97.6427C160.352 98.5813 160.736 99.024 161.536 99.024C162.368 99.024 162.912 98.448 162.912 97.5627V94.1601H164.154ZM170.944 96.1067H169.728C169.626 95.44 169.162 95.072 168.485 95.072C167.61 95.072 167.13 95.7014 167.13 96.848V97.296C167.13 98.4427 167.61 99.072 168.485 99.072C169.168 99.072 169.621 98.72 169.728 98.0747H170.944C170.81 99.3813 169.92 100.117 168.496 100.117C166.826 100.117 165.882 99.1467 165.882 97.408V96.736C165.882 95.0027 166.826 94.0267 168.496 94.0267C169.925 94.0267 170.805 94.768 170.944 96.1067ZM174.01 92.5281H175.226V94.1974H177.482V95.2H175.248V98.2027C175.248 98.72 175.616 99.008 176.277 99.008C176.49 99.008 177.333 99.0027 177.434 98.992V99.984C177.338 100 176.357 100.016 176.181 100.016C174.645 100.016 174.01 99.4933 174.01 98.1973V95.2H172.474V94.1974H174.01V92.5281ZM158.858 107.16H160.192L161.605 111.768H161.69L163.088 107.16H164.405L162.336 113H160.938L158.858 107.16ZM167.674 113.096C166.565 113.096 165.824 112.392 165.824 111.336C165.824 110.291 166.581 109.672 167.978 109.587L169.44 109.501V109.011C169.44 108.408 169.05 108.067 168.368 108.067C167.797 108.067 167.381 108.312 167.253 108.739H166.037C166.144 107.731 167.088 107.064 168.4 107.064C169.845 107.064 170.666 107.773 170.666 109.021V113H169.488V112.184H169.376C169.093 112.765 168.469 113.096 167.674 113.096ZM168.074 112.083C168.864 112.083 169.44 111.576 169.44 110.872V110.339L168.165 110.408C167.434 110.451 167.056 110.744 167.056 111.261C167.056 111.768 167.45 112.083 168.074 112.083ZM174.976 110.397V112.072H176.714V113H172.645V112.072H173.781V108.088H172.533V107.16H174.981V108.653H175.162C175.402 107.528 176.053 107.005 177.162 107.005C177.493 107.005 177.797 107.048 178 107.128V108.477C177.738 108.376 177.354 108.312 177.034 108.312C175.685 108.312 174.976 109.048 174.976 110.397ZM226.879 108.813C226.879 107.725 227.775 107.032 229.157 107.032C230.495 107.032 231.343 107.651 231.423 108.701H230.25C230.165 108.264 229.743 107.992 229.141 107.992C228.517 107.992 228.106 108.28 228.106 108.717C228.106 109.091 228.373 109.304 229.007 109.443L229.877 109.629C231.045 109.88 231.562 110.376 231.562 111.251C231.562 112.387 230.629 113.117 229.162 113.117C227.733 113.117 226.826 112.483 226.741 111.427H227.973C228.079 111.885 228.522 112.147 229.183 112.147C229.861 112.147 230.287 111.848 230.287 111.395C230.287 111.011 230.042 110.813 229.375 110.669L228.501 110.477C227.423 110.237 226.879 109.683 226.879 108.813ZM235.903 113.117C234.293 113.117 233.274 112.115 233.274 110.525V109.635C233.274 108.045 234.293 107.043 235.903 107.043C237.514 107.043 238.532 108.045 238.532 109.635V110.525C238.532 112.115 237.514 113.117 235.903 113.117ZM235.903 108.072C235.039 108.072 234.501 108.696 234.501 109.704V110.456C234.501 111.464 235.039 112.088 235.903 112.088C236.767 112.088 237.306 111.464 237.306 110.456V109.704C237.306 108.696 236.767 108.072 235.903 108.072ZM245.551 108.563V113H244.484V108.957C244.484 108.424 244.255 108.12 243.86 108.12C243.45 108.12 243.194 108.467 243.194 109.016V113H242.132V108.957C242.132 108.419 241.908 108.12 241.508 108.12C241.092 108.12 240.826 108.467 240.826 109.016V113H239.759V107.16H240.847V108.035H240.98C241.114 107.4 241.524 107.043 242.084 107.043C242.628 107.043 243.002 107.389 243.124 108.003H243.258C243.391 107.405 243.823 107.043 244.394 107.043C245.151 107.043 245.551 107.571 245.551 108.563ZM250.794 111.416H251.972C251.834 112.419 250.842 113.117 249.535 113.117C247.871 113.117 246.911 112.163 246.911 110.499V109.587C246.911 108.056 247.94 107.043 249.492 107.043C251.028 107.043 251.983 108.051 251.983 109.672V110.381H248.132V110.664C248.132 111.555 248.682 112.131 249.53 112.131C250.175 112.131 250.671 111.848 250.794 111.416ZM249.471 108.024C248.634 108.024 248.132 108.595 248.132 109.549H250.778C250.778 108.6 250.287 108.024 249.471 108.024ZM294.399 173.813C294.399 172.725 295.295 172.032 296.676 172.032C298.015 172.032 298.863 172.651 298.943 173.701H297.769C297.684 173.264 297.263 172.992 296.66 172.992C296.036 172.992 295.625 173.28 295.625 173.717C295.625 174.091 295.892 174.304 296.527 174.443L297.396 174.629C298.564 174.88 299.081 175.376 299.081 176.251C299.081 177.387 298.148 178.117 296.681 178.117C295.252 178.117 294.345 177.483 294.26 176.427H295.492C295.599 176.885 296.041 177.147 296.703 177.147C297.38 177.147 297.807 176.848 297.807 176.395C297.807 176.011 297.561 175.813 296.895 175.669L296.02 175.477C294.943 175.237 294.399 174.683 294.399 173.813ZM304.809 176.416H305.988C305.849 177.419 304.857 178.117 303.551 178.117C301.887 178.117 300.927 177.163 300.927 175.499V174.587C300.927 173.056 301.956 172.043 303.508 172.043C305.044 172.043 305.999 173.051 305.999 174.672V175.381H302.148V175.664C302.148 176.555 302.697 177.131 303.545 177.131C304.191 177.131 304.687 176.848 304.809 176.416ZM303.487 173.024C302.649 173.024 302.148 173.595 302.148 174.549H304.793C304.793 173.6 304.303 173.024 303.487 173.024ZM312.745 178H307.775V177.008H309.689V170.896H307.839V169.904H310.927V177.008H312.745V178ZM315.982 178V173.2H314.42V172.197H315.982V171.712C315.982 170.469 316.633 169.957 318.158 169.957C318.377 169.957 319.518 169.979 319.641 169.995V170.928C319.476 170.912 318.398 170.896 318.185 170.896C317.534 170.896 317.198 171.152 317.198 171.648V172.197H319.641V173.2H317.22V178H315.982ZM368.67 173.813C368.67 172.725 369.566 172.032 370.947 172.032C372.286 172.032 373.134 172.651 373.214 173.701H372.041C371.955 173.264 371.534 172.992 370.931 172.992C370.307 172.992 369.897 173.28 369.897 173.717C369.897 174.091 370.163 174.304 370.798 174.443L371.667 174.629C372.835 174.88 373.353 175.376 373.353 176.251C373.353 177.387 372.419 178.117 370.953 178.117C369.523 178.117 368.617 177.483 368.531 176.427H369.763C369.87 176.885 370.313 177.147 370.974 177.147C371.651 177.147 372.078 176.848 372.078 176.395C372.078 176.011 371.833 175.813 371.166 175.669L370.291 175.477C369.214 175.237 368.67 174.683 368.67 173.813ZM379.081 176.416H380.259C380.121 177.419 379.129 178.117 377.822 178.117C376.158 178.117 375.198 177.163 375.198 175.499V174.587C375.198 173.056 376.227 172.043 377.779 172.043C379.315 172.043 380.27 173.051 380.27 174.672V175.381H376.419V175.664C376.419 176.555 376.969 177.131 377.817 177.131C378.462 177.131 378.958 176.848 379.081 176.416ZM377.758 173.024C376.921 173.024 376.419 173.595 376.419 174.549H379.065C379.065 173.6 378.574 173.024 377.758 173.024ZM387.017 178H382.046V177.008H383.961V170.896H382.11V169.904H385.198V177.008H387.017V178ZM390.254 178V173.2H388.691V172.197H390.254V171.712C390.254 170.469 390.904 169.957 392.43 169.957C392.648 169.957 393.79 169.979 393.912 169.995V170.928C393.747 170.912 392.67 170.896 392.456 170.896C391.806 170.896 391.47 171.152 391.47 171.648V172.197H393.912V173.2H391.491V178H390.254Z" fill="#FD6FA7"/>
<path d="M185.861 45.888H187.093C187.168 46.6293 187.765 47.0667 188.704 47.0667C189.61 47.0667 190.192 46.6133 190.192 45.904C190.192 45.3227 189.808 44.992 188.858 44.768L188.117 44.592C186.709 44.256 186.037 43.5467 186.037 42.416C186.037 41.0347 187.072 40.1494 188.688 40.1494C190.234 40.1494 191.285 41.0241 191.333 42.3574H190.106C190.037 41.6534 189.509 41.2374 188.698 41.2374C187.845 41.2374 187.328 41.6374 187.328 42.304C187.328 42.896 187.701 43.232 188.602 43.44L189.344 43.616C190.832 43.9627 191.472 44.624 191.472 45.792C191.472 47.2533 190.405 48.1547 188.682 48.1547C186.997 48.1547 185.925 47.296 185.861 45.888ZM198.602 42.1601L197.397 48H196.288L195.424 43.8187H195.365L194.496 48H193.386L192.181 42.1601H193.37L193.952 46.5067H194.106L194.858 42.1707H195.925L196.677 46.5067H196.831L197.407 42.1601H198.602ZM202.234 40.8641C201.706 40.8641 201.333 40.5174 201.333 40.0161C201.333 39.5147 201.706 39.1681 202.234 39.1681C202.767 39.1681 203.141 39.5147 203.141 40.0161C203.141 40.5174 202.767 40.8641 202.234 40.8641ZM204.714 48H199.743V47.008H201.669V43.152H199.807V42.1601H202.879V47.008H204.714V48ZM207.951 48V43.2H206.389V42.1974H207.951V41.7121C207.951 40.4694 208.602 39.9574 210.127 39.9574C210.346 39.9574 211.487 39.9787 211.61 39.9947V40.9281C211.445 40.9121 210.367 40.8961 210.154 40.8961C209.503 40.8961 209.167 41.1521 209.167 41.6481V42.1974H211.61V43.2H209.189V48H207.951ZM214.522 40.5281H215.738V42.1974H217.994V43.2H215.759V46.2027C215.759 46.72 216.127 47.008 216.789 47.008C217.002 47.008 217.845 47.0027 217.946 46.992V47.984C217.85 48 216.869 48.016 216.693 48.016C215.157 48.016 214.522 47.4933 214.522 46.1973V43.2H212.986V42.1974H214.522V40.5281ZM222.399 46.992C223.365 46.992 223.914 46.352 223.914 45.2214V40.3041H225.199V45.296C225.199 47.0933 224.159 48.1547 222.399 48.1547C220.639 48.1547 219.599 47.0933 219.599 45.296V40.3041H220.885V45.2214C220.885 46.352 221.434 46.992 222.399 46.992ZM231.375 48H226.927V46.8907H228.506V41.4134H226.927V40.3041H231.375V41.4134H229.797V46.8907H231.375V48ZM185.861 58.888H187.093C187.168 59.6293 187.765 60.0667 188.704 60.0667C189.61 60.0667 190.192 59.6133 190.192 58.904C190.192 58.3227 189.808 57.992 188.858 57.768L188.117 57.592C186.709 57.256 186.037 56.5467 186.037 55.416C186.037 54.0347 187.072 53.1494 188.688 53.1494C190.234 53.1494 191.285 54.0241 191.333 55.3574H190.106C190.037 54.6534 189.509 54.2374 188.698 54.2374C187.845 54.2374 187.328 54.6374 187.328 55.304C187.328 55.896 187.701 56.232 188.602 56.44L189.344 56.616C190.832 56.9627 191.472 57.624 191.472 58.792C191.472 60.2533 190.405 61.1547 188.682 61.1547C186.997 61.1547 185.925 60.296 185.861 58.888ZM198.602 55.1601L197.397 61H196.288L195.424 56.8187H195.365L194.496 61H193.386L192.181 55.1601H193.37L193.952 59.5067H194.106L194.858 55.1707H195.925L196.677 59.5067H196.831L197.407 55.1601H198.602ZM202.234 53.8641C201.706 53.8641 201.333 53.5174 201.333 53.0161C201.333 52.5147 201.706 52.1681 202.234 52.1681C202.767 52.1681 203.141 52.5147 203.141 53.0161C203.141 53.5174 202.767 53.8641 202.234 53.8641ZM204.714 61H199.743V60.008H201.669V56.152H199.807V55.1601H202.879V60.008H204.714V61ZM207.951 61V56.2H206.389V55.1974H207.951V54.7121C207.951 53.4694 208.602 52.9574 210.127 52.9574C210.346 52.9574 211.487 52.9787 211.61 52.9947V53.9281C211.445 53.9121 210.367 53.8961 210.154 53.8961C209.503 53.8961 209.167 54.1521 209.167 54.6481V55.1974H211.61V56.2H209.189V61H207.951ZM214.522 53.5281H215.738V55.1974H217.994V56.2H215.759V59.2027C215.759 59.72 216.127 60.008 216.789 60.008C217.002 60.008 217.845 60.0027 217.946 59.992V60.984C217.85 61 216.869 61.016 216.693 61.016C215.157 61.016 214.522 60.4933 214.522 59.1973V56.2H212.986V55.1974H214.522V53.5281ZM219.749 53.3041H222.095C224.261 53.3041 225.375 54.6001 225.375 57.112C225.375 59.688 224.271 61 222.095 61H219.749V53.3041ZM221.039 54.4294V59.8747H221.935C223.386 59.8747 224.058 59.016 224.058 57.1334C224.058 55.304 223.375 54.4294 221.935 54.4294H221.039ZM228.442 61.096C227.333 61.096 226.591 60.392 226.591 59.336C226.591 58.2907 227.349 57.672 228.746 57.5867L230.207 57.5014V57.0107C230.207 56.408 229.818 56.0667 229.135 56.0667C228.565 56.0667 228.149 56.312 228.021 56.7387H226.805C226.911 55.7307 227.855 55.0641 229.167 55.0641C230.613 55.0641 231.434 55.7734 231.434 57.0214V61H230.255V60.184H230.143C229.861 60.7653 229.237 61.096 228.442 61.096ZM228.842 60.0827C229.631 60.0827 230.207 59.576 230.207 58.872V58.3387L228.933 58.408C228.202 58.4507 227.823 58.744 227.823 59.2613C227.823 59.768 228.218 60.0827 228.842 60.0827ZM234.778 53.5281H235.994V55.1974H238.25V56.2H236.015V59.2027C236.015 59.72 236.383 60.008 237.044 60.008C237.258 60.008 238.1 60.0027 238.202 59.992V60.984C238.106 61 237.124 61.016 236.948 61.016C235.412 61.016 234.778 60.4933 234.778 59.1973V56.2H233.242V55.1974H234.778V53.5281ZM241.946 61.096C240.836 61.096 240.095 60.392 240.095 59.336C240.095 58.2907 240.852 57.672 242.25 57.5867L243.711 57.5014V57.0107C243.711 56.408 243.322 56.0667 242.639 56.0667C242.068 56.0667 241.652 56.312 241.524 56.7387H240.308C240.415 55.7307 241.359 55.0641 242.671 55.0641C244.116 55.0641 244.938 55.7734 244.938 57.0214V61H243.759V60.184H243.647C243.364 60.7653 242.74 61.096 241.946 61.096ZM242.346 60.0827C243.135 60.0827 243.711 59.576 243.711 58.872V58.3387L242.436 58.408C241.706 58.4507 241.327 58.744 241.327 59.2613C241.327 59.768 241.722 60.0827 242.346 60.0827ZM325.849 100.992H325.044C323.598 100.992 323.134 100.533 323.134 99.1147V97.9307C323.134 97.0987 322.713 96.7094 321.508 96.7894V95.52C322.713 95.6 323.134 95.2107 323.134 94.3734V93.1894C323.134 91.7707 323.598 91.3121 325.044 91.3121H325.849V92.3041H325.31C324.537 92.3041 324.382 92.4854 324.382 93.3814V94.848C324.382 95.5787 323.844 96.064 322.836 96.1067V96.2027C323.844 96.2454 324.382 96.7254 324.382 97.4614V98.9227C324.382 99.8187 324.537 100 325.31 100H325.849V100.992ZM215.647 109.011C215.05 109.011 214.559 108.509 214.559 107.896C214.559 107.283 215.05 106.787 215.647 106.787C216.245 106.787 216.735 107.283 216.735 107.896C216.735 108.509 216.245 109.011 215.647 109.011ZM215.647 113.075C215.05 113.075 214.559 112.568 214.559 111.96C214.559 111.347 215.05 110.851 215.647 110.851C216.245 110.851 216.735 111.347 216.735 111.96C216.735 112.568 216.245 113.075 215.647 113.075ZM305.593 113.992H304.788C303.343 113.992 302.879 113.533 302.879 112.115V110.931C302.879 110.099 302.457 109.709 301.252 109.789V108.52C302.457 108.6 302.879 108.211 302.879 107.373V106.189C302.879 104.771 303.343 104.312 304.788 104.312H305.593V105.304H305.055C304.281 105.304 304.127 105.485 304.127 106.381V107.848C304.127 108.579 303.588 109.064 302.58 109.107V109.203C303.588 109.245 304.127 109.725 304.127 110.461V111.923C304.127 112.819 304.281 113 305.055 113H305.593V113.992ZM265.082 126.992H264.276C262.831 126.992 262.367 126.533 262.367 125.115V123.931C262.367 123.099 261.946 122.709 260.74 122.789V121.52C261.946 121.6 262.367 121.211 262.367 120.373V119.189C262.367 117.771 262.831 117.312 264.276 117.312H265.082V118.304H264.543C263.77 118.304 263.615 118.485 263.615 119.381V120.848C263.615 121.579 263.076 122.064 262.068 122.107V122.203C263.076 122.245 263.615 122.725 263.615 123.461V124.923C263.615 125.819 263.77 126 264.543 126H265.082V126.992ZM275.039 135.155C275.039 133.24 275.62 131.576 276.719 130.344H277.988C276.852 132.013 276.388 133.4 276.388 135.155C276.388 136.904 276.852 138.285 277.988 139.955H276.719C275.62 138.723 275.039 137.059 275.039 135.155ZM284.543 135.155C284.543 137.059 283.961 138.723 282.863 139.955H281.593C282.729 138.285 283.193 136.904 283.193 135.155C283.193 133.4 282.729 132.013 281.593 130.344H282.863C283.961 131.576 284.543 133.24 284.543 135.155ZM179.717 152.992V152H180.256C181.029 152 181.184 151.819 181.184 150.923V149.461C181.184 148.725 181.722 148.245 182.73 148.203V148.107C181.722 148.064 181.184 147.579 181.184 146.848V145.381C181.184 144.485 181.029 144.304 180.256 144.304H179.717V143.312H180.522C181.968 143.312 182.432 143.771 182.432 145.189V146.373C182.432 147.211 182.853 147.6 184.058 147.52V148.789C182.853 148.709 182.432 149.099 182.432 149.931V151.115C182.432 152.533 181.968 152.992 180.522 152.992H179.717ZM181.888 165.075C181.29 165.075 180.8 164.568 180.8 163.96C180.8 163.352 181.29 162.851 181.888 162.851C182.485 162.851 182.976 163.352 182.976 163.96C182.976 164.568 182.485 165.075 181.888 165.075ZM281.791 161.155C281.791 159.24 282.372 157.576 283.471 156.344H284.74C283.604 158.013 283.14 159.4 283.14 161.155C283.14 162.904 283.604 164.285 284.74 165.955H283.471C282.372 164.723 281.791 163.059 281.791 161.155ZM222.399 174.011C221.802 174.011 221.311 173.509 221.311 172.896C221.311 172.283 221.802 171.787 222.399 171.787C222.997 171.787 223.487 172.283 223.487 172.896C223.487 173.509 222.997 174.011 222.399 174.011ZM222.399 178.075C221.802 178.075 221.311 177.568 221.311 176.96C221.311 176.347 221.802 175.851 222.399 175.851C222.997 175.851 223.487 176.347 223.487 176.96C223.487 177.568 222.997 178.075 222.399 178.075ZM234.378 169.312H237.514V170.304H235.61V178H237.54V178.992H234.378V169.312ZM289.919 178.075C289.321 178.075 288.831 177.568 288.831 176.96C288.831 176.352 289.321 175.851 289.919 175.851C290.516 175.851 291.007 176.352 291.007 176.96C291.007 177.568 290.516 178.075 289.919 178.075ZM323.252 179.824H322.142L322.75 176.224H324.233L323.252 179.824ZM364.19 178.075C363.593 178.075 363.102 177.568 363.102 176.96C363.102 176.352 363.593 175.851 364.19 175.851C364.787 175.851 365.278 176.352 365.278 176.96C365.278 177.568 364.787 178.075 364.19 178.075ZM399.587 169.312V178.992H396.424V178H398.36V170.304H396.456V169.312H399.587ZM183.264 187.155C183.264 189.059 182.682 190.723 181.584 191.955H180.314C181.45 190.285 181.914 188.904 181.914 187.155C181.914 185.4 181.45 184.013 180.314 182.344H181.584C182.682 183.576 183.264 185.24 183.264 187.155ZM159.461 204.992V204H160C160.773 204 160.928 203.819 160.928 202.923V201.461C160.928 200.725 161.466 200.245 162.474 200.203V200.107C161.466 200.064 160.928 199.579 160.928 198.848V197.381C160.928 196.485 160.773 196.304 160 196.304H159.461V195.312H160.266C161.712 195.312 162.176 195.771 162.176 197.189V198.373C162.176 199.211 162.597 199.6 163.802 199.52V200.789C162.597 200.709 162.176 201.099 162.176 201.931V203.115C162.176 204.533 161.712 204.992 160.266 204.992H159.461ZM139.205 217.992V217H139.744C140.517 217 140.672 216.819 140.672 215.923V214.461C140.672 213.725 141.211 213.245 142.219 213.203V213.107C141.211 213.064 140.672 212.579 140.672 211.848V210.381C140.672 209.485 140.517 209.304 139.744 209.304H139.205V208.312H140.011C141.456 208.312 141.92 208.771 141.92 210.189V211.373C141.92 212.211 142.341 212.6 143.547 212.52V213.789C142.341 213.709 141.92 214.099 141.92 214.931V216.115C141.92 217.533 141.456 217.992 140.011 217.992H139.205Z" fill="#1D1D1F"/>
<path d="M186.901 97.2907V100H185.797V92.3041H187.168L188.602 96.864H188.682L190.106 92.3041H191.482V100H190.378V97.2907L190.517 94.1974H190.421L189.098 98.192H188.181L186.858 94.1974H186.762L186.901 97.2907ZM193.701 102.096C193.498 102.096 193.264 102.091 193.205 102.085V101.056C193.258 101.067 193.445 101.072 193.53 101.072C194.101 101.072 194.416 100.853 194.597 100.304L194.677 100.043L192.581 94.1601H193.941L195.37 98.8213H195.45L196.879 94.1601H198.197L196.112 100.133C195.605 101.605 194.992 102.096 193.701 102.096ZM199.365 97.888H200.597C200.671 98.6293 201.269 99.0667 202.207 99.0667C203.114 99.0667 203.695 98.6133 203.695 97.904C203.695 97.3227 203.311 96.992 202.362 96.768L201.621 96.592C200.213 96.256 199.541 95.5467 199.541 94.416C199.541 93.0347 200.575 92.1494 202.191 92.1494C203.738 92.1494 204.789 93.0241 204.837 94.3574H203.61C203.541 93.6534 203.013 93.2374 202.202 93.2374C201.349 93.2374 200.831 93.6374 200.831 94.304C200.831 94.896 201.205 95.232 202.106 95.44L202.847 95.616C204.335 95.9627 204.975 96.624 204.975 97.792C204.975 99.2533 203.909 100.155 202.186 100.155C200.501 100.155 199.429 99.296 199.365 97.888ZM212.106 94.1601L210.901 100H209.791L208.927 95.8187H208.869L207.999 100H206.89L205.685 94.1601H206.874L207.455 98.5067H207.61L208.362 94.1707H209.429L210.181 98.5067H210.335L210.911 94.1601H212.106ZM215.738 92.8641C215.21 92.8641 214.837 92.5174 214.837 92.0161C214.837 91.5147 215.21 91.1681 215.738 91.1681C216.271 91.1681 216.645 91.5147 216.645 92.0161C216.645 92.5174 216.271 92.8641 215.738 92.8641ZM218.218 100H213.247V99.008H215.173V95.152H213.311V94.1601H216.383V99.008H218.218V100ZM221.455 100V95.2H219.893V94.1974H221.455V93.7121C221.455 92.4694 222.106 91.9574 223.631 91.9574C223.85 91.9574 224.991 91.9787 225.114 91.9947V92.9281C224.949 92.9121 223.871 92.8961 223.658 92.8961C223.007 92.8961 222.671 93.1521 222.671 93.6481V94.1974H225.114V95.2H222.693V100H221.455ZM228.026 92.5281H229.242V94.1974H231.498V95.2H229.263V98.2027C229.263 98.72 229.631 99.008 230.293 99.008C230.506 99.008 231.349 99.0027 231.45 98.992V99.984C231.354 100 230.373 100.016 230.197 100.016C228.661 100.016 228.026 99.4933 228.026 98.1973V95.2H226.49V94.1974H228.026V92.5281ZM235.05 100H233.759V92.3041H238.49V93.4294H235.05V95.744H238.186V96.8214H235.05V100ZM245.226 100H240.255V99.008H242.17V92.8961H240.319V91.9041H243.407V99.008H245.226V100ZM249.407 100.117C247.796 100.117 246.778 99.1147 246.778 97.5254V96.6347C246.778 95.0454 247.796 94.0427 249.407 94.0427C251.018 94.0427 252.036 95.0454 252.036 96.6347V97.5254C252.036 99.1147 251.018 100.117 249.407 100.117ZM249.407 95.072C248.543 95.072 248.004 95.696 248.004 96.704V97.456C248.004 98.464 248.543 99.088 249.407 99.088C250.271 99.088 250.81 98.464 250.81 97.456V96.704C250.81 95.696 250.271 95.072 249.407 95.072ZM259.37 94.1601L258.164 100H257.055L256.191 95.8187H256.132L255.263 100H254.154L252.948 94.1601H254.138L254.719 98.5067H254.874L255.626 94.1707H256.692L257.444 98.5067H257.599L258.175 94.1601H259.37ZM264.644 100L264.09 97.9787H261.647L261.087 100H259.796L262.17 92.3041H263.652L266.026 100H264.644ZM262.847 93.6534L261.935 96.9547H263.807L262.9 93.6534H262.847ZM270.202 94.0641C271.546 94.0641 272.378 95.008 272.378 96.56V97.6C272.378 99.1573 271.546 100.101 270.202 100.101C269.359 100.101 268.762 99.7173 268.543 99.0453H268.436V101.957H267.156V94.1601H268.415V95.12H268.522C268.767 94.4374 269.359 94.0641 270.202 94.0641ZM269.759 95.152C268.927 95.152 268.41 95.7227 268.41 96.64V97.5574C268.41 98.4747 268.927 99.0453 269.759 99.0453C270.596 99.0453 271.114 98.4693 271.114 97.5574V96.64C271.114 95.7227 270.596 95.152 269.759 95.152ZM276.953 94.0641C278.297 94.0641 279.129 95.008 279.129 96.56V97.6C279.129 99.1573 278.297 100.101 276.953 100.101C276.111 100.101 275.513 99.7173 275.295 99.0453H275.188V101.957H273.908V94.1601H275.167V95.12H275.273C275.519 94.4374 276.111 94.0641 276.953 94.0641ZM276.511 95.152C275.679 95.152 275.161 95.7227 275.161 96.64V97.5574C275.161 98.4747 275.679 99.0453 276.511 99.0453C277.348 99.0453 277.865 98.4693 277.865 97.5574V96.64C277.865 95.7227 277.348 95.152 276.511 95.152ZM189.178 113.091C188.33 113.091 187.738 112.723 187.498 112.04H187.392V113H186.128V104.904H187.413V108.115H187.52C187.738 107.437 188.336 107.059 189.178 107.059C190.522 107.059 191.349 108.003 191.349 109.555V110.595C191.349 112.152 190.522 113.091 189.178 113.091ZM188.736 112.008C189.568 112.008 190.09 111.437 190.09 110.52V109.608C190.09 108.691 189.568 108.115 188.736 108.115C187.904 108.115 187.381 108.685 187.381 109.608V110.52C187.381 111.437 187.904 112.008 188.736 112.008ZM195.392 113.117C193.781 113.117 192.762 112.115 192.762 110.525V109.635C192.762 108.045 193.781 107.043 195.392 107.043C197.002 107.043 198.021 108.045 198.021 109.635V110.525C198.021 112.115 197.002 113.117 195.392 113.117ZM195.392 108.072C194.528 108.072 193.989 108.696 193.989 109.704V110.456C193.989 111.464 194.528 112.088 195.392 112.088C196.256 112.088 196.794 111.464 196.794 110.456V109.704C196.794 108.696 196.256 108.072 195.392 108.072ZM201.605 113.091C200.266 113.091 199.434 112.152 199.434 110.595V109.555C199.434 108.003 200.266 107.059 201.605 107.059C202.447 107.059 203.05 107.437 203.269 108.115H203.375V104.904H204.655V113H203.397V112.04H203.29C203.045 112.723 202.453 113.091 201.605 113.091ZM202.053 112.008C202.885 112.008 203.402 111.437 203.402 110.52V109.608C203.402 108.685 202.885 108.115 202.053 108.115C201.215 108.115 200.698 108.691 200.698 109.608V110.52C200.698 111.437 201.215 112.008 202.053 112.008ZM207.205 115.096C207.002 115.096 206.767 115.091 206.709 115.085V114.056C206.762 114.067 206.949 114.072 207.034 114.072C207.605 114.072 207.919 113.853 208.101 113.304L208.181 113.043L206.085 107.16H207.445L208.874 111.821H208.954L210.383 107.16H211.701L209.615 113.133C209.109 114.605 208.495 115.096 207.205 115.096Z" fill="#62DBFD"/>
<path d="M283.167 96.0107C282.569 96.0107 282.079 95.5094 282.079 94.896C282.079 94.2827 282.569 93.7867 283.167 93.7867C283.764 93.7867 284.255 94.2827 284.255 94.896C284.255 95.5094 283.764 96.0107 283.167 96.0107ZM283.167 100.075C282.569 100.075 282.079 99.568 282.079 98.96C282.079 98.3467 282.569 97.8507 283.167 97.8507C283.764 97.8507 284.255 98.3467 284.255 98.96C284.255 99.568 283.764 100.075 283.167 100.075Z" fill="white"/>
<path d="M298.404 100L297.849 97.9787H295.407L294.847 100H293.556L295.929 92.3041H297.412L299.785 100H298.404ZM296.607 93.6534L295.695 96.9547H297.567L296.66 93.6534H296.607ZM303.961 94.0641C305.305 94.0641 306.137 95.008 306.137 96.56V97.6C306.137 99.1573 305.305 100.101 303.961 100.101C303.119 100.101 302.521 99.7173 302.303 99.0453H302.196V101.957H300.916V94.1601H302.175V95.12H302.281C302.527 94.4374 303.119 94.0641 303.961 94.0641ZM303.519 95.152C302.687 95.152 302.169 95.7227 302.169 96.64V97.5574C302.169 98.4747 302.687 99.0453 303.519 99.0453C304.356 99.0453 304.873 98.4693 304.873 97.5574V96.64C304.873 95.7227 304.356 95.152 303.519 95.152ZM310.713 94.0641C312.057 94.0641 312.889 95.008 312.889 96.56V97.6C312.889 99.1573 312.057 100.101 310.713 100.101C309.871 100.101 309.273 99.7173 309.055 99.0453H308.948V101.957H307.668V94.1601H308.927V95.12H309.033C309.279 94.4374 309.871 94.0641 310.713 94.0641ZM310.271 95.152C309.439 95.152 308.921 95.7227 308.921 96.64V97.5574C308.921 98.4747 309.439 99.0453 310.271 99.0453C311.108 99.0453 311.625 98.4693 311.625 97.5574V96.64C311.625 95.7227 311.108 95.152 310.271 95.152ZM260.132 110.888H261.364C261.439 111.629 262.036 112.067 262.975 112.067C263.882 112.067 264.463 111.613 264.463 110.904C264.463 110.323 264.079 109.992 263.13 109.768L262.388 109.592C260.98 109.256 260.308 108.547 260.308 107.416C260.308 106.035 261.343 105.149 262.959 105.149C264.506 105.149 265.556 106.024 265.604 107.357H264.378C264.308 106.653 263.78 106.237 262.97 106.237C262.116 106.237 261.599 106.637 261.599 107.304C261.599 107.896 261.972 108.232 262.874 108.44L263.615 108.616C265.103 108.963 265.743 109.624 265.743 110.792C265.743 112.253 264.676 113.155 262.954 113.155C261.268 113.155 260.196 112.296 260.132 110.888ZM272.223 109.107H271.007C270.906 108.44 270.442 108.072 269.764 108.072C268.89 108.072 268.41 108.701 268.41 109.848V110.296C268.41 111.443 268.89 112.072 269.764 112.072C270.447 112.072 270.9 111.72 271.007 111.075H272.223C272.09 112.381 271.199 113.117 269.775 113.117C268.106 113.117 267.162 112.147 267.162 110.408V109.736C267.162 108.003 268.106 107.027 269.775 107.027C271.204 107.027 272.084 107.768 272.223 109.107ZM277.801 111.416H278.98C278.841 112.419 277.849 113.117 276.543 113.117C274.879 113.117 273.919 112.163 273.919 110.499V109.587C273.919 108.056 274.948 107.043 276.5 107.043C278.036 107.043 278.991 108.051 278.991 109.672V110.381H275.14V110.664C275.14 111.555 275.689 112.131 276.537 112.131C277.183 112.131 277.679 111.848 277.801 111.416ZM276.479 108.024C275.641 108.024 275.14 108.595 275.14 109.549H277.785C277.785 108.6 277.295 108.024 276.479 108.024ZM280.644 113V107.16H281.844V108.157H281.929C282.228 107.443 282.873 107.043 283.732 107.043C285.001 107.043 285.689 107.8 285.689 109.213V113H284.447V109.517C284.447 108.579 284.063 108.131 283.263 108.131C282.431 108.131 281.887 108.712 281.887 109.597V113H280.644ZM291.305 111.416H292.484C292.345 112.419 291.353 113.117 290.047 113.117C288.383 113.117 287.423 112.163 287.423 110.499V109.587C287.423 108.056 288.452 107.043 290.004 107.043C291.54 107.043 292.495 108.051 292.495 109.672V110.381H288.644V110.664C288.644 111.555 289.193 112.131 290.041 112.131C290.687 112.131 291.183 111.848 291.305 111.416ZM289.983 108.024C289.145 108.024 288.644 108.595 288.644 109.549H291.289C291.289 108.6 290.799 108.024 289.983 108.024ZM181.925 121.365H181.85L180.912 126H179.76L178.512 118.304H179.696L180.069 121.136L180.432 124.245H180.506L181.365 120.064H182.41L183.269 124.245H183.344L183.706 121.136L184.08 118.304H185.264L184.016 126H182.864L181.925 121.365ZM188.73 118.864C188.202 118.864 187.829 118.517 187.829 118.016C187.829 117.515 188.202 117.168 188.73 117.168C189.264 117.168 189.637 117.515 189.637 118.016C189.637 118.517 189.264 118.864 188.73 118.864ZM191.21 126H186.24V125.008H188.165V121.152H186.304V120.16H189.376V125.008H191.21V126ZM192.869 126V120.16H194.069V121.157H194.154C194.453 120.443 195.098 120.043 195.957 120.043C197.226 120.043 197.914 120.8 197.914 122.213V126H196.671V122.517C196.671 121.579 196.288 121.131 195.488 121.131C194.656 121.131 194.112 121.712 194.112 122.597V126H192.869ZM201.605 126.091C200.266 126.091 199.434 125.152 199.434 123.595V122.555C199.434 121.003 200.266 120.059 201.605 120.059C202.447 120.059 203.05 120.437 203.269 121.115H203.375V117.904H204.655V126H203.397V125.04H203.29C203.045 125.723 202.453 126.091 201.605 126.091ZM202.053 125.008C202.885 125.008 203.402 124.437 203.402 123.52V122.608C203.402 121.685 202.885 121.115 202.053 121.115C201.215 121.115 200.698 121.691 200.698 122.608V123.52C200.698 124.437 201.215 125.008 202.053 125.008ZM208.895 126.117C207.285 126.117 206.266 125.115 206.266 123.525V122.635C206.266 121.045 207.285 120.043 208.895 120.043C210.506 120.043 211.525 121.045 211.525 122.635V123.525C211.525 125.115 210.506 126.117 208.895 126.117ZM208.895 121.072C208.031 121.072 207.493 121.696 207.493 122.704V123.456C207.493 124.464 208.031 125.088 208.895 125.088C209.759 125.088 210.298 124.464 210.298 123.456V122.704C210.298 121.696 209.759 121.072 208.895 121.072ZM218.858 120.16L217.653 126H216.543L215.679 121.819H215.621L214.751 126H213.642L212.437 120.16H213.626L214.207 124.507H214.362L215.114 120.171H216.181L216.933 124.507H217.087L217.663 120.16H218.858ZM223.983 123.547V122.981H222.415V121.984H225.29V123.595C225.29 125.136 224.181 126.155 222.538 126.155C220.677 126.155 219.594 124.96 219.594 122.896V121.408C219.594 119.344 220.677 118.149 222.538 118.149C224.202 118.149 225.247 119.152 225.285 120.789H223.983C223.941 119.899 223.354 119.312 222.511 119.312C221.45 119.312 220.901 120.027 220.901 121.408V122.896C220.901 124.277 221.455 124.992 222.527 124.992C223.429 124.992 223.983 124.448 223.983 123.547ZM228.991 123.397V125.072H230.73V126H226.661V125.072H227.797V121.088H226.549V120.16H228.997V121.653H229.178C229.418 120.528 230.069 120.005 231.178 120.005C231.509 120.005 231.813 120.048 232.015 120.128V121.477C231.754 121.376 231.37 121.312 231.05 121.312C229.701 121.312 228.991 122.048 228.991 123.397ZM235.903 126.117C234.293 126.117 233.274 125.115 233.274 123.525V122.635C233.274 121.045 234.293 120.043 235.903 120.043C237.514 120.043 238.532 121.045 238.532 122.635V123.525C238.532 125.115 237.514 126.117 235.903 126.117ZM235.903 121.072C235.039 121.072 234.501 121.696 234.501 122.704V123.456C234.501 124.464 235.039 125.088 235.903 125.088C236.767 125.088 237.306 124.464 237.306 123.456V122.704C237.306 121.696 236.767 121.072 235.903 121.072ZM245.178 120.16V126H243.978V125.003H243.892C243.594 125.717 242.948 126.117 242.09 126.117C240.82 126.117 240.132 125.36 240.132 123.941V120.16H241.375V123.643C241.375 124.581 241.759 125.024 242.559 125.024C243.391 125.024 243.935 124.448 243.935 123.563V120.16H245.178ZM249.946 120.064C251.29 120.064 252.122 121.008 252.122 122.56V123.6C252.122 125.157 251.29 126.101 249.946 126.101C249.103 126.101 248.506 125.717 248.287 125.045H248.18V127.957H246.9V120.16H248.159V121.12H248.266C248.511 120.437 249.103 120.064 249.946 120.064ZM249.503 121.152C248.671 121.152 248.154 121.723 248.154 122.64V123.557C248.154 124.475 248.671 125.045 249.503 125.045C250.34 125.045 250.858 124.469 250.858 123.557V122.64C250.858 121.723 250.34 121.152 249.503 121.152ZM337.828 178H336.537V171.429H334.286V170.304H340.078V171.429H337.828V178ZM343.225 178.096C342.116 178.096 341.374 177.392 341.374 176.336C341.374 175.291 342.132 174.672 343.529 174.587L344.99 174.501V174.011C344.99 173.408 344.601 173.067 343.918 173.067C343.348 173.067 342.932 173.312 342.804 173.739H341.588C341.694 172.731 342.638 172.064 343.95 172.064C345.396 172.064 346.217 172.773 346.217 174.021V178H345.038V177.184H344.926C344.644 177.765 344.02 178.096 343.225 178.096ZM343.625 177.083C344.414 177.083 344.99 176.576 344.99 175.872V175.339L343.716 175.408C342.985 175.451 342.606 175.744 342.606 176.261C342.606 176.768 343.001 177.083 343.625 177.083ZM348.414 173.813C348.414 172.725 349.31 172.032 350.692 172.032C352.03 172.032 352.878 172.651 352.958 173.701H351.785C351.7 173.264 351.278 172.992 350.676 172.992C350.052 172.992 349.641 173.28 349.641 173.717C349.641 174.091 349.908 174.304 350.542 174.443L351.412 174.629C352.579 174.88 353.097 175.376 353.097 176.251C353.097 177.387 352.164 178.117 350.697 178.117C349.268 178.117 348.361 177.483 348.276 176.427H349.508C349.614 176.885 350.057 177.147 350.718 177.147C351.396 177.147 351.822 176.848 351.822 176.395C351.822 176.011 351.577 175.813 350.91 175.669L350.036 175.477C348.958 175.237 348.414 174.683 348.414 173.813ZM356.595 174.619L358.835 172.16H360.281L358.078 174.539L360.43 178H358.985L357.171 175.333L356.515 175.984V178H355.278V169.904H356.515V174.619H356.595Z" fill="#D4B4FC"/>
<path d="M202.314 137.992C203.205 137.992 203.759 137.416 203.775 136.477H205.082C205.082 138.115 203.999 139.155 202.319 139.155C200.453 139.155 199.359 137.955 199.359 135.896V134.408C199.359 132.349 200.453 131.149 202.319 131.149C204.031 131.149 205.061 132.179 205.082 133.923H203.775C203.754 132.952 203.162 132.312 202.298 132.312C201.247 132.312 200.693 133.032 200.693 134.408V135.896C200.693 137.272 201.247 137.992 202.314 137.992ZM208.895 139.117C207.285 139.117 206.266 138.115 206.266 136.525V135.635C206.266 134.045 207.285 133.043 208.895 133.043C210.506 133.043 211.525 134.045 211.525 135.635V136.525C211.525 138.115 210.506 139.117 208.895 139.117ZM208.895 134.072C208.031 134.072 207.493 134.696 207.493 135.704V136.456C207.493 137.464 208.031 138.088 208.895 138.088C209.759 138.088 210.298 137.464 210.298 136.456V135.704C210.298 134.696 209.759 134.072 208.895 134.072ZM213.125 139V133.16H214.325V134.157H214.41C214.709 133.443 215.354 133.043 216.213 133.043C217.482 133.043 218.17 133.8 218.17 135.213V139H216.927V135.517C216.927 134.579 216.543 134.131 215.743 134.131C214.911 134.131 214.367 134.712 214.367 135.597V139H213.125ZM221.274 131.528H222.49V133.197H224.746V134.2H222.511V137.203C222.511 137.72 222.879 138.008 223.541 138.008C223.754 138.008 224.597 138.003 224.698 137.992V138.984C224.602 139 223.621 139.016 223.445 139.016C221.909 139.016 221.274 138.493 221.274 137.197V134.2H219.738V133.197H221.274V131.528ZM230.538 137.416H231.717C231.578 138.419 230.586 139.117 229.279 139.117C227.615 139.117 226.655 138.163 226.655 136.499V135.587C226.655 134.056 227.685 133.043 229.237 133.043C230.773 133.043 231.727 134.051 231.727 135.672V136.381H227.877V136.664C227.877 137.555 228.426 138.131 229.274 138.131C229.919 138.131 230.415 137.848 230.538 137.416ZM229.215 134.024C228.378 134.024 227.877 134.595 227.877 135.549H230.522C230.522 134.6 230.031 134.024 229.215 134.024ZM233.381 139V133.16H234.581V134.157H234.666C234.965 133.443 235.61 133.043 236.468 133.043C237.738 133.043 238.426 133.8 238.426 135.213V139H237.183V135.517C237.183 134.579 236.799 134.131 235.999 134.131C235.167 134.131 234.623 134.712 234.623 135.597V139H233.381ZM241.53 131.528H242.746V133.197H245.002V134.2H242.767V137.203C242.767 137.72 243.135 138.008 243.796 138.008C244.01 138.008 244.852 138.003 244.954 137.992V138.984C244.858 139 243.876 139.016 243.7 139.016C242.164 139.016 241.53 138.493 241.53 137.197V134.2H239.994V133.197H241.53V131.528ZM249.471 137.651L251.231 131.304H252.522L250.148 139H248.666L246.292 131.304H247.668L249.418 137.651H249.471ZM256.25 131.864C255.722 131.864 255.348 131.517 255.348 131.016C255.348 130.515 255.722 130.168 256.25 130.168C256.783 130.168 257.156 130.515 257.156 131.016C257.156 131.517 256.783 131.864 256.25 131.864ZM258.73 139H253.759V138.008H255.684V134.152H253.823V133.16H256.895V138.008H258.73V139ZM264.298 137.416H265.476C265.338 138.419 264.346 139.117 263.039 139.117C261.375 139.117 260.415 138.163 260.415 136.499V135.587C260.415 134.056 261.444 133.043 262.996 133.043C264.532 133.043 265.487 134.051 265.487 135.672V136.381H261.636V136.664C261.636 137.555 262.186 138.131 263.034 138.131C263.679 138.131 264.175 137.848 264.298 137.416ZM262.975 134.024C262.138 134.024 261.636 134.595 261.636 135.549H264.282C264.282 134.6 263.791 134.024 262.975 134.024ZM272.874 133.16L271.668 139H270.559L269.695 134.819H269.636L268.767 139H267.658L266.452 133.16H267.642L268.223 137.507H268.378L269.13 133.171H270.196L270.948 137.507H271.103L271.679 133.16H272.874ZM240.175 170.304H242.89C244.458 170.304 245.466 171.307 245.466 172.869C245.466 174.421 244.436 175.424 242.836 175.424H241.466V178H240.175V170.304ZM241.466 171.381V174.347H242.57C243.61 174.347 244.159 173.84 244.159 172.864C244.159 171.888 243.61 171.381 242.57 171.381H241.466ZM249.247 175.397V177.072H250.986V178H246.916V177.072H248.052V173.088H246.804V172.16H249.252V173.653H249.434C249.674 172.528 250.324 172.005 251.434 172.005C251.764 172.005 252.068 172.048 252.271 172.128V173.477C252.01 173.376 251.626 173.312 251.306 173.312C249.956 173.312 249.247 174.048 249.247 175.397ZM256.159 178.117C254.548 178.117 253.53 177.115 253.53 175.525V174.635C253.53 173.045 254.548 172.043 256.159 172.043C257.77 172.043 258.788 173.045 258.788 174.635V175.525C258.788 177.115 257.77 178.117 256.159 178.117ZM256.159 173.072C255.295 173.072 254.756 173.696 254.756 174.704V175.456C254.756 176.464 255.295 177.088 256.159 177.088C257.023 177.088 257.562 176.464 257.562 175.456V174.704C257.562 173.696 257.023 173.072 256.159 173.072ZM263.615 170.864C263.082 170.864 262.708 170.517 262.708 170.016C262.708 169.515 263.082 169.168 263.615 169.168C264.143 169.168 264.516 169.515 264.516 170.016C264.516 170.517 264.143 170.864 263.615 170.864ZM264.298 172.16V177.851C264.298 179.301 263.642 179.851 261.956 179.851C261.695 179.851 260.74 179.84 260.49 179.824V178.736C260.671 178.752 261.684 178.763 261.914 178.763C262.788 178.763 263.087 178.512 263.087 177.813V173.152H260.575V172.16H264.298ZM271.05 176.416H272.228C272.09 177.419 271.098 178.117 269.791 178.117C268.127 178.117 267.167 177.163 267.167 175.499V174.587C267.167 173.056 268.196 172.043 269.748 172.043C271.284 172.043 272.239 173.051 272.239 174.672V175.381H268.388V175.664C268.388 176.555 268.938 177.131 269.786 177.131C270.431 177.131 270.927 176.848 271.05 176.416ZM269.727 173.024C268.89 173.024 268.388 173.595 268.388 174.549H271.034C271.034 173.6 270.543 173.024 269.727 173.024ZM278.975 174.107H277.759C277.657 173.44 277.193 173.072 276.516 173.072C275.641 173.072 275.161 173.701 275.161 174.848V175.296C275.161 176.443 275.641 177.072 276.516 177.072C277.199 177.072 277.652 176.72 277.759 176.075H278.975C278.841 177.381 277.951 178.117 276.527 178.117C274.857 178.117 273.914 177.147 273.914 175.408V174.736C273.914 173.003 274.857 172.027 276.527 172.027C277.956 172.027 278.836 172.768 278.975 174.107ZM282.041 170.528H283.257V172.197H285.513V173.2H283.279V176.203C283.279 176.72 283.647 177.008 284.308 177.008C284.521 177.008 285.364 177.003 285.465 176.992V177.984C285.369 178 284.388 178.016 284.212 178.016C282.676 178.016 282.041 177.493 282.041 176.197V173.2H280.505V172.197H282.041V170.528Z" fill="#9CE3D5"/>
<path d="M191.536 160.563V165H190.469V160.957C190.469 160.424 190.24 160.12 189.845 160.12C189.434 160.12 189.178 160.467 189.178 161.016V165H188.117V160.957C188.117 160.419 187.893 160.12 187.493 160.12C187.077 160.12 186.81 160.467 186.81 161.016V165H185.744V159.16H186.832V160.035H186.965C187.098 159.4 187.509 159.043 188.069 159.043C188.613 159.043 188.986 159.389 189.109 160.003H189.242C189.376 159.405 189.808 159.043 190.378 159.043C191.136 159.043 191.536 159.571 191.536 160.563ZM195.392 165.117C193.781 165.117 192.762 164.115 192.762 162.525V161.635C192.762 160.045 193.781 159.043 195.392 159.043C197.002 159.043 198.021 160.045 198.021 161.635V162.525C198.021 164.115 197.002 165.117 195.392 165.117ZM195.392 160.072C194.528 160.072 193.989 160.696 193.989 161.704V162.456C193.989 163.464 194.528 164.088 195.392 164.088C196.256 164.088 196.794 163.464 196.794 162.456V161.704C196.794 160.696 196.256 160.072 195.392 160.072ZM201.605 165.091C200.266 165.091 199.434 164.152 199.434 162.595V161.555C199.434 160.003 200.266 159.059 201.605 159.059C202.447 159.059 203.05 159.437 203.269 160.115H203.375V156.904H204.655V165H203.397V164.04H203.29C203.045 164.723 202.453 165.091 201.605 165.091ZM202.053 164.008C202.885 164.008 203.402 163.437 203.402 162.52V161.608C203.402 160.685 202.885 160.115 202.053 160.115C201.215 160.115 200.698 160.691 200.698 161.608V162.52C200.698 163.437 201.215 164.008 202.053 164.008ZM210.282 163.416H211.461C211.322 164.419 210.33 165.117 209.023 165.117C207.359 165.117 206.399 164.163 206.399 162.499V161.587C206.399 160.056 207.429 159.043 208.981 159.043C210.517 159.043 211.471 160.051 211.471 161.672V162.381H207.621V162.664C207.621 163.555 208.17 164.131 209.018 164.131C209.663 164.131 210.159 163.848 210.282 163.416ZM208.959 160.024C208.122 160.024 207.621 160.595 207.621 161.549H210.266C210.266 160.6 209.775 160.024 208.959 160.024ZM218.218 165H213.247V164.008H215.162V157.896H213.311V156.904H216.399V164.008H218.218V165ZM222.57 163.992C223.461 163.992 224.015 163.416 224.031 162.477H225.338C225.338 164.115 224.255 165.155 222.575 165.155C220.709 165.155 219.615 163.955 219.615 161.896V160.408C219.615 158.349 220.709 157.149 222.575 157.149C224.287 157.149 225.317 158.179 225.338 159.923H224.031C224.01 158.952 223.418 158.312 222.554 158.312C221.503 158.312 220.949 159.032 220.949 160.408V161.896C220.949 163.272 221.503 163.992 222.57 163.992ZM229.151 165.117C227.541 165.117 226.522 164.115 226.522 162.525V161.635C226.522 160.045 227.541 159.043 229.151 159.043C230.762 159.043 231.781 160.045 231.781 161.635V162.525C231.781 164.115 230.762 165.117 229.151 165.117ZM229.151 160.072C228.287 160.072 227.749 160.696 227.749 161.704V162.456C227.749 163.464 228.287 164.088 229.151 164.088C230.015 164.088 230.554 163.464 230.554 162.456V161.704C230.554 160.696 230.015 160.072 229.151 160.072ZM233.381 165V159.16H234.581V160.157H234.666C234.965 159.443 235.61 159.043 236.468 159.043C237.738 159.043 238.426 159.8 238.426 161.213V165H237.183V161.517C237.183 160.579 236.799 160.131 235.999 160.131C235.167 160.131 234.623 160.712 234.623 161.597V165H233.381ZM241.53 157.528H242.746V159.197H245.002V160.2H242.767V163.203C242.767 163.72 243.135 164.008 243.796 164.008C244.01 164.008 244.852 164.003 244.954 163.992V164.984C244.858 165 243.876 165.016 243.7 165.016C242.164 165.016 241.53 164.493 241.53 163.197V160.2H239.994V159.197H241.53V157.528ZM248.698 165.096C247.588 165.096 246.847 164.392 246.847 163.336C246.847 162.291 247.604 161.672 249.002 161.587L250.463 161.501V161.011C250.463 160.408 250.074 160.067 249.391 160.067C248.82 160.067 248.404 160.312 248.276 160.739H247.06C247.167 159.731 248.111 159.064 249.423 159.064C250.868 159.064 251.69 159.773 251.69 161.021V165H250.511V164.184H250.399C250.116 164.765 249.492 165.096 248.698 165.096ZM249.098 164.083C249.887 164.083 250.463 163.576 250.463 162.872V162.339L249.188 162.408C248.458 162.451 248.079 162.744 248.079 163.261C248.079 163.768 248.474 164.083 249.098 164.083ZM256.25 157.864C255.722 157.864 255.348 157.517 255.348 157.016C255.348 156.515 255.722 156.168 256.25 156.168C256.783 156.168 257.156 156.515 257.156 157.016C257.156 157.517 256.783 157.864 256.25 157.864ZM258.73 165H253.759V164.008H255.684V160.152H253.823V159.16H256.895V164.008H258.73V165ZM260.388 165V159.16H261.588V160.157H261.674C261.972 159.443 262.618 159.043 263.476 159.043C264.746 159.043 265.434 159.8 265.434 161.213V165H264.191V161.517C264.191 160.579 263.807 160.131 263.007 160.131C262.175 160.131 261.631 160.712 261.631 161.597V165H260.388ZM271.05 163.416H272.228C272.09 164.419 271.098 165.117 269.791 165.117C268.127 165.117 267.167 164.163 267.167 162.499V161.587C267.167 160.056 268.196 159.043 269.748 159.043C271.284 159.043 272.239 160.051 272.239 161.672V162.381H268.388V162.664C268.388 163.555 268.938 164.131 269.786 164.131C270.431 164.131 270.927 163.848 271.05 163.416ZM269.727 160.024C268.89 160.024 268.388 160.595 268.388 161.549H271.034C271.034 160.6 270.543 160.024 269.727 160.024ZM276.255 162.397V164.072H277.993V165H273.924V164.072H275.06V160.088H273.812V159.16H276.26V160.653H276.441C276.681 159.528 277.332 159.005 278.441 159.005C278.772 159.005 279.076 159.048 279.279 159.128V160.477C279.017 160.376 278.633 160.312 278.313 160.312C276.964 160.312 276.255 161.048 276.255 162.397ZM201.199 178V173.2H199.637V172.197H201.199V171.712C201.199 170.469 201.85 169.957 203.375 169.957C203.594 169.957 204.735 169.979 204.858 169.995V170.928C204.693 170.912 203.615 170.896 203.402 170.896C202.751 170.896 202.415 171.152 202.415 171.648V172.197H204.858V173.2H202.437V178H201.199ZM208.895 178.117C207.285 178.117 206.266 177.115 206.266 175.525V174.635C206.266 173.045 207.285 172.043 208.895 172.043C210.506 172.043 211.525 173.045 211.525 174.635V175.525C211.525 177.115 210.506 178.117 208.895 178.117ZM208.895 173.072C208.031 173.072 207.493 173.696 207.493 174.704V175.456C207.493 176.464 208.031 177.088 208.895 177.088C209.759 177.088 210.298 176.464 210.298 175.456V174.704C210.298 173.696 209.759 173.072 208.895 173.072ZM215.487 175.397V177.072H217.226V178H213.157V177.072H214.293V173.088H213.045V172.16H215.493V173.653H215.674C215.914 172.528 216.565 172.005 217.674 172.005C218.005 172.005 218.309 172.048 218.511 172.128V173.477C218.25 173.376 217.866 173.312 217.546 173.312C216.197 173.312 215.487 174.048 215.487 175.397Z" fill="#A779E4"/>
</svg>
