<svg width="19" height="15" viewBox="0 0 19 15" fill="none" xmlns="http://www.w3.org/2000/svg">
<path d="M14.5312 4.09375C14.2865 4.09896 14.0703 4.00781 13.8828 3.82031C13.6953 3.63281 13.6016 3.41146 13.6016 3.15625C13.6016 2.90625 13.6953 2.6875 13.8828 2.5C14.0703 2.30729 14.2865 2.21094 14.5312 2.21094C14.7865 2.21094 15.0052 2.30469 15.1875 2.49219C15.3698 2.67969 15.4609 2.90104 15.4609 3.15625C15.4609 3.41146 15.3698 3.63021 15.1875 3.8125C15.0052 3.99479 14.7865 4.08854 14.5312 4.09375ZM14.5312 8.28906C14.2865 8.29427 14.0703 8.20312 13.8828 8.01562C13.6953 7.82812 13.6016 7.60938 13.6016 7.35938C13.6016 7.10938 13.6953 6.89062 13.8828 6.70312C14.0703 6.51042 14.2865 6.41406 14.5312 6.41406C14.7865 6.41406 15.0052 6.50781 15.1875 6.69531C15.3698 6.88281 15.4609 7.10417 15.4609 7.35938C15.4609 7.60938 15.3698 7.82552 15.1875 8.00781C15.0052 8.1901 14.7865 8.28385 14.5312 8.28906ZM14.5312 12.4922C14.2865 12.4974 14.0703 12.4062 13.8828 12.2188C13.6953 12.0312 13.6016 11.8125 13.6016 11.5625C13.6016 11.3073 13.6953 11.0859 13.8828 10.8984C14.0703 10.7109 14.2865 10.6172 14.5312 10.6172C14.7865 10.6172 15.0052 10.7109 15.1875 10.8984C15.3698 11.0859 15.4609 11.3073 15.4609 11.5625C15.4609 11.8125 15.3698 12.0286 15.1875 12.2109C15.0052 12.3932 14.7865 12.487 14.5312 12.4922ZM18.0078 5.96094H1.01562V4.57031H18.0078V5.96094ZM18.0078 10.1719H1.01562V8.78125H18.0078V10.1719ZM2.86719 14.7344C2.0026 14.7344 1.34375 14.5104 0.890625 14.0625C0.442708 13.6146 0.21875 12.9661 0.21875 12.1172V2.625C0.21875 1.76562 0.442708 1.11458 0.890625 0.671875C1.34375 0.223958 2.0026 0 2.86719 0H16.1406C17.0052 0 17.6615 0.223958 18.1094 0.671875C18.5573 1.11979 18.7812 1.77083 18.7812 2.625V12.1172C18.7812 12.9661 18.5573 13.6146 18.1094 14.0625C17.6615 14.5104 17.0052 14.7344 16.1406 14.7344H2.86719ZM3.00781 12.9922H15.9922C16.3307 12.9922 16.5911 12.9062 16.7734 12.7344C16.9557 12.5573 17.0469 12.2891 17.0469 11.9297V2.80469C17.0469 2.44531 16.9557 2.17708 16.7734 2C16.5911 1.82292 16.3307 1.73438 15.9922 1.73438H3.00781C2.66406 1.73438 2.40104 1.82292 2.21875 2C2.04167 2.17708 1.95312 2.44531 1.95312 2.80469V11.9297C1.95312 12.2891 2.04167 12.5573 2.21875 12.7344C2.40104 12.9062 2.66406 12.9922 3.00781 12.9922Z" fill="#1D1D1F"/>
</svg>
