<svg width="540" height="254" viewBox="0 0 540 254" fill="none" xmlns="http://www.w3.org/2000/svg">
<rect x="125.853" y="23.853" width="288.294" height="206.294" rx="4.04901" fill="black"/>
<path d="M141.467 38.8641C140.939 38.8641 140.565 38.5174 140.565 38.0161C140.565 37.5147 140.939 37.1681 141.467 37.1681C142 37.1681 142.373 37.5147 142.373 38.0161C142.373 38.5174 142 38.8641 141.467 38.8641ZM143.947 46H138.976V45.008H140.901V41.152H139.04V40.1601H142.112V45.008H143.947V46ZM151.024 41.5627V46H149.957V41.9574C149.957 41.424 149.728 41.12 149.333 41.12C148.923 41.12 148.667 41.4667 148.667 42.016V46H147.605V41.9574C147.605 41.4187 147.381 41.12 146.981 41.12C146.565 41.12 146.299 41.4667 146.299 42.016V46H145.232V40.1601H146.32V41.0347H146.453C146.587 40.4 146.997 40.0427 147.557 40.0427C148.101 40.0427 148.475 40.3894 148.597 41.0027H148.731C148.864 40.4054 149.296 40.0427 149.867 40.0427C150.624 40.0427 151.024 40.5707 151.024 41.5627ZM155.419 40.0641C156.763 40.0641 157.594 41.008 157.594 42.56V43.6C157.594 45.1573 156.763 46.1013 155.419 46.1013C154.576 46.1013 153.979 45.7173 153.76 45.0453H153.653V47.9573H152.373V40.1601H153.632V41.12H153.739C153.984 40.4374 154.576 40.0641 155.419 40.0641ZM154.976 41.152C154.144 41.152 153.627 41.7227 153.627 42.64V43.5574C153.627 44.4747 154.144 45.0453 154.976 45.0453C155.813 45.0453 156.331 44.4693 156.331 43.5574V42.64C156.331 41.7227 155.813 41.152 154.976 41.152ZM161.632 46.1173C160.021 46.1173 159.002 45.1147 159.002 43.5254V42.6347C159.002 41.0454 160.021 40.0427 161.632 40.0427C163.242 40.0427 164.261 41.0454 164.261 42.6347V43.5254C164.261 45.1147 163.242 46.1173 161.632 46.1173ZM161.632 41.072C160.768 41.072 160.229 41.696 160.229 42.704V43.456C160.229 44.464 160.768 45.088 161.632 45.088C162.496 45.088 163.034 44.464 163.034 43.456V42.704C163.034 41.696 162.496 41.072 161.632 41.072ZM168.224 43.3974V45.072H169.962V46H165.893V45.072H167.029V41.088H165.781V40.1601H168.229V41.6534H168.41C168.65 40.528 169.301 40.0054 170.41 40.0054C170.741 40.0054 171.045 40.0481 171.248 40.1281V41.4774C170.986 41.376 170.602 41.312 170.282 41.312C168.933 41.312 168.224 42.048 168.224 43.3974ZM174.01 38.5281H175.226V40.1974H177.482V41.2H175.248V44.2027C175.248 44.72 175.616 45.008 176.277 45.008C176.49 45.008 177.333 45.0027 177.434 44.992V45.984C177.338 46 176.357 46.016 176.181 46.016C174.645 46.016 174.01 45.4933 174.01 44.1973V41.2H172.474V40.1974H174.01V38.5281ZM141.467 51.8641C140.939 51.8641 140.565 51.5174 140.565 51.0161C140.565 50.5147 140.939 50.1681 141.467 50.1681C142 50.1681 142.373 50.5147 142.373 51.0161C142.373 51.5174 142 51.8641 141.467 51.8641ZM143.947 59H138.976V58.008H140.901V54.152H139.04V53.1601H142.112V58.008H143.947V59ZM151.024 54.5627V59H149.957V54.9574C149.957 54.424 149.728 54.12 149.333 54.12C148.923 54.12 148.667 54.4667 148.667 55.016V59H147.605V54.9574C147.605 54.4187 147.381 54.12 146.981 54.12C146.565 54.12 146.299 54.4667 146.299 55.016V59H145.232V53.1601H146.32V54.0347H146.453C146.587 53.4 146.997 53.0427 147.557 53.0427C148.101 53.0427 148.475 53.3894 148.597 54.0027H148.731C148.864 53.4054 149.296 53.0427 149.867 53.0427C150.624 53.0427 151.024 53.5707 151.024 54.5627ZM155.419 53.0641C156.763 53.0641 157.594 54.008 157.594 55.56V56.6C157.594 58.1573 156.763 59.1013 155.419 59.1013C154.576 59.1013 153.979 58.7173 153.76 58.0453H153.653V60.9573H152.373V53.1601H153.632V54.12H153.739C153.984 53.4374 154.576 53.0641 155.419 53.0641ZM154.976 54.152C154.144 54.152 153.627 54.7227 153.627 55.64V56.5574C153.627 57.4747 154.144 58.0453 154.976 58.0453C155.813 58.0453 156.331 57.4693 156.331 56.5574V55.64C156.331 54.7227 155.813 54.152 154.976 54.152ZM161.632 59.1173C160.021 59.1173 159.002 58.1147 159.002 56.5254V55.6347C159.002 54.0454 160.021 53.0427 161.632 53.0427C163.242 53.0427 164.261 54.0454 164.261 55.6347V56.5254C164.261 58.1147 163.242 59.1173 161.632 59.1173ZM161.632 54.072C160.768 54.072 160.229 54.696 160.229 55.704V56.456C160.229 57.464 160.768 58.088 161.632 58.088C162.496 58.088 163.034 57.464 163.034 56.456V55.704C163.034 54.696 162.496 54.072 161.632 54.072ZM168.224 56.3974V58.072H169.962V59H165.893V58.072H167.029V54.088H165.781V53.1601H168.229V54.6534H168.41C168.65 53.528 169.301 53.0054 170.41 53.0054C170.741 53.0054 171.045 53.0481 171.248 53.1281V54.4774C170.986 54.376 170.602 54.312 170.282 54.312C168.933 54.312 168.224 55.048 168.224 56.3974ZM174.01 51.5281H175.226V53.1974H177.482V54.2H175.248V57.2027C175.248 57.72 175.616 58.008 176.277 58.008C176.49 58.008 177.333 58.0027 177.434 57.992V58.984C177.338 59 176.357 59.016 176.181 59.016C174.645 59.016 174.01 58.4933 174.01 57.1973V54.2H172.474V53.1974H174.01V51.5281ZM141.595 86.0773C139.557 86.0773 138.549 84.744 138.549 82.0294V81.2134C138.549 78.4774 139.525 77.1174 141.461 77.1174C143.301 77.1174 144.277 78.2961 144.277 80.552V82.072C144.277 82.952 143.835 83.4533 143.056 83.4533H141.616C141.2 83.4533 140.939 83.1813 140.939 82.7547V80.488C140.939 80.0614 141.168 79.7894 141.525 79.7894C141.883 79.7894 142.117 80.0614 142.117 80.488V82.7707H142.901C143.355 82.7707 143.525 82.5947 143.525 82.1254V80.712C143.525 78.7707 142.859 77.8694 141.451 77.8694C139.963 77.8694 139.328 78.8614 139.328 81.224V81.912C139.328 84.312 140.032 85.336 141.669 85.336C142.149 85.336 142.635 85.2667 142.853 85.1653V85.88C142.597 85.9973 142.075 86.0773 141.595 86.0773ZM151.024 80.5627V85H149.957V80.9574C149.957 80.424 149.728 80.12 149.333 80.12C148.923 80.12 148.667 80.4667 148.667 81.016V85H147.605V80.9574C147.605 80.4187 147.381 80.12 146.981 80.12C146.565 80.12 146.299 80.4667 146.299 81.016V85H145.232V79.1601H146.32V80.0347H146.453C146.587 79.4 146.997 79.0427 147.557 79.0427C148.101 79.0427 148.475 79.3894 148.597 80.0027H148.731C148.864 79.4054 149.296 79.0427 149.867 79.0427C150.624 79.0427 151.024 79.5707 151.024 80.5627ZM154.171 85.096C153.061 85.096 152.32 84.392 152.32 83.336C152.32 82.2907 153.077 81.672 154.475 81.5867L155.936 81.5014V81.0107C155.936 80.408 155.547 80.0667 154.864 80.0667C154.293 80.0667 153.877 80.312 153.749 80.7387H152.533C152.64 79.7307 153.584 79.0641 154.896 79.0641C156.341 79.0641 157.163 79.7734 157.163 81.0214V85H155.984V84.184H155.872C155.589 84.7653 154.965 85.096 154.171 85.096ZM154.571 84.0827C155.36 84.0827 155.936 83.576 155.936 82.872V82.3387L154.661 82.408C153.931 82.4507 153.552 82.744 153.552 83.2613C153.552 83.768 153.947 84.0827 154.571 84.0827ZM161.722 77.8641C161.194 77.8641 160.821 77.5174 160.821 77.0161C160.821 76.5147 161.194 76.1681 161.722 76.1681C162.256 76.1681 162.629 76.5147 162.629 77.0161C162.629 77.5174 162.256 77.8641 161.722 77.8641ZM164.202 85H159.232V84.008H161.157V80.152H159.296V79.1601H162.368V84.008H164.202V85ZM165.861 85V79.1601H167.061V80.1574H167.146C167.445 79.4427 168.09 79.0427 168.949 79.0427C170.218 79.0427 170.906 79.8 170.906 81.2134V85H169.664V81.5174C169.664 80.5787 169.28 80.1307 168.48 80.1307C167.648 80.1307 167.104 80.712 167.104 81.5974V85H165.861ZM139.104 93.8134C139.104 92.7254 140 92.0321 141.381 92.0321C142.72 92.0321 143.568 92.6507 143.648 93.7014H142.475C142.389 93.264 141.968 92.992 141.365 92.992C140.741 92.992 140.331 93.28 140.331 93.7174C140.331 94.0907 140.597 94.304 141.232 94.4427L142.101 94.6294C143.269 94.88 143.787 95.376 143.787 96.2507C143.787 97.3867 142.853 98.1173 141.387 98.1173C139.957 98.1173 139.051 97.4827 138.965 96.4267H140.197C140.304 96.8853 140.747 97.1467 141.408 97.1467C142.085 97.1467 142.512 96.848 142.512 96.3947C142.512 96.0107 142.267 95.8134 141.6 95.6694L140.725 95.4774C139.648 95.2374 139.104 94.6827 139.104 93.8134ZM147.003 90.5281H148.219V92.1974H150.475V93.2H148.24V96.2027C148.24 96.72 148.608 97.008 149.269 97.008C149.483 97.008 150.325 97.0027 150.427 96.992V97.984C150.331 98 149.349 98.016 149.173 98.016C147.637 98.016 147.003 97.4933 147.003 96.1973V93.2H145.467V92.1974H147.003V90.5281ZM154.72 95.3974V97.072H156.459V98H152.389V97.072H153.525V93.088H152.277V92.1601H154.725V93.6534H154.907C155.147 92.528 155.797 92.0054 156.907 92.0054C157.237 92.0054 157.541 92.0481 157.744 92.1281V93.4774C157.482 93.376 157.099 93.312 156.779 93.312C155.429 93.312 154.72 94.048 154.72 95.3974ZM164.154 92.1601V98H162.954V97.0027H162.869C162.57 97.7173 161.925 98.1173 161.066 98.1173C159.797 98.1173 159.109 97.36 159.109 95.9414V92.1601H160.352V95.6427C160.352 96.5813 160.736 97.024 161.536 97.024C162.368 97.024 162.912 96.448 162.912 95.5627V92.1601H164.154ZM170.944 94.1067H169.728C169.626 93.44 169.162 93.072 168.485 93.072C167.61 93.072 167.13 93.7014 167.13 94.848V95.296C167.13 96.4427 167.61 97.072 168.485 97.072C169.168 97.072 169.621 96.72 169.728 96.0747H170.944C170.81 97.3813 169.92 98.1173 168.496 98.1173C166.826 98.1173 165.882 97.1467 165.882 95.408V94.736C165.882 93.0027 166.826 92.0267 168.496 92.0267C169.925 92.0267 170.805 92.768 170.944 94.1067ZM174.01 90.5281H175.226V92.1974H177.482V93.2H175.248V96.2027C175.248 96.72 175.616 97.008 176.277 97.008C176.49 97.008 177.333 97.0027 177.434 96.992V97.984C177.338 98 176.357 98.016 176.181 98.016C174.645 98.016 174.01 97.4933 174.01 96.1973V93.2H172.474V92.1974H174.01V90.5281ZM158.858 105.16H160.192L161.605 109.768H161.69L163.088 105.16H164.405L162.336 111H160.938L158.858 105.16ZM167.674 111.096C166.565 111.096 165.824 110.392 165.824 109.336C165.824 108.291 166.581 107.672 167.978 107.587L169.44 107.501V107.011C169.44 106.408 169.05 106.067 168.368 106.067C167.797 106.067 167.381 106.312 167.253 106.739H166.037C166.144 105.731 167.088 105.064 168.4 105.064C169.845 105.064 170.666 105.773 170.666 107.021V111H169.488V110.184H169.376C169.093 110.765 168.469 111.096 167.674 111.096ZM168.074 110.083C168.864 110.083 169.44 109.576 169.44 108.872V108.339L168.165 108.408C167.434 108.451 167.056 108.744 167.056 109.261C167.056 109.768 167.45 110.083 168.074 110.083ZM174.976 108.397V110.072H176.714V111H172.645V110.072H173.781V106.088H172.533V105.16H174.981V106.653H175.162C175.402 105.528 176.053 105.005 177.162 105.005C177.493 105.005 177.797 105.048 178 105.128V106.477C177.738 106.376 177.354 106.312 177.034 106.312C175.685 106.312 174.976 107.048 174.976 108.397ZM226.879 106.813C226.879 105.725 227.775 105.032 229.157 105.032C230.495 105.032 231.343 105.651 231.423 106.701H230.25C230.165 106.264 229.743 105.992 229.141 105.992C228.517 105.992 228.106 106.28 228.106 106.717C228.106 107.091 228.373 107.304 229.007 107.443L229.877 107.629C231.045 107.88 231.562 108.376 231.562 109.251C231.562 110.387 230.629 111.117 229.162 111.117C227.733 111.117 226.826 110.483 226.741 109.427H227.973C228.079 109.885 228.522 110.147 229.183 110.147C229.861 110.147 230.287 109.848 230.287 109.395C230.287 109.011 230.042 108.813 229.375 108.669L228.501 108.477C227.423 108.237 226.879 107.683 226.879 106.813ZM235.903 111.117C234.293 111.117 233.274 110.115 233.274 108.525V107.635C233.274 106.045 234.293 105.043 235.903 105.043C237.514 105.043 238.532 106.045 238.532 107.635V108.525C238.532 110.115 237.514 111.117 235.903 111.117ZM235.903 106.072C235.039 106.072 234.501 106.696 234.501 107.704V108.456C234.501 109.464 235.039 110.088 235.903 110.088C236.767 110.088 237.306 109.464 237.306 108.456V107.704C237.306 106.696 236.767 106.072 235.903 106.072ZM245.551 106.563V111H244.484V106.957C244.484 106.424 244.255 106.12 243.86 106.12C243.45 106.12 243.194 106.467 243.194 107.016V111H242.132V106.957C242.132 106.419 241.908 106.12 241.508 106.12C241.092 106.12 240.826 106.467 240.826 107.016V111H239.759V105.16H240.847V106.035H240.98C241.114 105.4 241.524 105.043 242.084 105.043C242.628 105.043 243.002 105.389 243.124 106.003H243.258C243.391 105.405 243.823 105.043 244.394 105.043C245.151 105.043 245.551 105.571 245.551 106.563ZM250.794 109.416H251.972C251.834 110.419 250.842 111.117 249.535 111.117C247.871 111.117 246.911 110.163 246.911 108.499V107.587C246.911 106.056 247.94 105.043 249.492 105.043C251.028 105.043 251.983 106.051 251.983 107.672V108.381H248.132V108.664C248.132 109.555 248.682 110.131 249.53 110.131C250.175 110.131 250.671 109.848 250.794 109.416ZM249.471 106.024C248.634 106.024 248.132 106.595 248.132 107.549H250.778C250.778 106.6 250.287 106.024 249.471 106.024ZM294.399 171.813C294.399 170.725 295.295 170.032 296.676 170.032C298.015 170.032 298.863 170.651 298.943 171.701H297.769C297.684 171.264 297.263 170.992 296.66 170.992C296.036 170.992 295.625 171.28 295.625 171.717C295.625 172.091 295.892 172.304 296.527 172.443L297.396 172.629C298.564 172.88 299.081 173.376 299.081 174.251C299.081 175.387 298.148 176.117 296.681 176.117C295.252 176.117 294.345 175.483 294.26 174.427H295.492C295.599 174.885 296.041 175.147 296.703 175.147C297.38 175.147 297.807 174.848 297.807 174.395C297.807 174.011 297.561 173.813 296.895 173.669L296.02 173.477C294.943 173.237 294.399 172.683 294.399 171.813ZM304.809 174.416H305.988C305.849 175.419 304.857 176.117 303.551 176.117C301.887 176.117 300.927 175.163 300.927 173.499V172.587C300.927 171.056 301.956 170.043 303.508 170.043C305.044 170.043 305.999 171.051 305.999 172.672V173.381H302.148V173.664C302.148 174.555 302.697 175.131 303.545 175.131C304.191 175.131 304.687 174.848 304.809 174.416ZM303.487 171.024C302.649 171.024 302.148 171.595 302.148 172.549H304.793C304.793 171.6 304.303 171.024 303.487 171.024ZM312.745 176H307.775V175.008H309.689V168.896H307.839V167.904H310.927V175.008H312.745V176ZM315.982 176V171.2H314.42V170.197H315.982V169.712C315.982 168.469 316.633 167.957 318.158 167.957C318.377 167.957 319.518 167.979 319.641 167.995V168.928C319.476 168.912 318.398 168.896 318.185 168.896C317.534 168.896 317.198 169.152 317.198 169.648V170.197H319.641V171.2H317.22V176H315.982ZM368.67 171.813C368.67 170.725 369.566 170.032 370.947 170.032C372.286 170.032 373.134 170.651 373.214 171.701H372.041C371.955 171.264 371.534 170.992 370.931 170.992C370.307 170.992 369.897 171.28 369.897 171.717C369.897 172.091 370.163 172.304 370.798 172.443L371.667 172.629C372.835 172.88 373.353 173.376 373.353 174.251C373.353 175.387 372.419 176.117 370.953 176.117C369.523 176.117 368.617 175.483 368.531 174.427H369.763C369.87 174.885 370.313 175.147 370.974 175.147C371.651 175.147 372.078 174.848 372.078 174.395C372.078 174.011 371.833 173.813 371.166 173.669L370.291 173.477C369.214 173.237 368.67 172.683 368.67 171.813ZM379.081 174.416H380.259C380.121 175.419 379.129 176.117 377.822 176.117C376.158 176.117 375.198 175.163 375.198 173.499V172.587C375.198 171.056 376.227 170.043 377.779 170.043C379.315 170.043 380.27 171.051 380.27 172.672V173.381H376.419V173.664C376.419 174.555 376.969 175.131 377.817 175.131C378.462 175.131 378.958 174.848 379.081 174.416ZM377.758 171.024C376.921 171.024 376.419 171.595 376.419 172.549H379.065C379.065 171.6 378.574 171.024 377.758 171.024ZM387.017 176H382.046V175.008H383.961V168.896H382.11V167.904H385.198V175.008H387.017V176ZM390.254 176V171.2H388.691V170.197H390.254V169.712C390.254 168.469 390.904 167.957 392.43 167.957C392.648 167.957 393.79 167.979 393.912 167.995V168.928C393.747 168.912 392.67 168.896 392.456 168.896C391.806 168.896 391.47 169.152 391.47 169.648V170.197H393.912V171.2H391.491V176H390.254Z" fill="#FD6FA7"/>
<path d="M185.861 43.888H187.093C187.168 44.6293 187.765 45.0667 188.704 45.0667C189.61 45.0667 190.192 44.6133 190.192 43.904C190.192 43.3227 189.808 42.992 188.858 42.768L188.117 42.592C186.709 42.256 186.037 41.5467 186.037 40.416C186.037 39.0347 187.072 38.1494 188.688 38.1494C190.234 38.1494 191.285 39.0241 191.333 40.3574H190.106C190.037 39.6534 189.509 39.2374 188.698 39.2374C187.845 39.2374 187.328 39.6374 187.328 40.304C187.328 40.896 187.701 41.232 188.602 41.44L189.344 41.616C190.832 41.9627 191.472 42.624 191.472 43.792C191.472 45.2533 190.405 46.1547 188.682 46.1547C186.997 46.1547 185.925 45.296 185.861 43.888ZM198.602 40.1601L197.397 46H196.288L195.424 41.8187H195.365L194.496 46H193.386L192.181 40.1601H193.37L193.952 44.5067H194.106L194.858 40.1707H195.925L196.677 44.5067H196.831L197.407 40.1601H198.602ZM202.234 38.8641C201.706 38.8641 201.333 38.5174 201.333 38.0161C201.333 37.5147 201.706 37.1681 202.234 37.1681C202.767 37.1681 203.141 37.5147 203.141 38.0161C203.141 38.5174 202.767 38.8641 202.234 38.8641ZM204.714 46H199.743V45.008H201.669V41.152H199.807V40.1601H202.879V45.008H204.714V46ZM207.951 46V41.2H206.389V40.1974H207.951V39.7121C207.951 38.4694 208.602 37.9574 210.127 37.9574C210.346 37.9574 211.487 37.9787 211.61 37.9947V38.9281C211.445 38.9121 210.367 38.8961 210.154 38.8961C209.503 38.8961 209.167 39.1521 209.167 39.6481V40.1974H211.61V41.2H209.189V46H207.951ZM214.522 38.5281H215.738V40.1974H217.994V41.2H215.759V44.2027C215.759 44.72 216.127 45.008 216.789 45.008C217.002 45.008 217.845 45.0027 217.946 44.992V45.984C217.85 46 216.869 46.016 216.693 46.016C215.157 46.016 214.522 45.4933 214.522 44.1973V41.2H212.986V40.1974H214.522V38.5281ZM222.399 44.992C223.365 44.992 223.914 44.352 223.914 43.2214V38.3041H225.199V43.296C225.199 45.0933 224.159 46.1547 222.399 46.1547C220.639 46.1547 219.599 45.0933 219.599 43.296V38.3041H220.885V43.2214C220.885 44.352 221.434 44.992 222.399 44.992ZM231.375 46H226.927V44.8907H228.506V39.4134H226.927V38.3041H231.375V39.4134H229.797V44.8907H231.375V46ZM185.861 56.888H187.093C187.168 57.6293 187.765 58.0667 188.704 58.0667C189.61 58.0667 190.192 57.6133 190.192 56.904C190.192 56.3227 189.808 55.992 188.858 55.768L188.117 55.592C186.709 55.256 186.037 54.5467 186.037 53.416C186.037 52.0347 187.072 51.1494 188.688 51.1494C190.234 51.1494 191.285 52.0241 191.333 53.3574H190.106C190.037 52.6534 189.509 52.2374 188.698 52.2374C187.845 52.2374 187.328 52.6374 187.328 53.304C187.328 53.896 187.701 54.232 188.602 54.44L189.344 54.616C190.832 54.9627 191.472 55.624 191.472 56.792C191.472 58.2533 190.405 59.1547 188.682 59.1547C186.997 59.1547 185.925 58.296 185.861 56.888ZM198.602 53.1601L197.397 59H196.288L195.424 54.8187H195.365L194.496 59H193.386L192.181 53.1601H193.37L193.952 57.5067H194.106L194.858 53.1707H195.925L196.677 57.5067H196.831L197.407 53.1601H198.602ZM202.234 51.8641C201.706 51.8641 201.333 51.5174 201.333 51.0161C201.333 50.5147 201.706 50.1681 202.234 50.1681C202.767 50.1681 203.141 50.5147 203.141 51.0161C203.141 51.5174 202.767 51.8641 202.234 51.8641ZM204.714 59H199.743V58.008H201.669V54.152H199.807V53.1601H202.879V58.008H204.714V59ZM207.951 59V54.2H206.389V53.1974H207.951V52.7121C207.951 51.4694 208.602 50.9574 210.127 50.9574C210.346 50.9574 211.487 50.9787 211.61 50.9947V51.9281C211.445 51.9121 210.367 51.8961 210.154 51.8961C209.503 51.8961 209.167 52.1521 209.167 52.6481V53.1974H211.61V54.2H209.189V59H207.951ZM214.522 51.5281H215.738V53.1974H217.994V54.2H215.759V57.2027C215.759 57.72 216.127 58.008 216.789 58.008C217.002 58.008 217.845 58.0027 217.946 57.992V58.984C217.85 59 216.869 59.016 216.693 59.016C215.157 59.016 214.522 58.4933 214.522 57.1973V54.2H212.986V53.1974H214.522V51.5281ZM219.749 51.3041H222.095C224.261 51.3041 225.375 52.6001 225.375 55.112C225.375 57.688 224.271 59 222.095 59H219.749V51.3041ZM221.039 52.4294V57.8747H221.935C223.386 57.8747 224.058 57.016 224.058 55.1334C224.058 53.304 223.375 52.4294 221.935 52.4294H221.039ZM228.442 59.096C227.333 59.096 226.591 58.392 226.591 57.336C226.591 56.2907 227.349 55.672 228.746 55.5867L230.207 55.5014V55.0107C230.207 54.408 229.818 54.0667 229.135 54.0667C228.565 54.0667 228.149 54.312 228.021 54.7387H226.805C226.911 53.7307 227.855 53.0641 229.167 53.0641C230.613 53.0641 231.434 53.7734 231.434 55.0214V59H230.255V58.184H230.143C229.861 58.7653 229.237 59.096 228.442 59.096ZM228.842 58.0827C229.631 58.0827 230.207 57.576 230.207 56.872V56.3387L228.933 56.408C228.202 56.4507 227.823 56.744 227.823 57.2613C227.823 57.768 228.218 58.0827 228.842 58.0827ZM234.778 51.5281H235.994V53.1974H238.25V54.2H236.015V57.2027C236.015 57.72 236.383 58.008 237.044 58.008C237.258 58.008 238.1 58.0027 238.202 57.992V58.984C238.106 59 237.124 59.016 236.948 59.016C235.412 59.016 234.778 58.4933 234.778 57.1973V54.2H233.242V53.1974H234.778V51.5281ZM241.946 59.096C240.836 59.096 240.095 58.392 240.095 57.336C240.095 56.2907 240.852 55.672 242.25 55.5867L243.711 55.5014V55.0107C243.711 54.408 243.322 54.0667 242.639 54.0667C242.068 54.0667 241.652 54.312 241.524 54.7387H240.308C240.415 53.7307 241.359 53.0641 242.671 53.0641C244.116 53.0641 244.938 53.7734 244.938 55.0214V59H243.759V58.184H243.647C243.364 58.7653 242.74 59.096 241.946 59.096ZM242.346 58.0827C243.135 58.0827 243.711 57.576 243.711 56.872V56.3387L242.436 56.408C241.706 56.4507 241.327 56.744 241.327 57.2613C241.327 57.768 241.722 58.0827 242.346 58.0827ZM283.167 94.0107C282.569 94.0107 282.079 93.5094 282.079 92.896C282.079 92.2827 282.569 91.7867 283.167 91.7867C283.764 91.7867 284.255 92.2827 284.255 92.896C284.255 93.5094 283.764 94.0107 283.167 94.0107ZM283.167 98.0747C282.569 98.0747 282.079 97.568 282.079 96.96C282.079 96.3467 282.569 95.8507 283.167 95.8507C283.764 95.8507 284.255 96.3467 284.255 96.96C284.255 97.568 283.764 98.0747 283.167 98.0747ZM325.849 98.992H325.044C323.598 98.992 323.134 98.5333 323.134 97.1147V95.9307C323.134 95.0987 322.713 94.7094 321.508 94.7894V93.52C322.713 93.6 323.134 93.2107 323.134 92.3734V91.1894C323.134 89.7707 323.598 89.3121 325.044 89.3121H325.849V90.3041H325.31C324.537 90.3041 324.382 90.4854 324.382 91.3814V92.848C324.382 93.5787 323.844 94.064 322.836 94.1067V94.2027C323.844 94.2454 324.382 94.7254 324.382 95.4614V96.9227C324.382 97.8187 324.537 98 325.31 98H325.849V98.992ZM215.647 107.011C215.05 107.011 214.559 106.509 214.559 105.896C214.559 105.283 215.05 104.787 215.647 104.787C216.245 104.787 216.735 105.283 216.735 105.896C216.735 106.509 216.245 107.011 215.647 107.011ZM215.647 111.075C215.05 111.075 214.559 110.568 214.559 109.96C214.559 109.347 215.05 108.851 215.647 108.851C216.245 108.851 216.735 109.347 216.735 109.96C216.735 110.568 216.245 111.075 215.647 111.075ZM305.593 111.992H304.788C303.343 111.992 302.879 111.533 302.879 110.115V108.931C302.879 108.099 302.457 107.709 301.252 107.789V106.52C302.457 106.6 302.879 106.211 302.879 105.373V104.189C302.879 102.771 303.343 102.312 304.788 102.312H305.593V103.304H305.055C304.281 103.304 304.127 103.485 304.127 104.381V105.848C304.127 106.579 303.588 107.064 302.58 107.107V107.203C303.588 107.245 304.127 107.725 304.127 108.461V109.923C304.127 110.819 304.281 111 305.055 111H305.593V111.992ZM265.082 124.992H264.276C262.831 124.992 262.367 124.533 262.367 123.115V121.931C262.367 121.099 261.946 120.709 260.74 120.789V119.52C261.946 119.6 262.367 119.211 262.367 118.373V117.189C262.367 115.771 262.831 115.312 264.276 115.312H265.082V116.304H264.543C263.77 116.304 263.615 116.485 263.615 117.381V118.848C263.615 119.579 263.076 120.064 262.068 120.107V120.203C263.076 120.245 263.615 120.725 263.615 121.461V122.923C263.615 123.819 263.77 124 264.543 124H265.082V124.992ZM275.039 133.155C275.039 131.24 275.62 129.576 276.719 128.344H277.988C276.852 130.013 276.388 131.4 276.388 133.155C276.388 134.904 276.852 136.285 277.988 137.955H276.719C275.62 136.723 275.039 135.059 275.039 133.155ZM284.543 133.155C284.543 135.059 283.961 136.723 282.863 137.955H281.593C282.729 136.285 283.193 134.904 283.193 133.155C283.193 131.4 282.729 130.013 281.593 128.344H282.863C283.961 129.576 284.543 131.24 284.543 133.155ZM179.717 150.992V150H180.256C181.029 150 181.184 149.819 181.184 148.923V147.461C181.184 146.725 181.722 146.245 182.73 146.203V146.107C181.722 146.064 181.184 145.579 181.184 144.848V143.381C181.184 142.485 181.029 142.304 180.256 142.304H179.717V141.312H180.522C181.968 141.312 182.432 141.771 182.432 143.189V144.373C182.432 145.211 182.853 145.6 184.058 145.52V146.789C182.853 146.709 182.432 147.099 182.432 147.931V149.115C182.432 150.533 181.968 150.992 180.522 150.992H179.717ZM181.888 163.075C181.29 163.075 180.8 162.568 180.8 161.96C180.8 161.352 181.29 160.851 181.888 160.851C182.485 160.851 182.976 161.352 182.976 161.96C182.976 162.568 182.485 163.075 181.888 163.075ZM281.791 159.155C281.791 157.24 282.372 155.576 283.471 154.344H284.74C283.604 156.013 283.14 157.4 283.14 159.155C283.14 160.904 283.604 162.285 284.74 163.955H283.471C282.372 162.723 281.791 161.059 281.791 159.155ZM222.399 172.011C221.802 172.011 221.311 171.509 221.311 170.896C221.311 170.283 221.802 169.787 222.399 169.787C222.997 169.787 223.487 170.283 223.487 170.896C223.487 171.509 222.997 172.011 222.399 172.011ZM222.399 176.075C221.802 176.075 221.311 175.568 221.311 174.96C221.311 174.347 221.802 173.851 222.399 173.851C222.997 173.851 223.487 174.347 223.487 174.96C223.487 175.568 222.997 176.075 222.399 176.075ZM234.378 167.312H237.514V168.304H235.61V176H237.54V176.992H234.378V167.312ZM289.919 176.075C289.321 176.075 288.831 175.568 288.831 174.96C288.831 174.352 289.321 173.851 289.919 173.851C290.516 173.851 291.007 174.352 291.007 174.96C291.007 175.568 290.516 176.075 289.919 176.075ZM323.252 177.824H322.142L322.75 174.224H324.233L323.252 177.824ZM364.19 176.075C363.593 176.075 363.102 175.568 363.102 174.96C363.102 174.352 363.593 173.851 364.19 173.851C364.787 173.851 365.278 174.352 365.278 174.96C365.278 175.568 364.787 176.075 364.19 176.075ZM399.587 167.312V176.992H396.424V176H398.36V168.304H396.456V167.312H399.587ZM183.264 185.155C183.264 187.059 182.682 188.723 181.584 189.955H180.314C181.45 188.285 181.914 186.904 181.914 185.155C181.914 183.4 181.45 182.013 180.314 180.344H181.584C182.682 181.576 183.264 183.24 183.264 185.155ZM159.461 202.992V202H160C160.773 202 160.928 201.819 160.928 200.923V199.461C160.928 198.725 161.466 198.245 162.474 198.203V198.107C161.466 198.064 160.928 197.579 160.928 196.848V195.381C160.928 194.485 160.773 194.304 160 194.304H159.461V193.312H160.266C161.712 193.312 162.176 193.771 162.176 195.189V196.373C162.176 197.211 162.597 197.6 163.802 197.52V198.789C162.597 198.709 162.176 199.099 162.176 199.931V201.115C162.176 202.533 161.712 202.992 160.266 202.992H159.461ZM139.205 215.992V215H139.744C140.517 215 140.672 214.819 140.672 213.923V212.461C140.672 211.725 141.211 211.245 142.219 211.203V211.107C141.211 211.064 140.672 210.579 140.672 209.848V208.381C140.672 207.485 140.517 207.304 139.744 207.304H139.205V206.312H140.011C141.456 206.312 141.92 206.771 141.92 208.189V209.373C141.92 210.211 142.341 210.6 143.547 210.52V211.789C142.341 211.709 141.92 212.099 141.92 212.931V214.115C141.92 215.533 141.456 215.992 140.011 215.992H139.205Z" fill="white"/>
<path d="M186.901 95.2907V98H185.797V90.3041H187.168L188.602 94.864H188.682L190.106 90.3041H191.482V98H190.378V95.2907L190.517 92.1974H190.421L189.098 96.192H188.181L186.858 92.1974H186.762L186.901 95.2907ZM193.701 100.096C193.498 100.096 193.264 100.091 193.205 100.085V99.056C193.258 99.0667 193.445 99.072 193.53 99.072C194.101 99.072 194.416 98.8533 194.597 98.304L194.677 98.0427L192.581 92.1601H193.941L195.37 96.8213H195.45L196.879 92.1601H198.197L196.112 98.1333C195.605 99.6053 194.992 100.096 193.701 100.096ZM199.365 95.888H200.597C200.671 96.6293 201.269 97.0667 202.207 97.0667C203.114 97.0667 203.695 96.6133 203.695 95.904C203.695 95.3227 203.311 94.992 202.362 94.768L201.621 94.592C200.213 94.256 199.541 93.5467 199.541 92.416C199.541 91.0347 200.575 90.1494 202.191 90.1494C203.738 90.1494 204.789 91.0241 204.837 92.3574H203.61C203.541 91.6534 203.013 91.2374 202.202 91.2374C201.349 91.2374 200.831 91.6374 200.831 92.304C200.831 92.896 201.205 93.232 202.106 93.44L202.847 93.616C204.335 93.9627 204.975 94.624 204.975 95.792C204.975 97.2533 203.909 98.1547 202.186 98.1547C200.501 98.1547 199.429 97.296 199.365 95.888ZM212.106 92.1601L210.901 98H209.791L208.927 93.8187H208.869L207.999 98H206.89L205.685 92.1601H206.874L207.455 96.5067H207.61L208.362 92.1707H209.429L210.181 96.5067H210.335L210.911 92.1601H212.106ZM215.738 90.8641C215.21 90.8641 214.837 90.5174 214.837 90.0161C214.837 89.5147 215.21 89.1681 215.738 89.1681C216.271 89.1681 216.645 89.5147 216.645 90.0161C216.645 90.5174 216.271 90.8641 215.738 90.8641ZM218.218 98H213.247V97.008H215.173V93.152H213.311V92.1601H216.383V97.008H218.218V98ZM221.455 98V93.2H219.893V92.1974H221.455V91.7121C221.455 90.4694 222.106 89.9574 223.631 89.9574C223.85 89.9574 224.991 89.9787 225.114 89.9947V90.9281C224.949 90.9121 223.871 90.8961 223.658 90.8961C223.007 90.8961 222.671 91.1521 222.671 91.6481V92.1974H225.114V93.2H222.693V98H221.455ZM228.026 90.5281H229.242V92.1974H231.498V93.2H229.263V96.2027C229.263 96.72 229.631 97.008 230.293 97.008C230.506 97.008 231.349 97.0027 231.45 96.992V97.984C231.354 98 230.373 98.016 230.197 98.016C228.661 98.016 228.026 97.4933 228.026 96.1973V93.2H226.49V92.1974H228.026V90.5281ZM235.05 98H233.759V90.3041H238.49V91.4294H235.05V93.744H238.186V94.8214H235.05V98ZM245.226 98H240.255V97.008H242.17V90.8961H240.319V89.9041H243.407V97.008H245.226V98ZM249.407 98.1173C247.796 98.1173 246.778 97.1147 246.778 95.5254V94.6347C246.778 93.0454 247.796 92.0427 249.407 92.0427C251.018 92.0427 252.036 93.0454 252.036 94.6347V95.5254C252.036 97.1147 251.018 98.1173 249.407 98.1173ZM249.407 93.072C248.543 93.072 248.004 93.696 248.004 94.704V95.456C248.004 96.464 248.543 97.088 249.407 97.088C250.271 97.088 250.81 96.464 250.81 95.456V94.704C250.81 93.696 250.271 93.072 249.407 93.072ZM259.37 92.1601L258.164 98H257.055L256.191 93.8187H256.132L255.263 98H254.154L252.948 92.1601H254.138L254.719 96.5067H254.874L255.626 92.1707H256.692L257.444 96.5067H257.599L258.175 92.1601H259.37ZM264.644 98L264.09 95.9787H261.647L261.087 98H259.796L262.17 90.3041H263.652L266.026 98H264.644ZM262.847 91.6534L261.935 94.9547H263.807L262.9 91.6534H262.847ZM270.202 92.0641C271.546 92.0641 272.378 93.008 272.378 94.56V95.6C272.378 97.1573 271.546 98.1013 270.202 98.1013C269.359 98.1013 268.762 97.7173 268.543 97.0453H268.436V99.9573H267.156V92.1601H268.415V93.12H268.522C268.767 92.4374 269.359 92.0641 270.202 92.0641ZM269.759 93.152C268.927 93.152 268.41 93.7227 268.41 94.64V95.5574C268.41 96.4747 268.927 97.0453 269.759 97.0453C270.596 97.0453 271.114 96.4693 271.114 95.5574V94.64C271.114 93.7227 270.596 93.152 269.759 93.152ZM276.953 92.0641C278.297 92.0641 279.129 93.008 279.129 94.56V95.6C279.129 97.1573 278.297 98.1013 276.953 98.1013C276.111 98.1013 275.513 97.7173 275.295 97.0453H275.188V99.9573H273.908V92.1601H275.167V93.12H275.273C275.519 92.4374 276.111 92.0641 276.953 92.0641ZM276.511 93.152C275.679 93.152 275.161 93.7227 275.161 94.64V95.5574C275.161 96.4747 275.679 97.0453 276.511 97.0453C277.348 97.0453 277.865 96.4693 277.865 95.5574V94.64C277.865 93.7227 277.348 93.152 276.511 93.152ZM189.178 111.091C188.33 111.091 187.738 110.723 187.498 110.04H187.392V111H186.128V102.904H187.413V106.115H187.52C187.738 105.437 188.336 105.059 189.178 105.059C190.522 105.059 191.349 106.003 191.349 107.555V108.595C191.349 110.152 190.522 111.091 189.178 111.091ZM188.736 110.008C189.568 110.008 190.09 109.437 190.09 108.52V107.608C190.09 106.691 189.568 106.115 188.736 106.115C187.904 106.115 187.381 106.685 187.381 107.608V108.52C187.381 109.437 187.904 110.008 188.736 110.008ZM195.392 111.117C193.781 111.117 192.762 110.115 192.762 108.525V107.635C192.762 106.045 193.781 105.043 195.392 105.043C197.002 105.043 198.021 106.045 198.021 107.635V108.525C198.021 110.115 197.002 111.117 195.392 111.117ZM195.392 106.072C194.528 106.072 193.989 106.696 193.989 107.704V108.456C193.989 109.464 194.528 110.088 195.392 110.088C196.256 110.088 196.794 109.464 196.794 108.456V107.704C196.794 106.696 196.256 106.072 195.392 106.072ZM201.605 111.091C200.266 111.091 199.434 110.152 199.434 108.595V107.555C199.434 106.003 200.266 105.059 201.605 105.059C202.447 105.059 203.05 105.437 203.269 106.115H203.375V102.904H204.655V111H203.397V110.04H203.29C203.045 110.723 202.453 111.091 201.605 111.091ZM202.053 110.008C202.885 110.008 203.402 109.437 203.402 108.52V107.608C203.402 106.685 202.885 106.115 202.053 106.115C201.215 106.115 200.698 106.691 200.698 107.608V108.52C200.698 109.437 201.215 110.008 202.053 110.008ZM207.205 113.096C207.002 113.096 206.767 113.091 206.709 113.085V112.056C206.762 112.067 206.949 112.072 207.034 112.072C207.605 112.072 207.919 111.853 208.101 111.304L208.181 111.043L206.085 105.16H207.445L208.874 109.821H208.954L210.383 105.16H211.701L209.615 111.133C209.109 112.605 208.495 113.096 207.205 113.096Z" fill="#62DBFD"/>
<path d="M298.404 98L297.849 95.9787H295.407L294.847 98H293.556L295.929 90.3041H297.412L299.785 98H298.404ZM296.607 91.6534L295.695 94.9547H297.567L296.66 91.6534H296.607ZM303.961 92.0641C305.305 92.0641 306.137 93.008 306.137 94.56V95.6C306.137 97.1573 305.305 98.1013 303.961 98.1013C303.119 98.1013 302.521 97.7173 302.303 97.0453H302.196V99.9573H300.916V92.1601H302.175V93.12H302.281C302.527 92.4374 303.119 92.0641 303.961 92.0641ZM303.519 93.152C302.687 93.152 302.169 93.7227 302.169 94.64V95.5574C302.169 96.4747 302.687 97.0453 303.519 97.0453C304.356 97.0453 304.873 96.4693 304.873 95.5574V94.64C304.873 93.7227 304.356 93.152 303.519 93.152ZM310.713 92.0641C312.057 92.0641 312.889 93.008 312.889 94.56V95.6C312.889 97.1573 312.057 98.1013 310.713 98.1013C309.871 98.1013 309.273 97.7173 309.055 97.0453H308.948V99.9573H307.668V92.1601H308.927V93.12H309.033C309.279 92.4374 309.871 92.0641 310.713 92.0641ZM310.271 93.152C309.439 93.152 308.921 93.7227 308.921 94.64V95.5574C308.921 96.4747 309.439 97.0453 310.271 97.0453C311.108 97.0453 311.625 96.4693 311.625 95.5574V94.64C311.625 93.7227 311.108 93.152 310.271 93.152ZM260.132 108.888H261.364C261.439 109.629 262.036 110.067 262.975 110.067C263.882 110.067 264.463 109.613 264.463 108.904C264.463 108.323 264.079 107.992 263.13 107.768L262.388 107.592C260.98 107.256 260.308 106.547 260.308 105.416C260.308 104.035 261.343 103.149 262.959 103.149C264.506 103.149 265.556 104.024 265.604 105.357H264.378C264.308 104.653 263.78 104.237 262.97 104.237C262.116 104.237 261.599 104.637 261.599 105.304C261.599 105.896 261.972 106.232 262.874 106.44L263.615 106.616C265.103 106.963 265.743 107.624 265.743 108.792C265.743 110.253 264.676 111.155 262.954 111.155C261.268 111.155 260.196 110.296 260.132 108.888ZM272.223 107.107H271.007C270.906 106.44 270.442 106.072 269.764 106.072C268.89 106.072 268.41 106.701 268.41 107.848V108.296C268.41 109.443 268.89 110.072 269.764 110.072C270.447 110.072 270.9 109.72 271.007 109.075H272.223C272.09 110.381 271.199 111.117 269.775 111.117C268.106 111.117 267.162 110.147 267.162 108.408V107.736C267.162 106.003 268.106 105.027 269.775 105.027C271.204 105.027 272.084 105.768 272.223 107.107ZM277.801 109.416H278.98C278.841 110.419 277.849 111.117 276.543 111.117C274.879 111.117 273.919 110.163 273.919 108.499V107.587C273.919 106.056 274.948 105.043 276.5 105.043C278.036 105.043 278.991 106.051 278.991 107.672V108.381H275.14V108.664C275.14 109.555 275.689 110.131 276.537 110.131C277.183 110.131 277.679 109.848 277.801 109.416ZM276.479 106.024C275.641 106.024 275.14 106.595 275.14 107.549H277.785C277.785 106.6 277.295 106.024 276.479 106.024ZM280.644 111V105.16H281.844V106.157H281.929C282.228 105.443 282.873 105.043 283.732 105.043C285.001 105.043 285.689 105.8 285.689 107.213V111H284.447V107.517C284.447 106.579 284.063 106.131 283.263 106.131C282.431 106.131 281.887 106.712 281.887 107.597V111H280.644ZM291.305 109.416H292.484C292.345 110.419 291.353 111.117 290.047 111.117C288.383 111.117 287.423 110.163 287.423 108.499V107.587C287.423 106.056 288.452 105.043 290.004 105.043C291.54 105.043 292.495 106.051 292.495 107.672V108.381H288.644V108.664C288.644 109.555 289.193 110.131 290.041 110.131C290.687 110.131 291.183 109.848 291.305 109.416ZM289.983 106.024C289.145 106.024 288.644 106.595 288.644 107.549H291.289C291.289 106.6 290.799 106.024 289.983 106.024ZM181.925 119.365H181.85L180.912 124H179.76L178.512 116.304H179.696L180.069 119.136L180.432 122.245H180.506L181.365 118.064H182.41L183.269 122.245H183.344L183.706 119.136L184.08 116.304H185.264L184.016 124H182.864L181.925 119.365ZM188.73 116.864C188.202 116.864 187.829 116.517 187.829 116.016C187.829 115.515 188.202 115.168 188.73 115.168C189.264 115.168 189.637 115.515 189.637 116.016C189.637 116.517 189.264 116.864 188.73 116.864ZM191.21 124H186.24V123.008H188.165V119.152H186.304V118.16H189.376V123.008H191.21V124ZM192.869 124V118.16H194.069V119.157H194.154C194.453 118.443 195.098 118.043 195.957 118.043C197.226 118.043 197.914 118.8 197.914 120.213V124H196.671V120.517C196.671 119.579 196.288 119.131 195.488 119.131C194.656 119.131 194.112 119.712 194.112 120.597V124H192.869ZM201.605 124.091C200.266 124.091 199.434 123.152 199.434 121.595V120.555C199.434 119.003 200.266 118.059 201.605 118.059C202.447 118.059 203.05 118.437 203.269 119.115H203.375V115.904H204.655V124H203.397V123.04H203.29C203.045 123.723 202.453 124.091 201.605 124.091ZM202.053 123.008C202.885 123.008 203.402 122.437 203.402 121.52V120.608C203.402 119.685 202.885 119.115 202.053 119.115C201.215 119.115 200.698 119.691 200.698 120.608V121.52C200.698 122.437 201.215 123.008 202.053 123.008ZM208.895 124.117C207.285 124.117 206.266 123.115 206.266 121.525V120.635C206.266 119.045 207.285 118.043 208.895 118.043C210.506 118.043 211.525 119.045 211.525 120.635V121.525C211.525 123.115 210.506 124.117 208.895 124.117ZM208.895 119.072C208.031 119.072 207.493 119.696 207.493 120.704V121.456C207.493 122.464 208.031 123.088 208.895 123.088C209.759 123.088 210.298 122.464 210.298 121.456V120.704C210.298 119.696 209.759 119.072 208.895 119.072ZM218.858 118.16L217.653 124H216.543L215.679 119.819H215.621L214.751 124H213.642L212.437 118.16H213.626L214.207 122.507H214.362L215.114 118.171H216.181L216.933 122.507H217.087L217.663 118.16H218.858ZM223.983 121.547V120.981H222.415V119.984H225.29V121.595C225.29 123.136 224.181 124.155 222.538 124.155C220.677 124.155 219.594 122.96 219.594 120.896V119.408C219.594 117.344 220.677 116.149 222.538 116.149C224.202 116.149 225.247 117.152 225.285 118.789H223.983C223.941 117.899 223.354 117.312 222.511 117.312C221.45 117.312 220.901 118.027 220.901 119.408V120.896C220.901 122.277 221.455 122.992 222.527 122.992C223.429 122.992 223.983 122.448 223.983 121.547ZM228.991 121.397V123.072H230.73V124H226.661V123.072H227.797V119.088H226.549V118.16H228.997V119.653H229.178C229.418 118.528 230.069 118.005 231.178 118.005C231.509 118.005 231.813 118.048 232.015 118.128V119.477C231.754 119.376 231.37 119.312 231.05 119.312C229.701 119.312 228.991 120.048 228.991 121.397ZM235.903 124.117C234.293 124.117 233.274 123.115 233.274 121.525V120.635C233.274 119.045 234.293 118.043 235.903 118.043C237.514 118.043 238.532 119.045 238.532 120.635V121.525C238.532 123.115 237.514 124.117 235.903 124.117ZM235.903 119.072C235.039 119.072 234.501 119.696 234.501 120.704V121.456C234.501 122.464 235.039 123.088 235.903 123.088C236.767 123.088 237.306 122.464 237.306 121.456V120.704C237.306 119.696 236.767 119.072 235.903 119.072ZM245.178 118.16V124H243.978V123.003H243.892C243.594 123.717 242.948 124.117 242.09 124.117C240.82 124.117 240.132 123.36 240.132 121.941V118.16H241.375V121.643C241.375 122.581 241.759 123.024 242.559 123.024C243.391 123.024 243.935 122.448 243.935 121.563V118.16H245.178ZM249.946 118.064C251.29 118.064 252.122 119.008 252.122 120.56V121.6C252.122 123.157 251.29 124.101 249.946 124.101C249.103 124.101 248.506 123.717 248.287 123.045H248.18V125.957H246.9V118.16H248.159V119.12H248.266C248.511 118.437 249.103 118.064 249.946 118.064ZM249.503 119.152C248.671 119.152 248.154 119.723 248.154 120.64V121.557C248.154 122.475 248.671 123.045 249.503 123.045C250.34 123.045 250.858 122.469 250.858 121.557V120.64C250.858 119.723 250.34 119.152 249.503 119.152ZM337.828 176H336.537V169.429H334.286V168.304H340.078V169.429H337.828V176ZM343.225 176.096C342.116 176.096 341.374 175.392 341.374 174.336C341.374 173.291 342.132 172.672 343.529 172.587L344.99 172.501V172.011C344.99 171.408 344.601 171.067 343.918 171.067C343.348 171.067 342.932 171.312 342.804 171.739H341.588C341.694 170.731 342.638 170.064 343.95 170.064C345.396 170.064 346.217 170.773 346.217 172.021V176H345.038V175.184H344.926C344.644 175.765 344.02 176.096 343.225 176.096ZM343.625 175.083C344.414 175.083 344.99 174.576 344.99 173.872V173.339L343.716 173.408C342.985 173.451 342.606 173.744 342.606 174.261C342.606 174.768 343.001 175.083 343.625 175.083ZM348.414 171.813C348.414 170.725 349.31 170.032 350.692 170.032C352.03 170.032 352.878 170.651 352.958 171.701H351.785C351.7 171.264 351.278 170.992 350.676 170.992C350.052 170.992 349.641 171.28 349.641 171.717C349.641 172.091 349.908 172.304 350.542 172.443L351.412 172.629C352.579 172.88 353.097 173.376 353.097 174.251C353.097 175.387 352.164 176.117 350.697 176.117C349.268 176.117 348.361 175.483 348.276 174.427H349.508C349.614 174.885 350.057 175.147 350.718 175.147C351.396 175.147 351.822 174.848 351.822 174.395C351.822 174.011 351.577 173.813 350.91 173.669L350.036 173.477C348.958 173.237 348.414 172.683 348.414 171.813ZM356.595 172.619L358.835 170.16H360.281L358.078 172.539L360.43 176H358.985L357.171 173.333L356.515 173.984V176H355.278V167.904H356.515V172.619H356.595Z" fill="#D4B4FC"/>
<path d="M202.314 135.992C203.205 135.992 203.759 135.416 203.775 134.477H205.082C205.082 136.115 203.999 137.155 202.319 137.155C200.453 137.155 199.359 135.955 199.359 133.896V132.408C199.359 130.349 200.453 129.149 202.319 129.149C204.031 129.149 205.061 130.179 205.082 131.923H203.775C203.754 130.952 203.162 130.312 202.298 130.312C201.247 130.312 200.693 131.032 200.693 132.408V133.896C200.693 135.272 201.247 135.992 202.314 135.992ZM208.895 137.117C207.285 137.117 206.266 136.115 206.266 134.525V133.635C206.266 132.045 207.285 131.043 208.895 131.043C210.506 131.043 211.525 132.045 211.525 133.635V134.525C211.525 136.115 210.506 137.117 208.895 137.117ZM208.895 132.072C208.031 132.072 207.493 132.696 207.493 133.704V134.456C207.493 135.464 208.031 136.088 208.895 136.088C209.759 136.088 210.298 135.464 210.298 134.456V133.704C210.298 132.696 209.759 132.072 208.895 132.072ZM213.125 137V131.16H214.325V132.157H214.41C214.709 131.443 215.354 131.043 216.213 131.043C217.482 131.043 218.17 131.8 218.17 133.213V137H216.927V133.517C216.927 132.579 216.543 132.131 215.743 132.131C214.911 132.131 214.367 132.712 214.367 133.597V137H213.125ZM221.274 129.528H222.49V131.197H224.746V132.2H222.511V135.203C222.511 135.72 222.879 136.008 223.541 136.008C223.754 136.008 224.597 136.003 224.698 135.992V136.984C224.602 137 223.621 137.016 223.445 137.016C221.909 137.016 221.274 136.493 221.274 135.197V132.2H219.738V131.197H221.274V129.528ZM230.538 135.416H231.717C231.578 136.419 230.586 137.117 229.279 137.117C227.615 137.117 226.655 136.163 226.655 134.499V133.587C226.655 132.056 227.685 131.043 229.237 131.043C230.773 131.043 231.727 132.051 231.727 133.672V134.381H227.877V134.664C227.877 135.555 228.426 136.131 229.274 136.131C229.919 136.131 230.415 135.848 230.538 135.416ZM229.215 132.024C228.378 132.024 227.877 132.595 227.877 133.549H230.522C230.522 132.6 230.031 132.024 229.215 132.024ZM233.381 137V131.16H234.581V132.157H234.666C234.965 131.443 235.61 131.043 236.468 131.043C237.738 131.043 238.426 131.8 238.426 133.213V137H237.183V133.517C237.183 132.579 236.799 132.131 235.999 132.131C235.167 132.131 234.623 132.712 234.623 133.597V137H233.381ZM241.53 129.528H242.746V131.197H245.002V132.2H242.767V135.203C242.767 135.72 243.135 136.008 243.796 136.008C244.01 136.008 244.852 136.003 244.954 135.992V136.984C244.858 137 243.876 137.016 243.7 137.016C242.164 137.016 241.53 136.493 241.53 135.197V132.2H239.994V131.197H241.53V129.528ZM249.471 135.651L251.231 129.304H252.522L250.148 137H248.666L246.292 129.304H247.668L249.418 135.651H249.471ZM256.25 129.864C255.722 129.864 255.348 129.517 255.348 129.016C255.348 128.515 255.722 128.168 256.25 128.168C256.783 128.168 257.156 128.515 257.156 129.016C257.156 129.517 256.783 129.864 256.25 129.864ZM258.73 137H253.759V136.008H255.684V132.152H253.823V131.16H256.895V136.008H258.73V137ZM264.298 135.416H265.476C265.338 136.419 264.346 137.117 263.039 137.117C261.375 137.117 260.415 136.163 260.415 134.499V133.587C260.415 132.056 261.444 131.043 262.996 131.043C264.532 131.043 265.487 132.051 265.487 133.672V134.381H261.636V134.664C261.636 135.555 262.186 136.131 263.034 136.131C263.679 136.131 264.175 135.848 264.298 135.416ZM262.975 132.024C262.138 132.024 261.636 132.595 261.636 133.549H264.282C264.282 132.6 263.791 132.024 262.975 132.024ZM272.874 131.16L271.668 137H270.559L269.695 132.819H269.636L268.767 137H267.658L266.452 131.16H267.642L268.223 135.507H268.378L269.13 131.171H270.196L270.948 135.507H271.103L271.679 131.16H272.874ZM240.175 168.304H242.89C244.458 168.304 245.466 169.307 245.466 170.869C245.466 172.421 244.436 173.424 242.836 173.424H241.466V176H240.175V168.304ZM241.466 169.381V172.347H242.57C243.61 172.347 244.159 171.84 244.159 170.864C244.159 169.888 243.61 169.381 242.57 169.381H241.466ZM249.247 173.397V175.072H250.986V176H246.916V175.072H248.052V171.088H246.804V170.16H249.252V171.653H249.434C249.674 170.528 250.324 170.005 251.434 170.005C251.764 170.005 252.068 170.048 252.271 170.128V171.477C252.01 171.376 251.626 171.312 251.306 171.312C249.956 171.312 249.247 172.048 249.247 173.397ZM256.159 176.117C254.548 176.117 253.53 175.115 253.53 173.525V172.635C253.53 171.045 254.548 170.043 256.159 170.043C257.77 170.043 258.788 171.045 258.788 172.635V173.525C258.788 175.115 257.77 176.117 256.159 176.117ZM256.159 171.072C255.295 171.072 254.756 171.696 254.756 172.704V173.456C254.756 174.464 255.295 175.088 256.159 175.088C257.023 175.088 257.562 174.464 257.562 173.456V172.704C257.562 171.696 257.023 171.072 256.159 171.072ZM263.615 168.864C263.082 168.864 262.708 168.517 262.708 168.016C262.708 167.515 263.082 167.168 263.615 167.168C264.143 167.168 264.516 167.515 264.516 168.016C264.516 168.517 264.143 168.864 263.615 168.864ZM264.298 170.16V175.851C264.298 177.301 263.642 177.851 261.956 177.851C261.695 177.851 260.74 177.84 260.49 177.824V176.736C260.671 176.752 261.684 176.763 261.914 176.763C262.788 176.763 263.087 176.512 263.087 175.813V171.152H260.575V170.16H264.298ZM271.05 174.416H272.228C272.09 175.419 271.098 176.117 269.791 176.117C268.127 176.117 267.167 175.163 267.167 173.499V172.587C267.167 171.056 268.196 170.043 269.748 170.043C271.284 170.043 272.239 171.051 272.239 172.672V173.381H268.388V173.664C268.388 174.555 268.938 175.131 269.786 175.131C270.431 175.131 270.927 174.848 271.05 174.416ZM269.727 171.024C268.89 171.024 268.388 171.595 268.388 172.549H271.034C271.034 171.6 270.543 171.024 269.727 171.024ZM278.975 172.107H277.759C277.657 171.44 277.193 171.072 276.516 171.072C275.641 171.072 275.161 171.701 275.161 172.848V173.296C275.161 174.443 275.641 175.072 276.516 175.072C277.199 175.072 277.652 174.72 277.759 174.075H278.975C278.841 175.381 277.951 176.117 276.527 176.117C274.857 176.117 273.914 175.147 273.914 173.408V172.736C273.914 171.003 274.857 170.027 276.527 170.027C277.956 170.027 278.836 170.768 278.975 172.107ZM282.041 168.528H283.257V170.197H285.513V171.2H283.279V174.203C283.279 174.72 283.647 175.008 284.308 175.008C284.521 175.008 285.364 175.003 285.465 174.992V175.984C285.369 176 284.388 176.016 284.212 176.016C282.676 176.016 282.041 175.493 282.041 174.197V171.2H280.505V170.197H282.041V168.528Z" fill="#9CE3D5"/>
<path d="M191.536 158.563V163H190.469V158.957C190.469 158.424 190.24 158.12 189.845 158.12C189.434 158.12 189.178 158.467 189.178 159.016V163H188.117V158.957C188.117 158.419 187.893 158.12 187.493 158.12C187.077 158.12 186.81 158.467 186.81 159.016V163H185.744V157.16H186.832V158.035H186.965C187.098 157.4 187.509 157.043 188.069 157.043C188.613 157.043 188.986 157.389 189.109 158.003H189.242C189.376 157.405 189.808 157.043 190.378 157.043C191.136 157.043 191.536 157.571 191.536 158.563ZM195.392 163.117C193.781 163.117 192.762 162.115 192.762 160.525V159.635C192.762 158.045 193.781 157.043 195.392 157.043C197.002 157.043 198.021 158.045 198.021 159.635V160.525C198.021 162.115 197.002 163.117 195.392 163.117ZM195.392 158.072C194.528 158.072 193.989 158.696 193.989 159.704V160.456C193.989 161.464 194.528 162.088 195.392 162.088C196.256 162.088 196.794 161.464 196.794 160.456V159.704C196.794 158.696 196.256 158.072 195.392 158.072ZM201.605 163.091C200.266 163.091 199.434 162.152 199.434 160.595V159.555C199.434 158.003 200.266 157.059 201.605 157.059C202.447 157.059 203.05 157.437 203.269 158.115H203.375V154.904H204.655V163H203.397V162.04H203.29C203.045 162.723 202.453 163.091 201.605 163.091ZM202.053 162.008C202.885 162.008 203.402 161.437 203.402 160.52V159.608C203.402 158.685 202.885 158.115 202.053 158.115C201.215 158.115 200.698 158.691 200.698 159.608V160.52C200.698 161.437 201.215 162.008 202.053 162.008ZM210.282 161.416H211.461C211.322 162.419 210.33 163.117 209.023 163.117C207.359 163.117 206.399 162.163 206.399 160.499V159.587C206.399 158.056 207.429 157.043 208.981 157.043C210.517 157.043 211.471 158.051 211.471 159.672V160.381H207.621V160.664C207.621 161.555 208.17 162.131 209.018 162.131C209.663 162.131 210.159 161.848 210.282 161.416ZM208.959 158.024C208.122 158.024 207.621 158.595 207.621 159.549H210.266C210.266 158.6 209.775 158.024 208.959 158.024ZM218.218 163H213.247V162.008H215.162V155.896H213.311V154.904H216.399V162.008H218.218V163ZM222.57 161.992C223.461 161.992 224.015 161.416 224.031 160.477H225.338C225.338 162.115 224.255 163.155 222.575 163.155C220.709 163.155 219.615 161.955 219.615 159.896V158.408C219.615 156.349 220.709 155.149 222.575 155.149C224.287 155.149 225.317 156.179 225.338 157.923H224.031C224.01 156.952 223.418 156.312 222.554 156.312C221.503 156.312 220.949 157.032 220.949 158.408V159.896C220.949 161.272 221.503 161.992 222.57 161.992ZM229.151 163.117C227.541 163.117 226.522 162.115 226.522 160.525V159.635C226.522 158.045 227.541 157.043 229.151 157.043C230.762 157.043 231.781 158.045 231.781 159.635V160.525C231.781 162.115 230.762 163.117 229.151 163.117ZM229.151 158.072C228.287 158.072 227.749 158.696 227.749 159.704V160.456C227.749 161.464 228.287 162.088 229.151 162.088C230.015 162.088 230.554 161.464 230.554 160.456V159.704C230.554 158.696 230.015 158.072 229.151 158.072ZM233.381 163V157.16H234.581V158.157H234.666C234.965 157.443 235.61 157.043 236.468 157.043C237.738 157.043 238.426 157.8 238.426 159.213V163H237.183V159.517C237.183 158.579 236.799 158.131 235.999 158.131C235.167 158.131 234.623 158.712 234.623 159.597V163H233.381ZM241.53 155.528H242.746V157.197H245.002V158.2H242.767V161.203C242.767 161.72 243.135 162.008 243.796 162.008C244.01 162.008 244.852 162.003 244.954 161.992V162.984C244.858 163 243.876 163.016 243.7 163.016C242.164 163.016 241.53 162.493 241.53 161.197V158.2H239.994V157.197H241.53V155.528ZM248.698 163.096C247.588 163.096 246.847 162.392 246.847 161.336C246.847 160.291 247.604 159.672 249.002 159.587L250.463 159.501V159.011C250.463 158.408 250.074 158.067 249.391 158.067C248.82 158.067 248.404 158.312 248.276 158.739H247.06C247.167 157.731 248.111 157.064 249.423 157.064C250.868 157.064 251.69 157.773 251.69 159.021V163H250.511V162.184H250.399C250.116 162.765 249.492 163.096 248.698 163.096ZM249.098 162.083C249.887 162.083 250.463 161.576 250.463 160.872V160.339L249.188 160.408C248.458 160.451 248.079 160.744 248.079 161.261C248.079 161.768 248.474 162.083 249.098 162.083ZM256.25 155.864C255.722 155.864 255.348 155.517 255.348 155.016C255.348 154.515 255.722 154.168 256.25 154.168C256.783 154.168 257.156 154.515 257.156 155.016C257.156 155.517 256.783 155.864 256.25 155.864ZM258.73 163H253.759V162.008H255.684V158.152H253.823V157.16H256.895V162.008H258.73V163ZM260.388 163V157.16H261.588V158.157H261.674C261.972 157.443 262.618 157.043 263.476 157.043C264.746 157.043 265.434 157.8 265.434 159.213V163H264.191V159.517C264.191 158.579 263.807 158.131 263.007 158.131C262.175 158.131 261.631 158.712 261.631 159.597V163H260.388ZM271.05 161.416H272.228C272.09 162.419 271.098 163.117 269.791 163.117C268.127 163.117 267.167 162.163 267.167 160.499V159.587C267.167 158.056 268.196 157.043 269.748 157.043C271.284 157.043 272.239 158.051 272.239 159.672V160.381H268.388V160.664C268.388 161.555 268.938 162.131 269.786 162.131C270.431 162.131 270.927 161.848 271.05 161.416ZM269.727 158.024C268.89 158.024 268.388 158.595 268.388 159.549H271.034C271.034 158.6 270.543 158.024 269.727 158.024ZM276.255 160.397V162.072H277.993V163H273.924V162.072H275.06V158.088H273.812V157.16H276.26V158.653H276.441C276.681 157.528 277.332 157.005 278.441 157.005C278.772 157.005 279.076 157.048 279.279 157.128V158.477C279.017 158.376 278.633 158.312 278.313 158.312C276.964 158.312 276.255 159.048 276.255 160.397ZM201.199 176V171.2H199.637V170.197H201.199V169.712C201.199 168.469 201.85 167.957 203.375 167.957C203.594 167.957 204.735 167.979 204.858 167.995V168.928C204.693 168.912 203.615 168.896 203.402 168.896C202.751 168.896 202.415 169.152 202.415 169.648V170.197H204.858V171.2H202.437V176H201.199ZM208.895 176.117C207.285 176.117 206.266 175.115 206.266 173.525V172.635C206.266 171.045 207.285 170.043 208.895 170.043C210.506 170.043 211.525 171.045 211.525 172.635V173.525C211.525 175.115 210.506 176.117 208.895 176.117ZM208.895 171.072C208.031 171.072 207.493 171.696 207.493 172.704V173.456C207.493 174.464 208.031 175.088 208.895 175.088C209.759 175.088 210.298 174.464 210.298 173.456V172.704C210.298 171.696 209.759 171.072 208.895 171.072ZM215.487 173.397V175.072H217.226V176H213.157V175.072H214.293V171.088H213.045V170.16H215.493V171.653H215.674C215.914 170.528 216.565 170.005 217.674 170.005C218.005 170.005 218.309 170.048 218.511 170.128V171.477C218.25 171.376 217.866 171.312 217.546 171.312C216.197 171.312 215.487 172.048 215.487 173.397Z" fill="#A779E4"/>
</svg>
