<svg width="540" height="254" viewBox="0 0 540 254" fill="none" xmlns="http://www.w3.org/2000/svg">
<path d="M185.662 35.1917C184.621 35.1917 184.097 34.6741 184.097 33.6389V31.0132C184.097 29.978 184.621 29.4605 185.662 29.4605H191.463C192.504 29.4605 193.028 29.978 193.028 31.0132V33.6389C193.028 34.6741 192.504 35.1917 191.463 35.1917H185.662ZM196.475 40.5C195.439 40.5 194.915 39.9887 194.915 38.9473V31.96C194.915 30.9248 195.439 30.4136 196.475 30.4136H200.527C201.568 30.4136 202.092 30.9248 202.092 31.96V38.9473C202.092 39.9887 201.568 40.5 200.527 40.5H196.475ZM185.814 34.005H191.305C191.659 34.005 191.842 33.822 191.842 33.4622V31.1899C191.842 30.8238 191.659 30.6471 191.305 30.6471H185.814C185.467 30.6471 185.283 30.8238 185.283 31.1899V33.4622C185.283 33.822 185.467 34.005 185.814 34.005ZM196.626 39.3197H200.369C200.722 39.3197 200.906 39.1366 200.906 38.7769V32.1367C200.906 31.7706 200.722 31.5939 200.369 31.5939H196.626C196.285 31.5939 196.096 31.7706 196.096 32.1367V38.7769C196.096 39.1366 196.285 39.3197 196.626 39.3197ZM187.246 41.3143C186.205 41.3143 185.681 40.803 185.681 39.7615V37.9816C185.681 36.9464 186.205 36.4351 187.246 36.4351H192.17C193.205 36.4351 193.735 36.9464 193.735 37.9816V39.7615C193.735 40.803 193.205 41.3143 192.17 41.3143H187.246ZM187.398 40.1339H192.012C192.359 40.1339 192.549 39.9509 192.549 39.5911V38.1583C192.549 37.7985 192.359 37.6218 192.012 37.6218H187.398C187.051 37.6218 186.868 37.7985 186.868 38.1583V39.5911C186.868 39.9509 187.051 40.1339 187.398 40.1339Z" fill="#007AFF"/>
<path d="M210.092 39.9635L206.847 30.8554H208.368L210.855 38.3918H210.887L213.374 30.8554H214.895L211.651 39.9635H210.092ZM216.315 32.3008C215.873 32.3008 215.52 31.9474 215.52 31.5181C215.52 31.0826 215.873 30.7292 216.315 30.7292C216.763 30.7292 217.11 31.0826 217.11 31.5181C217.11 31.9474 216.763 32.3008 216.315 32.3008ZM215.633 39.9635V33.3234H216.997V39.9635H215.633ZM221.238 40.0961C219.288 40.0961 218.108 38.7642 218.108 36.6687V36.6624C218.108 34.5857 219.307 33.1971 221.169 33.1971C223.031 33.1971 224.173 34.5352 224.173 36.5298V36.9906H219.471C219.496 38.2467 220.184 38.9788 221.27 38.9788C222.078 38.9788 222.614 38.5623 222.785 38.0636L222.804 38.0131H224.098L224.085 38.0825C223.87 39.1366 222.848 40.0961 221.238 40.0961ZM221.175 34.3143C220.292 34.3143 219.61 34.914 219.49 36.0249H222.823C222.709 34.8761 222.065 34.3143 221.175 34.3143ZM226.528 39.9635L224.704 33.3234H226.067L227.279 38.5496H227.304L228.686 33.3234H229.999L231.388 38.5496H231.42L232.631 33.3234H233.982L232.164 39.9635H230.744L229.349 34.9897H229.318L227.935 39.9635H226.528ZM237.29 40.0961C235.63 40.0961 234.658 39.2755 234.519 38.0636L234.512 38.0068H235.863L235.876 38.0699C236.002 38.6822 236.456 39.042 237.296 39.042C238.117 39.042 238.609 38.7011 238.609 38.1646V38.1583C238.609 37.7291 238.369 37.4829 237.656 37.3125L236.57 37.0663C235.308 36.776 234.683 36.17 234.683 35.2043V35.198C234.683 34.0114 235.718 33.1971 237.245 33.1971C238.817 33.1971 239.764 34.0745 239.833 35.2043L239.84 35.2801H238.558L238.552 35.2359C238.47 34.6552 238.016 34.2512 237.245 34.2512C236.513 34.2512 236.053 34.5984 236.053 35.1286V35.1349C236.053 35.5452 236.324 35.8229 237.037 35.9933L238.117 36.2395C239.474 36.5551 239.991 37.0916 239.991 38.0447V38.051C239.991 39.2629 238.855 40.0961 237.29 40.0961Z" fill="#1D1D1F"/>
<path d="M352.402 38.2477C352.221 38.2477 352.071 38.177 351.925 38.0356L348.603 34.6335C348.492 34.5186 348.43 34.3817 348.43 34.2182C348.43 33.8868 348.695 33.6173 349.022 33.6173C349.19 33.6173 349.34 33.688 349.46 33.8073L352.407 36.8294L355.345 33.8073C355.464 33.688 355.619 33.6173 355.778 33.6173C356.109 33.6173 356.374 33.8868 356.374 34.2182C356.374 34.3817 356.317 34.5186 356.202 34.6335L352.88 38.0312C352.738 38.177 352.583 38.2477 352.402 38.2477Z" fill="#007AFF"/>
<rect x="176.927" y="53.3049" width="186.146" height="25.3415" rx="5.17073" fill="#F5F5F7"/>
<path d="M188.648 67.692C189.81 68.6325 191.943 69.4783 193.685 69.4783C195.118 69.4783 195.957 69.1185 196.778 68.6641C193.919 66.3665 191.76 63.9238 190.049 61.4432C191.836 63.0401 193.748 64.4919 195.8 65.7858C194.278 64.0942 192.896 62.4784 191.735 60.6921C193.18 62.2385 196.81 65.2556 198.697 66.3476C198.874 65.9184 199.088 65.06 199.088 64.271C199.088 62.1123 198.116 60.5595 197.39 59.537C200.868 61.6263 201.922 64.8769 201.922 66.7452C201.922 67.1555 201.903 67.8561 201.676 68.4873C202.705 69.775 202.888 70.9553 202.888 71.5739C202.888 71.7885 202.856 71.9652 202.825 72.1041C202.768 72.2934 202.68 72.2303 202.629 72.1293C202.452 71.82 201.992 71.0373 200.824 71.0373C199.416 71.0373 198.754 72.1609 196.336 72.1609C192.543 72.1609 189.728 69.4531 188.648 67.692Z" fill="#FF9500"/>
<path d="M207.693 70.4756V61.3675H209.328L212.275 68.6388H212.313L215.267 61.3675H216.896V70.4756H215.608V63.7534H215.564L212.818 70.4756H211.771L209.025 63.7534H208.981V70.4756H207.693ZM219.193 72.6911C218.928 72.6911 218.644 72.6595 218.48 72.628V71.5612C218.587 71.5865 218.745 71.6117 218.928 71.6117C219.572 71.6117 219.926 71.4413 220.153 70.7975L220.266 70.4819L217.849 63.8354H219.326L220.999 69.2384H221.043L222.715 63.8354H224.155L221.68 70.7849C221.188 72.1609 220.494 72.6911 219.193 72.6911ZM223.896 70.4756L227.209 61.3675H228.737L232.044 70.4756H230.561L229.728 68.0139H226.219L225.379 70.4756H223.896ZM227.961 62.876L226.597 66.8778H229.343L227.986 62.876H227.961ZM232.89 72.6848V63.8354H234.254V64.9779H234.285C234.683 64.1889 235.415 63.7092 236.362 63.7092C238.053 63.7092 239.139 65.0347 239.139 67.1555V67.1618C239.139 69.2763 238.047 70.6081 236.381 70.6081C235.44 70.6081 234.676 70.1284 234.285 69.3584H234.254V72.6848H232.89ZM236.008 69.4341C237.081 69.4341 237.75 68.5631 237.75 67.1618V67.1555C237.75 65.7416 237.075 64.8769 236.008 64.8769C234.973 64.8769 234.247 65.7732 234.247 67.1555V67.1618C234.247 68.5378 234.979 69.4341 236.008 69.4341ZM240.199 72.6848V63.8354H241.563V64.9779H241.594C241.992 64.1889 242.724 63.7092 243.671 63.7092C245.363 63.7092 246.448 65.0347 246.448 67.1555V67.1618C246.448 69.2763 245.356 70.6081 243.69 70.6081C242.749 70.6081 241.986 70.1284 241.594 69.3584H241.563V72.6848H240.199ZM243.318 69.4341C244.391 69.4341 245.06 68.5631 245.06 67.1618V67.1555C245.06 65.7416 244.384 64.8769 243.318 64.8769C242.282 64.8769 241.556 65.7732 241.556 67.1555V67.1618C241.556 68.5378 242.289 69.4341 243.318 69.4341Z" fill="#1D1D1F"/>
<path d="M191.105 102.25C189.742 102.25 189.035 101.55 189.035 100.199V92.5046C189.035 91.1791 189.729 90.4911 190.909 90.4911H192.696C193.352 90.4911 193.68 90.611 194.122 90.9771L194.488 91.2674C194.835 91.5515 195.1 91.6588 195.555 91.6588H201.425C202.788 91.6588 203.495 92.3594 203.495 93.7101V100.199C203.495 101.55 202.795 102.25 201.589 102.25H191.105ZM190.272 92.6119V94.1835H202.258V93.8174C202.258 93.1989 201.936 92.8959 201.355 92.8959H195.227C194.57 92.8959 194.229 92.776 193.794 92.4162L193.428 92.1195C193.074 91.8292 192.815 91.7282 192.367 91.7282H191.155C190.587 91.7282 190.272 92.0312 190.272 92.6119ZM191.181 101.013H201.355C201.936 101.013 202.258 100.71 202.258 100.098V95.2755H190.272V100.098C190.272 100.71 190.594 101.013 191.181 101.013Z" fill="#007AFF"/>
<path d="M212.587 101.139C210.006 101.139 208.365 99.3214 208.365 96.4306V96.4243C208.365 93.5334 210.006 91.7282 212.587 91.7282C214.595 91.7282 216.103 92.9653 216.387 94.7642L216.4 94.821H214.999L214.961 94.6948C214.658 93.6281 213.812 92.978 212.587 92.978C210.896 92.978 209.81 94.3161 209.81 96.4243V96.4306C209.81 98.5388 210.902 99.8895 212.587 99.8895C213.799 99.8895 214.639 99.2583 214.98 98.1032L214.999 98.0464H216.4L216.394 98.1096C216.11 99.9211 214.601 101.139 212.587 101.139ZM220.37 101.12C218.464 101.12 217.22 99.8012 217.22 97.6677V97.6551C217.22 95.5343 218.476 94.2214 220.364 94.2214C222.257 94.2214 223.52 95.528 223.52 97.6551V97.6677C223.52 99.8075 222.27 101.12 220.37 101.12ZM220.376 99.9779C221.443 99.9779 222.125 99.1321 222.125 97.6677V97.6551C222.125 96.2034 221.43 95.3639 220.364 95.3639C219.316 95.3639 218.615 96.2034 218.615 97.6551V97.6677C218.615 99.1384 219.31 99.9779 220.376 99.9779ZM224.574 100.988V94.3476H225.937V95.3765H225.969C226.253 94.6822 226.928 94.2214 227.799 94.2214C228.714 94.2214 229.384 94.6948 229.649 95.528H229.68C230.021 94.72 230.804 94.2214 231.75 94.2214C233.063 94.2214 233.922 95.0925 233.922 96.4243V100.988H232.552V96.7525C232.552 95.8878 232.091 95.3891 231.283 95.3891C230.475 95.3891 229.914 95.9951 229.914 96.8345V100.988H228.576V96.6515C228.576 95.8814 228.09 95.3891 227.32 95.3891C226.512 95.3891 225.937 96.0266 225.937 96.885V100.988H224.574ZM235.241 103.197V94.3476H236.604V95.4901H236.636C237.034 94.7011 237.766 94.2214 238.713 94.2214C240.404 94.2214 241.49 95.5469 241.49 97.6677V97.674C241.49 99.7885 240.398 101.12 238.731 101.12C237.791 101.12 237.027 100.641 236.636 99.8706H236.604V103.197H235.241ZM238.359 99.9463C239.432 99.9463 240.101 99.0753 240.101 97.674V97.6677C240.101 96.2538 239.426 95.3891 238.359 95.3891C237.324 95.3891 236.598 96.2854 236.598 97.6677V97.674C236.598 99.05 237.33 99.9463 238.359 99.9463ZM245.403 101.12C243.497 101.12 242.254 99.8012 242.254 97.6677V97.6551C242.254 95.5343 243.51 94.2214 245.397 94.2214C247.29 94.2214 248.553 95.528 248.553 97.6551V97.6677C248.553 99.8075 247.303 101.12 245.403 101.12ZM245.409 99.9779C246.476 99.9779 247.158 99.1321 247.158 97.6677V97.6551C247.158 96.2034 246.464 95.3639 245.397 95.3639C244.349 95.3639 243.648 96.2034 243.648 97.6551V97.6677C243.648 99.1384 244.343 99.9779 245.409 99.9779ZM249.607 100.988V94.3476H250.97V95.3512H251.002C251.349 94.6759 252.031 94.2214 253.034 94.2214C254.492 94.2214 255.332 95.1619 255.332 96.6894V100.988H253.962V96.9482C253.962 95.9509 253.495 95.3891 252.548 95.3891C251.589 95.3891 250.97 96.0834 250.97 97.1186V100.988H249.607ZM259.485 101.12C257.535 101.12 256.354 99.7885 256.354 97.693V97.6867C256.354 95.61 257.554 94.2214 259.416 94.2214C261.278 94.2214 262.42 95.5595 262.42 97.5541V98.0149H257.718C257.743 99.2709 258.431 100.003 259.517 100.003C260.325 100.003 260.861 99.5865 261.032 99.0879L261.05 99.0374H262.344L262.332 99.1068C262.117 100.161 261.095 101.12 259.485 101.12ZM259.422 95.3386C258.538 95.3386 257.857 95.9383 257.737 97.0491H261.069C260.956 95.9004 260.312 95.3386 259.422 95.3386ZM263.481 100.988V94.3476H264.844V95.3512H264.875C265.223 94.6759 265.904 94.2214 266.908 94.2214C268.366 94.2214 269.205 95.1619 269.205 96.6894V100.988H267.836V96.9482C267.836 95.9509 267.369 95.3891 266.422 95.3891C265.462 95.3891 264.844 96.0834 264.844 97.1186V100.988H263.481ZM272.854 101.12C271.541 101.12 270.91 100.565 270.91 99.2394V95.4333H269.957V94.3476H270.91V92.6182H272.305V94.3476H273.548V95.4333H272.305V99.1573C272.305 99.8327 272.608 100.035 273.182 100.035C273.327 100.035 273.447 100.022 273.548 100.009V101.064C273.39 101.089 273.131 101.12 272.854 101.12ZM277.165 101.12C275.505 101.12 274.533 100.3 274.394 99.0879L274.388 99.0311H275.738L275.751 99.0942C275.877 99.7065 276.332 100.066 277.171 100.066C277.992 100.066 278.484 99.7254 278.484 99.1889V99.1826C278.484 98.7534 278.244 98.5072 277.531 98.3368L276.445 98.0906C275.183 97.8003 274.558 97.1943 274.558 96.2286V96.2223C274.558 95.0356 275.593 94.2214 277.121 94.2214C278.692 94.2214 279.639 95.0988 279.709 96.2286L279.715 96.3043H278.433L278.427 96.2602C278.345 95.6795 277.891 95.2755 277.121 95.2755C276.388 95.2755 275.928 95.6227 275.928 96.1529V96.1592C275.928 96.5694 276.199 96.8472 276.912 97.0176L277.992 97.2638C279.349 97.5794 279.866 98.1159 279.866 99.069V99.0753C279.866 100.287 278.73 101.12 277.165 101.12Z" fill="#1D1D1F"/>
<path d="M352.402 99.272C352.221 99.272 352.071 99.2013 351.925 99.0599L348.603 95.6578C348.492 95.5429 348.43 95.406 348.43 95.2425C348.43 94.9111 348.695 94.6416 349.022 94.6416C349.19 94.6416 349.34 94.7123 349.46 94.8316L352.407 97.8537L355.345 94.8316C355.464 94.7123 355.619 94.6416 355.778 94.6416C356.109 94.6416 356.374 94.9111 356.374 95.2425C356.374 95.406 356.317 95.5429 356.202 95.6578L352.88 99.0555C352.738 99.2013 352.583 99.272 352.402 99.272Z" fill="#007AFF"/>
<rect x="177.573" y="114.976" width="184.854" height="24.0488" rx="4.52439" stroke="#007AFF" stroke-width="1.29268"/>
<path d="M198.99 128.716C200.151 129.657 202.285 130.503 204.027 130.503C205.46 130.503 206.299 130.143 207.12 129.688C204.26 127.391 202.102 124.948 200.391 122.468C202.178 124.065 204.09 125.516 206.141 126.81C204.62 125.119 203.238 123.503 202.077 121.717C203.522 123.263 207.151 126.28 209.039 127.372C209.215 126.943 209.43 126.084 209.43 125.295C209.43 123.137 208.458 121.584 207.732 120.561C211.21 122.651 212.264 125.901 212.264 127.77C212.264 128.18 212.245 128.881 212.018 129.512C213.047 130.799 213.23 131.98 213.23 132.598C213.23 132.813 213.198 132.99 213.167 133.128C213.11 133.318 213.021 133.255 212.971 133.154C212.794 132.844 212.333 132.062 211.166 132.062C209.758 132.062 209.095 133.185 206.678 133.185C202.884 133.185 200.069 130.477 198.99 128.716Z" fill="#FF9500"/>
<path d="M220.294 131.5V123.61H217.505V122.392H224.492V123.61H221.708V131.5H220.294ZM226.688 131.633C224.738 131.633 223.558 130.301 223.558 128.205V128.199C223.558 126.122 224.757 124.734 226.619 124.734C228.481 124.734 229.623 126.072 229.623 128.066V128.527H224.921C224.946 129.783 225.634 130.515 226.72 130.515C227.528 130.515 228.064 130.099 228.235 129.6L228.254 129.55H229.548L229.535 129.619C229.321 130.673 228.298 131.633 226.688 131.633ZM226.625 125.851C225.742 125.851 225.06 126.45 224.94 127.561H228.273C228.159 126.413 227.515 125.851 226.625 125.851ZM230.072 131.5L232.268 128.186L230.103 124.86H231.637L233.082 127.265H233.114L234.54 124.86H236.049L233.865 128.142L236.024 131.5H234.522L233.051 129.057H233.019L231.549 131.5H230.072ZM239.237 131.633C237.924 131.633 237.292 131.077 237.292 129.752V125.946H236.339V124.86H237.292V123.13H238.687V124.86H239.931V125.946H238.687V129.67C238.687 130.345 238.99 130.547 239.565 130.547C239.71 130.547 239.83 130.534 239.931 130.522V131.576C239.773 131.601 239.514 131.633 239.237 131.633ZM241.458 131.5V125.946H240.543V124.86H241.458V124.153C241.458 122.865 242.064 122.259 243.415 122.259C243.693 122.259 243.996 122.285 244.179 122.316V123.326C244.046 123.307 243.876 123.294 243.705 123.294C243.093 123.294 242.803 123.591 242.803 124.178V124.86H244.154V125.946H242.828V131.5H241.458ZM245.965 123.837C245.523 123.837 245.17 123.484 245.17 123.055C245.17 122.619 245.523 122.266 245.965 122.266C246.413 122.266 246.76 122.619 246.76 123.055C246.76 123.484 246.413 123.837 245.965 123.837ZM245.283 131.5V124.86H246.647V131.5H245.283ZM250.888 131.633C248.938 131.633 247.758 130.301 247.758 128.205V128.199C247.758 126.122 248.957 124.734 250.819 124.734C252.681 124.734 253.823 126.072 253.823 128.066V128.527H249.121C249.146 129.783 249.834 130.515 250.92 130.515C251.728 130.515 252.264 130.099 252.435 129.6L252.454 129.55H253.748L253.735 129.619C253.52 130.673 252.498 131.633 250.888 131.633ZM250.825 125.851C249.942 125.851 249.26 126.45 249.14 127.561H252.473C252.359 126.413 251.715 125.851 250.825 125.851ZM254.934 131.5V122.392H256.298V131.5H254.934ZM260.18 131.633C258.488 131.633 257.402 130.294 257.402 128.18V128.174C257.402 126.059 258.501 124.734 260.167 124.734C261.107 124.734 261.865 125.207 262.262 125.99H262.288V122.392H263.657V131.5H262.288V130.376H262.262C261.865 131.153 261.133 131.633 260.18 131.633ZM260.539 130.459C261.568 130.459 262.294 129.562 262.294 128.18V128.174C262.294 126.798 261.562 125.901 260.539 125.901C259.466 125.901 258.797 126.772 258.797 128.174V128.18C258.797 129.594 259.46 130.459 260.539 130.459ZM267.792 131.5L264.547 122.392H266.069L268.555 129.928H268.587L271.074 122.392H272.595L269.351 131.5H267.792ZM274.015 123.837C273.573 123.837 273.22 123.484 273.22 123.055C273.22 122.619 273.573 122.266 274.015 122.266C274.463 122.266 274.811 122.619 274.811 123.055C274.811 123.484 274.463 123.837 274.015 123.837ZM273.334 131.5V124.86H274.697V131.5H273.334ZM278.939 131.633C276.988 131.633 275.808 130.301 275.808 128.205V128.199C275.808 126.122 277.007 124.734 278.869 124.734C280.731 124.734 281.874 126.072 281.874 128.066V128.527H277.171C277.197 129.783 277.885 130.515 278.97 130.515C279.778 130.515 280.315 130.099 280.485 129.6L280.504 129.55H281.798L281.785 129.619C281.571 130.673 280.548 131.633 278.939 131.633ZM278.875 125.851C277.992 125.851 277.31 126.45 277.19 127.561H280.523C280.409 126.413 279.765 125.851 278.875 125.851ZM284.228 131.5L282.404 124.86H283.767L284.979 130.086H285.004L286.387 124.86H287.7L289.088 130.086H289.12L290.332 124.86H291.682L289.865 131.5H288.444L287.049 126.526H287.018L285.636 131.5H284.228Z" fill="#1D1D1F"/>
<path d="M186.188 163.35C184.825 163.35 184.118 162.65 184.118 161.305V153.617C184.118 152.267 184.825 151.572 186.188 151.572H197.001C198.364 151.572 199.071 152.273 199.071 153.617V161.305C199.071 162.65 198.364 163.35 197.001 163.35H186.188ZM185.355 153.725V155.113H190.985V152.803H186.264C185.677 152.803 185.355 153.112 185.355 153.725ZM196.925 152.803H192.197V155.113H197.834V153.725C197.834 153.112 197.506 152.803 196.925 152.803ZM185.355 158.623H190.985V156.3H185.355V158.623ZM192.197 158.623H197.834V156.3H192.197V158.623ZM186.264 162.113H190.985V159.809H185.355V161.198C185.355 161.81 185.677 162.113 186.264 162.113ZM197.834 161.198V159.809H192.197V162.113H196.925C197.506 162.113 197.834 161.81 197.834 161.198Z" fill="#007AFF"/>
<path d="M204.523 162.012V152.904H207.735C210.437 152.904 212.046 154.564 212.046 157.43V157.442C212.046 160.321 210.449 162.012 207.735 162.012H204.523ZM205.936 160.788H207.603C209.534 160.788 210.601 159.607 210.601 157.455V157.442C210.601 155.303 209.522 154.122 207.603 154.122H205.936V160.788ZM215.171 162.132C213.845 162.132 212.955 161.318 212.955 160.125V160.112C212.955 158.957 213.852 158.25 215.423 158.156L217.229 158.048V157.55C217.229 156.817 216.755 156.376 215.909 156.376C215.12 156.376 214.634 156.748 214.521 157.278L214.508 157.335H213.22L213.227 157.266C213.321 156.123 214.312 155.246 215.947 155.246C217.569 155.246 218.598 156.104 218.598 157.436V162.012H217.229V160.964H217.203C216.818 161.678 216.048 162.132 215.171 162.132ZM214.331 160.093C214.331 160.674 214.811 161.04 215.543 161.04C216.503 161.04 217.229 160.39 217.229 159.525V159.008L215.606 159.109C214.786 159.159 214.331 159.519 214.331 160.081V160.093ZM222.253 162.145C220.94 162.145 220.309 161.589 220.309 160.264V156.458H219.356V155.372H220.309V153.643H221.704V155.372H222.947V156.458H221.704V160.182C221.704 160.857 222.007 161.059 222.581 161.059C222.726 161.059 222.846 161.046 222.947 161.034V162.088C222.789 162.113 222.531 162.145 222.253 162.145ZM225.926 162.132C224.601 162.132 223.711 161.318 223.711 160.125V160.112C223.711 158.957 224.607 158.25 226.179 158.156L227.984 158.048V157.55C227.984 156.817 227.511 156.376 226.665 156.376C225.876 156.376 225.39 156.748 225.276 157.278L225.264 157.335H223.976L223.982 157.266C224.077 156.123 225.068 155.246 226.703 155.246C228.325 155.246 229.354 156.104 229.354 157.436V162.012H227.984V160.964H227.959C227.574 161.678 226.804 162.132 225.926 162.132ZM225.087 160.093C225.087 160.674 225.567 161.04 226.299 161.04C227.258 161.04 227.984 160.39 227.984 159.525V159.008L226.362 159.109C225.541 159.159 225.087 159.519 225.087 160.081V160.093Z" fill="#1D1D1F"/>
<path d="M352.402 160.296C352.221 160.296 352.071 160.226 351.925 160.084L348.603 156.682C348.492 156.567 348.43 156.43 348.43 156.267C348.43 155.936 348.695 155.666 349.022 155.666C349.19 155.666 349.34 155.737 349.46 155.856L352.407 158.878L355.345 155.856C355.464 155.737 355.619 155.666 355.778 155.666C356.109 155.666 356.374 155.936 356.374 156.267C356.374 156.43 356.317 156.567 356.202 156.682L352.88 160.08C352.738 160.226 352.583 160.296 352.402 160.296Z" fill="#007AFF"/>
<path d="M201.698 193.863C200.334 193.863 199.627 193.162 199.627 191.817V184.13C199.627 182.779 200.334 182.084 201.698 182.084H212.51C213.873 182.084 214.58 182.785 214.58 184.13V191.817C214.58 193.162 213.873 193.863 212.51 193.863H201.698ZM200.864 184.237V185.625H206.495V183.315H201.773C201.186 183.315 200.864 183.625 200.864 184.237ZM212.434 183.315H207.707V185.625H213.343V184.237C213.343 183.625 213.015 183.315 212.434 183.315ZM200.864 189.135H206.495V186.812H200.864V189.135ZM207.707 189.135H213.343V186.812H207.707V189.135ZM201.773 192.625H206.495V190.322H200.864V191.71C200.864 192.322 201.186 192.625 201.773 192.625ZM213.343 191.71V190.322H207.707V192.625H212.434C213.015 192.625 213.343 192.322 213.343 191.71Z" fill="#00C7BE"/>
<path d="M220.032 192.524V183.416H223.421C225.208 183.416 226.445 184.616 226.445 186.402V186.414C226.445 188.194 225.208 189.413 223.421 189.413H221.446V192.524H220.032ZM223.068 184.609H221.446V188.226H223.068C224.299 188.226 225.006 187.563 225.006 186.421V186.408C225.006 185.272 224.299 184.609 223.068 184.609ZM227.518 192.524V185.884H228.881V187.02H228.913C229.127 186.244 229.683 185.758 230.44 185.758C230.636 185.758 230.806 185.79 230.914 185.809V187.077C230.806 187.033 230.566 187.001 230.301 187.001C229.424 187.001 228.881 187.576 228.881 188.567V192.524H227.518ZM234.322 192.657C232.416 192.657 231.172 191.338 231.172 189.204V189.192C231.172 187.071 232.428 185.758 234.316 185.758C236.209 185.758 237.472 187.065 237.472 189.192V189.204C237.472 191.344 236.222 192.657 234.322 192.657ZM234.328 191.515C235.395 191.515 236.077 190.669 236.077 189.204V189.192C236.077 187.74 235.382 186.9 234.316 186.9C233.268 186.9 232.567 187.74 232.567 189.192V189.204C232.567 190.675 233.262 191.515 234.328 191.515ZM239.252 184.862C238.81 184.862 238.456 184.508 238.456 184.079C238.456 183.644 238.81 183.29 239.252 183.29C239.7 183.29 240.047 183.644 240.047 184.079C240.047 184.508 239.7 184.862 239.252 184.862ZM237.762 194.746C237.655 194.746 237.535 194.74 237.446 194.734V193.616C237.51 193.616 237.573 193.623 237.642 193.623C238.318 193.623 238.57 193.408 238.57 192.739V185.884H239.933V192.752C239.933 194.102 239.233 194.746 237.762 194.746ZM244.175 192.657C242.225 192.657 241.044 191.325 241.044 189.23V189.223C241.044 187.147 242.244 185.758 244.106 185.758C245.968 185.758 247.11 187.096 247.11 189.091V189.551H242.408C242.433 190.808 243.121 191.54 244.207 191.54C245.014 191.54 245.551 191.123 245.721 190.625L245.74 190.574H247.034L247.022 190.643C246.807 191.698 245.785 192.657 244.175 192.657ZM244.112 186.875C243.228 186.875 242.547 187.475 242.427 188.586H245.759C245.646 187.437 245.002 186.875 244.112 186.875ZM251.023 192.657C249.086 192.657 247.874 191.325 247.874 189.198V189.192C247.874 187.09 249.111 185.758 251.004 185.758C252.715 185.758 253.75 186.856 253.864 188.106L253.87 188.15H252.57L252.557 188.1C252.412 187.45 251.907 186.9 251.017 186.9C249.957 186.9 249.269 187.784 249.269 189.204V189.211C249.269 190.662 249.969 191.515 251.023 191.515C251.863 191.515 252.399 191.028 252.564 190.309L252.57 190.258H253.883L253.876 190.303C253.731 191.634 252.62 192.657 251.023 192.657ZM257.178 192.657C255.865 192.657 255.233 192.102 255.233 190.776V186.97H254.28V185.884H255.233V184.155H256.628V185.884H257.872V186.97H256.628V190.694C256.628 191.369 256.931 191.571 257.506 191.571C257.651 191.571 257.771 191.559 257.872 191.546V192.6C257.714 192.625 257.455 192.657 257.178 192.657ZM261.489 192.657C259.829 192.657 258.857 191.836 258.718 190.625L258.711 190.568H260.062L260.075 190.631C260.201 191.243 260.655 191.603 261.495 191.603C262.315 191.603 262.808 191.262 262.808 190.726V190.719C262.808 190.29 262.568 190.044 261.855 189.873L260.769 189.627C259.507 189.337 258.882 188.731 258.882 187.765V187.759C258.882 186.572 259.917 185.758 261.444 185.758C263.016 185.758 263.963 186.635 264.032 187.765L264.039 187.841H262.757L262.751 187.797C262.669 187.216 262.214 186.812 261.444 186.812C260.712 186.812 260.251 187.159 260.251 187.689V187.696C260.251 188.106 260.523 188.384 261.236 188.554L262.315 188.8C263.673 189.116 264.19 189.652 264.19 190.606V190.612C264.19 191.824 263.054 192.657 261.489 192.657ZM265.415 192.524V183.416H267.049L269.997 190.688H270.035L272.989 183.416H274.617V192.524H273.33V185.802H273.286L270.54 192.524H269.492L266.746 185.802H266.702V192.524H265.415ZM278.985 192.657C277.079 192.657 275.836 191.338 275.836 189.204V189.192C275.836 187.071 277.092 185.758 278.979 185.758C280.873 185.758 282.135 187.065 282.135 189.192V189.204C282.135 191.344 280.885 192.657 278.985 192.657ZM278.992 191.515C280.058 191.515 280.74 190.669 280.74 189.204V189.192C280.74 187.74 280.046 186.9 278.979 186.9C277.931 186.9 277.231 187.74 277.231 189.192V189.204C277.231 190.675 277.925 191.515 278.992 191.515ZM285.67 192.657C283.978 192.657 282.892 191.319 282.892 189.204V189.198C282.892 187.084 283.991 185.758 285.657 185.758C286.597 185.758 287.355 186.231 287.753 187.014H287.778V183.416H289.147V192.524H287.778V191.401H287.753C287.355 192.177 286.623 192.657 285.67 192.657ZM286.029 191.483C287.058 191.483 287.784 190.587 287.784 189.204V189.198C287.784 187.822 287.052 186.926 286.029 186.926C284.956 186.926 284.287 187.797 284.287 189.198V189.204C284.287 190.618 284.95 191.483 286.029 191.483ZM293.383 192.657C291.432 192.657 290.252 191.325 290.252 189.23V189.223C290.252 187.147 291.451 185.758 293.313 185.758C295.175 185.758 296.318 187.096 296.318 189.091V189.551H291.615C291.641 190.808 292.329 191.54 293.414 191.54C294.222 191.54 294.759 191.123 294.929 190.625L294.948 190.574H296.242L296.229 190.643C296.015 191.698 294.992 192.657 293.383 192.657ZM293.32 186.875C292.436 186.875 291.754 187.475 291.634 188.586H294.967C294.853 187.437 294.21 186.875 293.32 186.875ZM297.429 192.524V183.416H298.792V192.524H297.429Z" fill="#1D1D1F"/>
<path d="M202.29 223.503C200.301 223.503 199.102 222.21 199.102 220.575C199.102 219.218 199.954 218.126 201.254 217.741C201.507 215.191 203.602 213.303 206.089 213.303C208.002 213.303 209.548 214.301 210.4 215.986C212.73 215.98 214.434 217.608 214.434 219.742C214.434 221.856 212.748 223.503 210.571 223.503H202.29ZM202.296 222.323H210.615C212.111 222.323 213.253 221.206 213.253 219.773C213.253 218.328 212.142 217.185 210.179 217.185C209.788 217.185 209.605 217.078 209.447 216.756C208.728 215.317 207.566 214.49 206.089 214.49C204.139 214.49 202.599 216.03 202.41 218.176C202.378 218.561 202.245 218.719 201.886 218.807C200.857 219.085 200.282 219.716 200.282 220.613C200.282 221.648 201.04 222.323 202.296 222.323Z" fill="#34C759"/>
<path d="M219.032 223.036V213.928H222.421C224.208 213.928 225.445 215.128 225.445 216.914V216.926C225.445 218.706 224.208 219.925 222.421 219.925H220.446V223.036H219.032ZM222.068 215.121H220.446V218.738H222.068C223.299 218.738 224.006 218.075 224.006 216.933V216.92C224.006 215.784 223.299 215.121 222.068 215.121ZM226.518 223.036V216.396H227.881V217.532H227.913C228.127 216.756 228.683 216.27 229.44 216.27C229.636 216.27 229.806 216.302 229.914 216.32V217.589C229.806 217.545 229.566 217.513 229.301 217.513C228.424 217.513 227.881 218.088 227.881 219.079V223.036H226.518ZM233.322 223.169C231.416 223.169 230.172 221.85 230.172 219.716V219.704C230.172 217.583 231.428 216.27 233.316 216.27C235.209 216.27 236.472 217.577 236.472 219.704V219.716C236.472 221.856 235.222 223.169 233.322 223.169ZM233.328 222.026C234.395 222.026 235.077 221.181 235.077 219.716V219.704C235.077 218.252 234.382 217.412 233.316 217.412C232.268 217.412 231.567 218.252 231.567 219.704V219.716C231.567 221.187 232.262 222.026 233.328 222.026ZM238.252 215.374C237.81 215.374 237.456 215.02 237.456 214.591C237.456 214.155 237.81 213.802 238.252 213.802C238.7 213.802 239.047 214.155 239.047 214.591C239.047 215.02 238.7 215.374 238.252 215.374ZM236.762 225.258C236.655 225.258 236.535 225.252 236.446 225.246V224.128C236.51 224.128 236.573 224.135 236.642 224.135C237.318 224.135 237.57 223.92 237.57 223.251V216.396H238.933V223.264C238.933 224.614 238.233 225.258 236.762 225.258ZM243.175 223.169C241.225 223.169 240.044 221.837 240.044 219.742V219.735C240.044 217.659 241.244 216.27 243.106 216.27C244.968 216.27 246.11 217.608 246.11 219.603V220.063H241.408C241.433 221.32 242.121 222.052 243.207 222.052C244.014 222.052 244.551 221.635 244.721 221.136L244.74 221.086H246.034L246.022 221.155C245.807 222.21 244.785 223.169 243.175 223.169ZM243.112 217.387C242.228 217.387 241.547 217.987 241.427 219.098H244.759C244.646 217.949 244.002 217.387 243.112 217.387ZM250.023 223.169C248.086 223.169 246.874 221.837 246.874 219.71V219.704C246.874 217.602 248.111 216.27 250.004 216.27C251.715 216.27 252.75 217.368 252.864 218.618L252.87 218.662H251.57L251.557 218.612C251.412 217.962 250.907 217.412 250.017 217.412C248.957 217.412 248.269 218.296 248.269 219.716V219.723C248.269 221.174 248.969 222.026 250.023 222.026C250.863 222.026 251.399 221.54 251.564 220.821L251.57 220.77H252.883L252.876 220.815C252.731 222.146 251.62 223.169 250.023 223.169ZM256.178 223.169C254.865 223.169 254.233 222.613 254.233 221.288V217.482H253.28V216.396H254.233V214.667H255.628V216.396H256.872V217.482H255.628V221.206C255.628 221.881 255.931 222.083 256.506 222.083C256.651 222.083 256.771 222.071 256.872 222.058V223.112C256.714 223.137 256.455 223.169 256.178 223.169ZM260.489 223.169C258.829 223.169 257.857 222.348 257.718 221.136L257.711 221.08H259.062L259.075 221.143C259.201 221.755 259.655 222.115 260.495 222.115C261.315 222.115 261.808 221.774 261.808 221.237V221.231C261.808 220.802 261.568 220.556 260.855 220.385L259.769 220.139C258.507 219.849 257.882 219.243 257.882 218.277V218.271C257.882 217.084 258.917 216.27 260.444 216.27C262.016 216.27 262.963 217.147 263.032 218.277L263.039 218.353H261.757L261.751 218.309C261.669 217.728 261.214 217.324 260.444 217.324C259.712 217.324 259.251 217.671 259.251 218.201V218.208C259.251 218.618 259.523 218.896 260.236 219.066L261.315 219.312C262.673 219.628 263.19 220.164 263.19 221.118V221.124C263.19 222.336 262.054 223.169 260.489 223.169ZM267.52 223.188C265.475 223.188 264.124 222.216 264.011 220.613L264.004 220.518H265.38L265.393 220.6C265.519 221.439 266.359 221.963 267.577 221.963C268.795 221.963 269.565 221.414 269.565 220.562V220.556C269.565 219.824 269.067 219.426 267.861 219.161L266.87 218.953C265.084 218.574 264.219 217.753 264.219 216.403V216.396C264.225 214.843 265.595 213.777 267.52 213.777C269.42 213.777 270.72 214.812 270.815 216.339L270.821 216.447H269.445L269.439 216.358C269.313 215.513 268.581 215.001 267.501 215.001C266.371 215.008 265.652 215.544 265.652 216.339V216.346C265.652 217.027 266.169 217.444 267.305 217.69L268.303 217.898C270.184 218.296 270.992 219.06 270.992 220.467V220.474C270.992 222.134 269.679 223.188 267.52 223.188ZM272.885 225.252C272.62 225.252 272.336 225.22 272.172 225.189V224.122C272.279 224.147 272.437 224.173 272.62 224.173C273.264 224.173 273.617 224.002 273.845 223.358L273.958 223.043L271.541 216.396H273.018L274.69 221.799H274.735L276.407 216.396H277.846L275.372 223.346C274.88 224.722 274.185 225.252 272.885 225.252ZM278.642 223.036V216.396H280.005V217.4H280.037C280.384 216.724 281.065 216.27 282.069 216.27C283.527 216.27 284.367 217.21 284.367 218.738V223.036H282.997V218.997C282.997 217.999 282.53 217.438 281.583 217.438C280.624 217.438 280.005 218.132 280.005 219.167V223.036H278.642ZM288.539 223.169C286.601 223.169 285.389 221.837 285.389 219.71V219.704C285.389 217.602 286.626 216.27 288.52 216.27C290.23 216.27 291.266 217.368 291.379 218.618L291.385 218.662H290.085L290.073 218.612C289.927 217.962 289.422 217.412 288.533 217.412C287.472 217.412 286.784 218.296 286.784 219.716V219.723C286.784 221.174 287.485 222.026 288.539 222.026C289.378 222.026 289.915 221.54 290.079 220.821L290.085 220.77H291.398L291.392 220.815C291.247 222.146 290.136 223.169 288.539 223.169Z" fill="#1D1D1F"/>
</svg>
