<svg width="18" height="20" viewBox="0 0 18 20" fill="none" xmlns="http://www.w3.org/2000/svg">
<path d="M2.39062 7.55469C1.76562 7.55469 1.27083 7.375 0.90625 7.01562C0.541667 6.65625 0.359375 6.16667 0.359375 5.54688V2.92969C0.359375 2.3151 0.541667 1.82812 0.90625 1.46875C1.27083 1.10938 1.76562 0.929688 2.39062 0.929688H15.6094C16.2344 0.929688 16.7292 1.10938 17.0938 1.46875C17.4583 1.82812 17.6406 2.3151 17.6406 2.92969V5.54688C17.6406 6.16667 17.4583 6.65625 17.0938 7.01562C16.7292 7.375 16.2344 7.55469 15.6094 7.55469H2.39062ZM2.60156 5.91406H15.3906C15.5833 5.91406 15.7318 5.85938 15.8359 5.75C15.9453 5.63542 16 5.48177 16 5.28906V3.1875C16 2.99479 15.9453 2.84375 15.8359 2.73438C15.7318 2.625 15.5833 2.57031 15.3906 2.57031H2.60156C2.41406 2.57031 2.26562 2.625 2.15625 2.73438C2.05208 2.84375 2 2.99479 2 3.1875V5.28906C2 5.48177 2.05208 5.63542 2.15625 5.75C2.26562 5.85938 2.41406 5.91406 2.60156 5.91406ZM8.23438 9.53125V6.66406H9.77344V9.53125H8.23438ZM2.39062 15.2109C1.76562 15.2109 1.27083 15.0312 0.90625 14.6719C0.541667 14.3125 0.359375 13.8255 0.359375 13.2109V10.5938C0.359375 9.97917 0.541667 9.49219 0.90625 9.13281C1.27083 8.77344 1.76562 8.59375 2.39062 8.59375H15.6094C16.2344 8.59375 16.7292 8.77344 17.0938 9.13281C17.4583 9.49219 17.6406 9.97917 17.6406 10.5938V13.2109C17.6406 13.8255 17.4583 14.3125 17.0938 14.6719C16.7292 15.0312 16.2344 15.2109 15.6094 15.2109H2.39062ZM2.60156 13.5781H15.3906C15.5833 13.5781 15.7318 13.5234 15.8359 13.4141C15.9453 13.3047 16 13.1536 16 12.9609V10.8516C16 10.6641 15.9453 10.5156 15.8359 10.4062C15.7318 10.2917 15.5833 10.2344 15.3906 10.2344H2.60156C2.41406 10.2344 2.26562 10.2917 2.15625 10.4062C2.05208 10.5156 2 10.6641 2 10.8516V12.9609C2 13.1536 2.05208 13.3047 2.15625 13.4141C2.26562 13.5234 2.41406 13.5781 2.60156 13.5781ZM8.23438 17.0391V14.0859H9.77344V17.0391H8.23438ZM8.54688 19.7109L6.57031 17.3281C6.36198 17.0781 6.30469 16.8307 6.39844 16.5859C6.4974 16.3464 6.71354 16.2266 7.04688 16.2266H10.9766C11.3047 16.2266 11.5156 16.349 11.6094 16.5938C11.7031 16.8385 11.6484 17.0833 11.4453 17.3281L9.48438 19.7109C9.35938 19.8672 9.20312 19.9453 9.01562 19.9453C8.83333 19.9453 8.67708 19.8672 8.54688 19.7109Z" fill="white"/>
</svg>
