<svg width="19" height="17" viewBox="0 0 19 17" fill="none" xmlns="http://www.w3.org/2000/svg">
<path opacity="0.8" d="M0.835938 10.5156C1.1901 10.8021 1.60677 11.0755 2.08594 11.3359C2.5651 11.5964 3.08073 11.8281 3.63281 12.0312C4.1849 12.2344 4.74479 12.3958 5.3125 12.5156C5.88021 12.6302 6.42969 12.6875 6.96094 12.6875C7.54427 12.6875 8.05469 12.6432 8.49219 12.5547C8.9349 12.4661 9.33333 12.349 9.6875 12.2031C10.0469 12.0521 10.3906 11.8854 10.7188 11.7031C8.98438 10.3021 7.44792 8.86458 6.10938 7.39062C4.77083 5.91667 3.58333 4.42448 2.54688 2.91406C3.63021 3.88281 4.7526 4.8099 5.91406 5.69531C7.08073 6.57552 8.28906 7.41146 9.53906 8.20312C8.61198 7.17188 7.73177 6.15365 6.89844 5.14844C6.0651 4.13802 5.29688 3.08854 4.59375 2C4.94792 2.375 5.39062 2.8099 5.92188 3.30469C6.45312 3.79948 7.03385 4.3151 7.66406 4.85156C8.29948 5.38802 8.94271 5.91406 9.59375 6.42969C10.25 6.94531 10.875 7.41667 11.4688 7.84375C12.0677 8.27083 12.599 8.61719 13.0625 8.88281C13.1667 8.6224 13.2708 8.25521 13.375 7.78125C13.4792 7.30729 13.5312 6.83333 13.5312 6.35938C13.5312 5.48438 13.4193 4.6901 13.1953 3.97656C12.9766 3.25781 12.7083 2.61719 12.3906 2.05469C12.0729 1.49219 11.7656 1.00521 11.4688 0.59375C12.526 1.22917 13.4089 1.9349 14.1172 2.71094C14.8307 3.48698 15.3958 4.27865 15.8125 5.08594C16.2344 5.88802 16.5339 6.66146 16.7109 7.40625C16.8932 8.14583 16.9844 8.79948 16.9844 9.36719C16.9844 9.61719 16.9688 9.9375 16.9375 10.3281C16.9062 10.7135 16.8203 11.099 16.6797 11.4844C17.0964 12.0052 17.4115 12.5052 17.625 12.9844C17.8385 13.4635 17.9818 13.8958 18.0547 14.2812C18.1276 14.6667 18.1641 14.9844 18.1641 15.2344C18.1641 15.3698 18.1536 15.4896 18.1328 15.5938C18.1172 15.7031 18.099 15.7995 18.0781 15.8828C18.0469 15.9974 18.0078 16.0469 17.9609 16.0312C17.9141 16.0156 17.875 15.9766 17.8438 15.9141C17.7708 15.7891 17.6536 15.6198 17.4922 15.4062C17.3307 15.1979 17.099 15.0078 16.7969 14.8359C16.5 14.6693 16.1146 14.5859 15.6406 14.5859C15.3021 14.5859 14.987 14.6302 14.6953 14.7188C14.4089 14.8125 14.1198 14.9271 13.8281 15.0625C13.5417 15.1979 13.2292 15.3333 12.8906 15.4688C12.5521 15.6094 12.1641 15.724 11.7266 15.8125C11.2891 15.9062 10.776 15.9531 10.1875 15.9531C9.26562 15.9531 8.39323 15.8359 7.57031 15.6016C6.7474 15.3672 5.98438 15.0521 5.28125 14.6562C4.57812 14.2656 3.9401 13.8333 3.36719 13.3594C2.79427 12.8802 2.29427 12.3958 1.86719 11.9062C1.4401 11.4115 1.09635 10.9479 0.835938 10.5156Z" fill="#1D1D1F"/>
</svg>
