<svg width="18" height="17" viewBox="0 0 18 17" fill="none" xmlns="http://www.w3.org/2000/svg">
<path d="M9.625 1.92969H5.34375L3.94531 0.507812H9.625C9.82292 0.507812 9.98958 0.578125 10.125 0.71875C10.2656 0.854167 10.3359 1.02083 10.3359 1.21875C10.3359 1.41667 10.2656 1.58594 10.125 1.72656C9.98958 1.86198 9.82292 1.92969 9.625 1.92969ZM11.8984 4.23438H7.60938L6.20312 2.8125H11.8984C12.0964 2.8125 12.263 2.88021 12.3984 3.01562C12.5391 3.15104 12.6094 3.31771 12.6094 3.51562C12.6094 3.71875 12.5391 3.89062 12.3984 4.03125C12.263 4.16667 12.0964 4.23438 11.8984 4.23438ZM14.1406 6.53125H9.88281L8.46875 5.11719H14.1406C14.3438 5.11719 14.513 5.1849 14.6484 5.32031C14.7839 5.45573 14.8516 5.6224 14.8516 5.82031C14.8516 6.01823 14.7839 6.1875 14.6484 6.32812C14.513 6.46354 14.3438 6.53125 14.1406 6.53125ZM16.4141 7.41406C16.612 7.41406 16.7786 7.48177 16.9141 7.61719C17.0547 7.7526 17.125 7.92188 17.125 8.125C17.125 8.32292 17.0547 8.49219 16.9141 8.63281C16.7786 8.76823 16.612 8.83594 16.4141 8.83594H11.4453C11.4349 8.57031 11.3724 8.33073 11.2578 8.11719C11.1484 7.89844 10.974 7.66406 10.7344 7.41406H16.4141ZM9.00781 15.125C9.09115 15.3177 9.10156 15.5 9.03906 15.6719C8.97656 15.849 8.85156 15.974 8.66406 16.0469L7.24219 16.6094C7.0651 16.6823 6.89062 16.6849 6.71875 16.6172C6.55208 16.5547 6.42969 16.4245 6.35156 16.2266L3.49219 9.11719L4.79688 9.57812L2.11719 12.5781C1.96615 12.75 1.79427 12.8385 1.60156 12.8438C1.40885 12.8438 1.24219 12.7812 1.10156 12.6562C0.960938 12.526 0.890625 12.3438 0.890625 12.1094L1.05469 0.890625C1.05469 0.677083 1.11719 0.510417 1.24219 0.390625C1.3724 0.270833 1.52344 0.213542 1.69531 0.21875C1.8724 0.21875 2.03646 0.294271 2.1875 0.445312L10.1016 8.48438C10.263 8.64583 10.3411 8.82292 10.3359 9.01562C10.3307 9.20312 10.2604 9.36198 10.125 9.49219C9.98958 9.61719 9.8099 9.67188 9.58594 9.65625L5.40625 9.41406L6.02344 8.20312L9.00781 15.125Z" fill="white"/>
</svg>
