<svg width="22" height="19" viewBox="0 0 22 19" fill="none" xmlns="http://www.w3.org/2000/svg">
<path d="M12.5 18.8213C11.8906 18.8213 11.2959 18.7598 10.7158 18.6367C10.1357 18.5195 9.5791 18.3496 9.0459 18.127C9.51465 17.6055 9.88086 17.0137 10.1445 16.3516C10.4141 15.6895 10.5488 14.9893 10.5488 14.251C10.5488 13.8057 10.499 13.375 10.3994 12.959C10.7158 12.8828 11.0469 12.8242 11.3926 12.7832C11.7441 12.7422 12.1104 12.7217 12.4912 12.7217C13.2939 12.7217 14.0293 12.8096 14.6973 12.9854C15.3652 13.1553 15.9512 13.3809 16.4551 13.6621C16.959 13.9434 17.3662 14.248 17.6768 14.5762C18.292 13.9434 18.7754 13.2051 19.127 12.3613C19.4785 11.5176 19.6543 10.6152 19.6543 9.6543C19.6543 8.66406 19.4668 7.73828 19.0918 6.87695C18.7227 6.00977 18.21 5.24805 17.5537 4.5918C16.9033 3.93555 16.1445 3.42285 15.2773 3.05371C14.416 2.68457 13.4873 2.5 12.4912 2.5C11.6006 2.5 10.7598 2.65234 9.96875 2.95703C9.17773 3.25586 8.46582 3.67773 7.83301 4.22266C7.20605 4.76172 6.6875 5.39453 6.27734 6.12109C5.86719 6.84766 5.5918 7.63574 5.45117 8.48535C5.12891 8.42676 4.7832 8.40625 4.41406 8.42383C4.04492 8.43555 3.70801 8.47949 3.40332 8.55566C3.53809 7.43066 3.86621 6.37891 4.3877 5.40039C4.91504 4.42188 5.58887 3.56641 6.40918 2.83398C7.22949 2.0957 8.1582 1.52148 9.19531 1.11133C10.2324 0.701172 11.3311 0.496094 12.4912 0.496094C13.7451 0.496094 14.9258 0.736328 16.0332 1.2168C17.1406 1.69141 18.1162 2.35059 18.96 3.19434C19.8037 4.03809 20.4658 5.01367 20.9463 6.12109C21.4268 7.22266 21.667 8.40039 21.667 9.6543C21.667 10.9082 21.4268 12.0889 20.9463 13.1963C20.4717 14.3037 19.8125 15.2793 18.9688 16.123C18.125 16.9668 17.1494 17.626 16.042 18.1006C14.9346 18.5811 13.7539 18.8213 12.5 18.8213ZM12.4912 11.3066C11.9229 11.3008 11.4102 11.1514 10.9531 10.8584C10.4961 10.5654 10.1328 10.1699 9.86328 9.67188C9.59375 9.16797 9.45898 8.60254 9.45898 7.97559C9.45312 7.38965 9.58496 6.85059 9.85449 6.3584C10.124 5.86035 10.4873 5.46484 10.9443 5.17188C11.4072 4.87305 11.9229 4.72363 12.4912 4.72363C13.0596 4.72363 13.5723 4.87305 14.0293 5.17188C14.4863 5.46484 14.8496 5.86035 15.1191 6.3584C15.3887 6.85059 15.5234 7.38965 15.5234 7.97559C15.5234 8.6084 15.3887 9.17676 15.1191 9.68066C14.8496 10.1846 14.4863 10.583 14.0293 10.876C13.5723 11.1689 13.0596 11.3125 12.4912 11.3066ZM4.71289 18.8301C4.08594 18.8301 3.49707 18.71 2.94629 18.4697C2.39551 18.2295 1.91211 17.8984 1.49609 17.4766C1.07422 17.0605 0.743164 16.5771 0.50293 16.0264C0.262695 15.4756 0.142578 14.8867 0.142578 14.2598C0.142578 13.627 0.262695 13.0381 0.50293 12.4932C0.743164 11.9424 1.07422 11.4561 1.49609 11.0342C1.91211 10.6123 2.39551 10.2842 2.94629 10.0498C3.49707 9.80957 4.08594 9.68945 4.71289 9.68945C5.33984 9.68945 5.92871 9.80957 6.47949 10.0498C7.03027 10.2842 7.5166 10.6123 7.93848 11.0342C8.36035 11.4502 8.68848 11.9336 8.92285 12.4844C9.15723 13.0352 9.27441 13.627 9.27441 14.2598C9.27441 14.8809 9.1543 15.4668 8.91406 16.0176C8.67969 16.5684 8.35156 17.0547 7.92969 17.4766C7.50781 17.8984 7.02148 18.2295 6.4707 18.4697C5.91992 18.71 5.33398 18.8301 4.71289 18.8301ZM2.6123 15.0508H4.76562C4.95312 15.0508 5.1084 14.9863 5.23145 14.8574C5.36035 14.7285 5.4248 14.5703 5.4248 14.3828V11.7549C5.4248 11.5732 5.36035 11.4209 5.23145 11.2979C5.10254 11.1689 4.94727 11.1045 4.76562 11.1045C4.57812 11.1045 4.41992 11.1689 4.29102 11.2979C4.16797 11.4209 4.10645 11.5732 4.10645 11.7549V13.7236H2.6123C2.43066 13.7236 2.27246 13.7881 2.1377 13.917C2.00879 14.0459 1.94434 14.2012 1.94434 14.3828C1.94434 14.5645 2.00879 14.7227 2.1377 14.8574C2.2666 14.9863 2.4248 15.0508 2.6123 15.0508Z" fill="#FF9900"/>
</svg>
