<svg width="15" height="13" viewBox="0 0 15 13" fill="none" xmlns="http://www.w3.org/2000/svg">
<path d="M8.83984 12.8809C8.43359 12.8809 8.03711 12.8398 7.65039 12.7578C7.26367 12.6797 6.89258 12.5664 6.53711 12.418C6.84961 12.0703 7.09375 11.6758 7.26953 11.2344C7.44922 10.793 7.53906 10.3262 7.53906 9.83398C7.53906 9.53711 7.50586 9.25 7.43945 8.97266C7.65039 8.92188 7.87109 8.88281 8.10156 8.85547C8.33594 8.82812 8.58008 8.81445 8.83398 8.81445C9.36914 8.81445 9.85938 8.87305 10.3047 8.99023C10.75 9.10352 11.1406 9.25391 11.4766 9.44141C11.8125 9.62891 12.084 9.83203 12.291 10.0508C12.7012 9.62891 13.0234 9.13672 13.2578 8.57422C13.4922 8.01172 13.6094 7.41016 13.6094 6.76953C13.6094 6.10938 13.4844 5.49219 13.2344 4.91797C12.9883 4.33984 12.6465 3.83203 12.209 3.39453C11.7754 2.95703 11.2695 2.61523 10.6914 2.36914C10.1172 2.12305 9.49805 2 8.83398 2C8.24023 2 7.67969 2.10156 7.15234 2.30469C6.625 2.50391 6.15039 2.78516 5.72852 3.14844C5.31055 3.50781 4.96484 3.92969 4.69141 4.41406C4.41797 4.89844 4.23438 5.42383 4.14062 5.99023C3.92578 5.95117 3.69531 5.9375 3.44922 5.94922C3.20312 5.95703 2.97852 5.98633 2.77539 6.03711C2.86523 5.28711 3.08398 4.58594 3.43164 3.93359C3.7832 3.28125 4.23242 2.71094 4.7793 2.22266C5.32617 1.73047 5.94531 1.34766 6.63672 1.07422C7.32812 0.800781 8.06055 0.664062 8.83398 0.664062C9.66992 0.664062 10.457 0.824219 11.1953 1.14453C11.9336 1.46094 12.584 1.90039 13.1465 2.46289C13.709 3.02539 14.1504 3.67578 14.4707 4.41406C14.791 5.14844 14.9512 5.93359 14.9512 6.76953C14.9512 7.60547 14.791 8.39258 14.4707 9.13086C14.1543 9.86914 13.7148 10.5195 13.1523 11.082C12.5898 11.6445 11.9395 12.084 11.2012 12.4004C10.4629 12.7207 9.67578 12.8809 8.83984 12.8809ZM8.83398 7.87109C8.45508 7.86719 8.11328 7.76758 7.80859 7.57227C7.50391 7.37695 7.26172 7.11328 7.08203 6.78125C6.90234 6.44531 6.8125 6.06836 6.8125 5.65039C6.80859 5.25977 6.89648 4.90039 7.07617 4.57227C7.25586 4.24023 7.49805 3.97656 7.80273 3.78125C8.11133 3.58203 8.45508 3.48242 8.83398 3.48242C9.21289 3.48242 9.55469 3.58203 9.85938 3.78125C10.1641 3.97656 10.4062 4.24023 10.5859 4.57227C10.7656 4.90039 10.8555 5.25977 10.8555 5.65039C10.8555 6.07227 10.7656 6.45117 10.5859 6.78711C10.4062 7.12305 10.1641 7.38867 9.85938 7.58398C9.55469 7.7793 9.21289 7.875 8.83398 7.87109ZM3.64844 12.8867C3.23047 12.8867 2.83789 12.8066 2.4707 12.6465C2.10352 12.4863 1.78125 12.2656 1.50391 11.9844C1.22266 11.707 1.00195 11.3848 0.841797 11.0176C0.681641 10.6504 0.601562 10.2578 0.601562 9.83984C0.601562 9.41797 0.681641 9.02539 0.841797 8.66211C1.00195 8.29492 1.22266 7.9707 1.50391 7.68945C1.78125 7.4082 2.10352 7.18945 2.4707 7.0332C2.83789 6.87305 3.23047 6.79297 3.64844 6.79297C4.06641 6.79297 4.45898 6.87305 4.82617 7.0332C5.19336 7.18945 5.51758 7.4082 5.79883 7.68945C6.08008 7.9668 6.29883 8.28906 6.45508 8.65625C6.61133 9.02344 6.68945 9.41797 6.68945 9.83984C6.68945 10.2539 6.60938 10.6445 6.44922 11.0117C6.29297 11.3789 6.07422 11.7031 5.79297 11.9844C5.51172 12.2656 5.1875 12.4863 4.82031 12.6465C4.45312 12.8066 4.0625 12.8867 3.64844 12.8867ZM2.24805 10.3672H3.68359C3.80859 10.3672 3.91211 10.3242 3.99414 10.2383C4.08008 10.1523 4.12305 10.0469 4.12305 9.92188V8.16992C4.12305 8.04883 4.08008 7.94727 3.99414 7.86523C3.9082 7.7793 3.80469 7.73633 3.68359 7.73633C3.55859 7.73633 3.45312 7.7793 3.36719 7.86523C3.28516 7.94727 3.24414 8.04883 3.24414 8.16992V9.48242H2.24805C2.12695 9.48242 2.02148 9.52539 1.93164 9.61133C1.8457 9.69727 1.80273 9.80078 1.80273 9.92188C1.80273 10.043 1.8457 10.1484 1.93164 10.2383C2.01758 10.3242 2.12305 10.3672 2.24805 10.3672Z" fill="white"/>
</svg>
